<?xml version="1.0" encoding="UTF-8"?>
<svg version="1.1" xmlns="http://www.w3.org/2000/svg" width="1024" height="1024">
<path d="M0 0 C1.14952148 0.59868896 1.14952148 0.59868896 2.32226562 1.20947266 C23.84032767 12.47162383 43.38291566 26.43945189 62 42 C63.03251765 42.84379213 64.06507099 43.6875406 65.09765625 44.53125 C79.67457474 56.58803229 93.41424183 70.03309199 105 85 C106.57965191 86.85730404 108.16323257 88.71127133 109.75 90.5625 C121.29908104 104.45357735 131.02075095 119.35002831 140 135 C140.48823242 135.83418457 140.97646484 136.66836914 141.47949219 137.52783203 C186.30642901 214.34234902 197.33942113 309.72813573 175.62475586 395.52685547 C169.93079141 417.01357896 162.47801191 437.89184963 153 458 C152.59813477 458.8573877 152.19626953 459.71477539 151.78222656 460.59814453 C139.55574273 486.4451875 123.94934659 510.31399544 105.53515625 532.17236328 C104.07156382 533.91480172 102.62798536 535.67204246 101.1875 537.43359375 C90.26146905 550.64899734 78.12366616 563.45294493 64.56640625 573.98828125 C62.18355292 575.8561191 59.90881011 577.81510476 57.63598633 579.81420898 C-9.62338471 638.51614259 -103.68648176 663.21859197 -191.45149231 657.64038086 C-254.81376062 653.15176726 -316.9694461 630.96451365 -368.5078125 593.8046875 C-369.48065186 593.10448486 -369.48065186 593.10448486 -370.47314453 592.39013672 C-372 591 -372 591 -373 588 C-374.0209375 587.938125 -374.0209375 587.938125 -375.0625 587.875 C-379.22082266 586.6363507 -382.06470249 584.1571084 -385 581 C-385.67929735 579.67305715 -386.34792577 578.34053028 -387 577 C-388.86644906 575.81669817 -388.86644906 575.81669817 -391 575 C-394.46606482 573.52954826 -395.84303014 572.06953403 -398 569 C-402.7597356 563.2071435 -407.96303758 557.99599221 -413.3125 552.75 C-420.01519117 546.10633262 -426.24194 539.48009664 -432 532 C-432.93290074 530.85277965 -433.86935969 529.70844727 -434.80859375 528.56640625 C-482.45916071 470.426576 -504.16239672 401.71639701 -513 328 C-513.66 328 -514.32 328 -515 328 C-515 315.46 -515 302.92 -515 290 C-513.68 290 -512.36 290 -511 290 C-511.03480469 289.34 -511.06960938 288.68 -511.10546875 288 C-511.54831626 271.80443401 -508.73212537 255.47260473 -505.453125 239.65625 C-504.93453024 235.47172673 -505.40463565 232.15866445 -506 228 C-505.125 226 -505.125 226 -504 224 C-503.7952635 222.67197947 -503.63273061 221.33713804 -503.5 220 C-503.17625459 216.86660688 -502.48810533 214.79019749 -501 212 C-500.87625 211.13375 -500.7525 210.2675 -500.625 209.375 C-500.06860523 206.37046822 -499.29432198 204.10735671 -498.125 201.3125 C-496.65211997 197.78075541 -495.49924663 194.33451664 -494.5625 190.625 C-492.98233012 184.48867363 -490.55497118 178.78655529 -488 173 C-486.68 173 -485.36 173 -484 173 C-483.608125 171.741875 -483.21625 170.48375 -482.8125 169.1875 C-481.24520496 164.40232866 -479.1479068 159.97557302 -476.890625 155.48046875 C-475.89246206 152.70049739 -476.19684592 151.74362123 -477 149 C-475.3125 146.5625 -475.3125 146.5625 -473 144 C-469.28141019 139.68163764 -466.66263424 135.00880786 -464 130 C-463.34 130 -462.68 130 -462 130 C-461.92136719 129.47535156 -461.84273437 128.95070313 -461.76171875 128.41015625 C-460.69608746 125.03838957 -458.78618949 122.33359975 -456.8125 119.4375 C-456.15580322 118.46598999 -456.15580322 118.46598999 -455.48583984 117.47485352 C-446.454681 104.240504 -436.95546837 91.42709573 -426.29492188 79.45800781 C-425.15823828 78.17816723 -424.0386217 76.88321092 -422.921875 75.5859375 C-412.36548878 63.49180999 -400.93289293 51.38363873 -388.03125 41.7890625 C-385.7216985 39.7548806 -384.52038235 37.65854568 -383 35 C-379.28880092 31.4501574 -376.94474169 29.96147755 -372 29 C-371.76152344 28.42765625 -371.52304687 27.8553125 -371.27734375 27.265625 C-369.40095079 23.93746624 -366.45922108 22.31848034 -363.3125 20.3125 C-362.63823975 19.87462158 -361.96397949 19.43674316 -361.26928711 18.9855957 C-359.18798486 17.643203 -357.09647135 16.31855433 -355 15 C-354.11538086 14.44070801 -354.11538086 14.44070801 -353.21289062 13.87011719 C-348.86766564 11.14247596 -344.44958294 8.55315071 -340 6 C-339.1642041 5.51660156 -338.3284082 5.03320312 -337.46728516 4.53515625 C-297.58421977 -18.35710959 -253.52361962 -32.18507174 -208 -38 C-207.10297363 -38.11859375 -206.20594727 -38.2371875 -205.28173828 -38.359375 C-135.24233942 -47.23147227 -62.23259784 -32.78376135 0 0 Z M-514 297 C-513 300 -513 300 -513 300 Z " fill="#16242F" transform="translate(680,204)"/>
<path d="M0 0 C0.99 0.495 0.99 0.495 2 1 C2.35652126 11.87389828 1.59840828 21.62691669 -6 30 C-11.58361157 34.90500632 -18.56629803 37.79819029 -25.18481445 41.03930664 C-40.90224128 48.8264843 -48.30880885 60.0553186 -53.87109375 76.42578125 C-54.53933647 78.40876186 -55.20729868 80.39183702 -55.875 82.375 C-60.66893855 96.50570458 -66.10241623 108.45696091 -77 119 C-77.7321875 119.71800781 -78.464375 120.43601562 -79.21875 121.17578125 C-92.96201116 134.02379476 -107.7793226 138.75223096 -126.28442383 138.5234375 C-140.90881157 138.02246728 -152.48207219 132.8951963 -164.1875 124.1875 C-168.58652249 121.01627485 -171.56863325 119.90301131 -177 120 C-179.35843975 121.95713056 -179.35843975 121.95713056 -179.5 125.5625 C-179.26690694 133.61877886 -172.64957371 139.90764069 -167.109375 145.15625 C-152.88128278 157.59265654 -133.45469217 161.16731487 -115 160 C-95.94955188 157.6483368 -78.77728657 149.81744372 -64.9296875 136.56201172 C-61.26247311 133.0796897 -57.506443 129.91901502 -53.375 127 C-52.41335938 126.319375 -51.45171875 125.63875 -50.4609375 124.9375 C-41.37409705 119.85051031 -33.47563588 118.40892427 -23.125 118.6875 C-22.02414062 118.69716797 -20.92328125 118.70683594 -19.7890625 118.71679688 C-15.04038592 118.78307088 -10.64983508 119.0032576 -6 120 C6.52837649 120.9333461 19.46033898 118.32151851 29.296875 110.07421875 C32.7808118 106.69836029 35.81118854 103.37762292 38 99 C40.14793839 105.30956901 37.36941421 112.17013018 34.58984375 117.9140625 C26.30780502 131.81535682 12.84374667 140.47176189 -2.5625 144.8125 C-7.4273886 145.86921761 -12.33541981 146.42314573 -17.27368164 147.01049805 C-35.55356673 149.20314434 -49.37521601 154.92366701 -65.49316406 163.64404297 C-96.85688327 180.6087972 -130.36243478 186.27210002 -165.3125 176.625 C-194.6893339 166.96482696 -219.17699007 147.87244947 -233.48046875 120.3125 C-241.09139755 105.09676544 -246.31142155 89.23199242 -246 72 C-244.5459375 73.2375 -244.5459375 73.2375 -243.0625 74.5 C-242.41410156 75.04914063 -241.76570313 75.59828125 -241.09765625 76.1640625 C-239.71787297 77.37169404 -238.36958831 78.61645891 -237.05859375 79.8984375 C-219.16032579 97.08349174 -196.0439986 100.42614975 -172.28515625 100.2109375 C-150.13287933 99.75314073 -129.69497305 91.60810142 -113 77 C-112.18015625 76.13955078 -112.18015625 76.13955078 -111.34375 75.26171875 C-110 74 -110 74 -108 74 C-107.75507812 73.43539062 -107.51015625 72.87078125 -107.2578125 72.2890625 C-105.773105 69.58707928 -103.98033665 67.62705 -101.875 65.375 C-98.80299103 62.03394566 -95.89803452 58.65484017 -93.125 55.0625 C-77.79765676 35.85062379 -61.61064092 27.40543021 -37.375 24.5625 C-24.54933885 23.04005913 -13.66717509 20.27679333 -5 10 C-3.03777186 6.77107529 -1.4259067 3.49669582 0 0 Z " fill="#54656F" transform="translate(652,636)"/>
<path d="M0 0 C0.33 0.66 0.66 1.32 1 2 C0.2578125 4.171875 0.2578125 4.171875 -0.875 6.75 C-6.25082352 19.0053739 -5.64694267 35.52370965 -0.88720703 47.87939453 C3.21864682 57.69322132 7.99150705 67.25850119 12.91015625 76.6875 C16.50662049 83.60448492 19.0322242 90.45055247 21 98 C21.226875 98.82242188 21.45375 99.64484375 21.6875 100.4921875 C24.81733386 114.09827083 24.13129711 130.47931248 21 144 C20.76667969 145.01449219 20.53335938 146.02898437 20.29296875 147.07421875 C16.16876266 162.38462767 8.33604917 175.08846308 -3 186 C-3.89847656 186.89460937 -4.79695312 187.78921875 -5.72265625 188.7109375 C-27.51857185 209.59738324 -52.67176277 211.44707488 -81.25 210.875 C-82.5066748 210.84615723 -83.76334961 210.81731445 -85.05810547 210.78759766 C-105.78274603 210.34607852 -123.16807631 211.50767256 -141 223 C-141.99 223.99 -141.99 223.99 -143 225 C-146.10356512 224.90052676 -147.11231105 223.89122192 -149.359375 221.71484375 C-150.14828125 220.79832031 -150.9371875 219.88179687 -151.75 218.9375 C-152.94882812 217.55884766 -152.94882812 217.55884766 -154.171875 216.15234375 C-155.07679688 215.08693359 -155.07679688 215.08693359 -156 214 C-154.67452112 210.42120702 -152.50624488 208.66994172 -149.56933594 206.33056641 C-128.71069626 188.64550321 -124.56639294 158.71950565 -122.2890625 133.28515625 C-122.22821976 132.61285477 -122.16737701 131.94055328 -122.10469055 131.24787903 C-121.80540931 127.92475097 -121.52216681 124.60245815 -121.26538086 121.27563477 C-120.10094045 107.73320162 -117.26991057 95.65608995 -110 84 C-108.87769048 87.36692855 -109.00378307 89.71046567 -109.125 93.25 C-109.20471641 112.62108879 -102.43899419 129.54256736 -89.4375 143.8125 C-88.633125 144.534375 -87.82875 145.25625 -87 146 C-86.21882813 146.73476563 -86.21882813 146.73476563 -85.421875 147.484375 C-81.28845795 151.24541213 -77.16008089 153.86577537 -72 156 C-71.319375 156.30035156 -70.63875 156.60070312 -69.9375 156.91015625 C-57.58883806 161.51946583 -41.85420367 160.32195717 -30 155 C-20.43773806 150.10733409 -12.91756262 142.02663304 -9 132 C-8.649375 131.12472656 -8.29875 130.24945313 -7.9375 129.34765625 C-6.74381327 125.0851999 -6.54364816 121.03093306 -6.375 116.625 C-6.33632813 115.79355469 -6.29765625 114.96210938 -6.2578125 114.10546875 C-6.16425754 112.07064844 -6.08107287 110.03535584 -6 108 C-6.66 108 -7.32 108 -8 108 C-8.10183594 108.73347656 -8.20367188 109.46695313 -8.30859375 110.22265625 C-10.05113068 117.22233851 -16.20466923 122.75839436 -21.94921875 126.78515625 C-30.12668794 131.62933324 -39.19993461 133.24211721 -48.5234375 131.5390625 C-59.49366917 128.59751773 -68.23292207 122.68112243 -74.24609375 112.9921875 C-79.81310905 102.5922688 -80.54285867 91.61119593 -77.375 80.3125 C-73.98322584 70.40899218 -68.46270552 63.21162585 -60 57 C-59.34 57 -58.68 57 -58 57 C-60 62 -60 62 -61.125 64.3125 C-62.85629316 69.63004327 -62.6361948 74.18262186 -60.4375 79.25 C-58.02592056 83.56367027 -55.56409609 85.14341854 -51 87 C-45.51172036 87.69850832 -40.80873954 86.65799528 -36 84 C-30.27756538 78.79778671 -27.4727004 71.47650732 -26.66552734 63.83251953 C-26.56358612 60.48955058 -26.54846181 57.15692147 -26.5625 53.8125 C-26.26864154 36.7245724 -22.79771604 20.77289108 -10.5 8.0625 C-7.20043227 4.94717209 -3.9057088 2.30336673 0 0 Z " fill="#F8F9F9" transform="translate(548,176)"/>
<path d="M0 0 C-0.94359375 0.27972656 -1.8871875 0.55945313 -2.859375 0.84765625 C-20.35189978 6.22345246 -31.92015914 14.8784125 -42.6875 29.6875 C-55.97071557 47.86192235 -70.99804813 60.99958908 -93.5625 65.75 C-101.57876983 66.33300144 -109.30883018 65.98844449 -117.2734375 64.92578125 C-120.625316 65.0170215 -122.25066747 66.16238771 -125 68 C-125.66 68 -126.32 68 -127 68 C-129.1130438 72.22608761 -129.95664368 76.35344497 -129 81 C-126.83308986 85.46128559 -123.95823033 88.95768188 -119.375 91 C-108.7944708 94.03149994 -98.17703531 91.24912319 -87.734375 88.97265625 C-74.60719809 86.1718032 -61.86160296 85.86207481 -49 90 C-48.13632812 90.26683594 -47.27265625 90.53367187 -46.3828125 90.80859375 C-33.20940769 95.42544123 -22.521888 106.66698752 -16.25390625 118.9296875 C-10.69898268 132.53146296 -9.2605044 150.97648225 -14.73486328 164.86425781 C-18.73719223 174.22794083 -23.58000637 181.92085414 -31 189 C-31.64710938 189.65484375 -32.29421875 190.3096875 -32.9609375 190.984375 C-39.54525454 197.27306964 -48.1025546 201.18419482 -57 203 C-59.19140625 202.5390625 -59.19140625 202.5390625 -61 202 C-60.12988281 201.38125 -60.12988281 201.38125 -59.2421875 200.75 C-50.04679589 193.95208673 -44.04205786 186.1927192 -41 175 C-39.61388838 164.57810813 -40.6992558 155.7755588 -47 147 C-53.22252605 139.96037457 -60.47758636 136.50146553 -69.84204102 135.78149414 C-78.37066691 135.61958797 -85.76525113 137.10061182 -93.9375 139.4375 C-96.27937535 140.08410856 -98.62180549 140.72871186 -100.96484375 141.37109375 C-101.9818335 141.65911865 -102.99882324 141.94714355 -104.04663086 142.24389648 C-126.34383949 147.95229155 -149.91303403 143.34604336 -169.75 132.4375 C-170.4419043 132.06165771 -171.13380859 131.68581543 -171.84667969 131.29858398 C-174.4702974 129.79857621 -176.67830987 128.38945537 -178.61328125 126.046875 C-179.19603953 122.96237661 -178.00503043 121.49052186 -176.4375 118.8125 C-173.69175368 113.69256478 -171.79001693 108.70688891 -170.1875 103.125 C-169.98116943 102.41190674 -169.77483887 101.69881348 -169.56225586 100.96411133 C-163.34260163 78.71377465 -165.49685225 53.13490487 -175.046875 32.22265625 C-176 30 -176 30 -176 28 C-173.33753623 26.69902339 -170.67055529 25.40917717 -168 24.125 C-167.25621094 23.76019531 -166.51242187 23.39539063 -165.74609375 23.01953125 C-157.3994225 19.027645 -150.23795905 17.65451722 -141 17.75 C-140.0728418 17.75386719 -139.14568359 17.75773437 -138.19042969 17.76171875 C-132.78525196 17.82884065 -127.59501483 18.21065182 -122.25 19 C-99.36123728 22.22640373 -80.45985126 19.83320201 -60.08544922 9.08642578 C-43.51461699 0.45376324 -17.88037384 -11.92024922 0 0 Z " fill="#F9F9F9" transform="translate(589,392)"/>
<path d="M0 0 C2.61591295 1.2042566 5.02021988 2.62387151 7.44140625 4.171875 C17.89616118 10.76961062 28.10837613 14.76004214 40 18 C54.43103123 21.9633397 67.97391579 27.61791717 79 38 C79.69738281 38.64453125 80.39476562 39.2890625 81.11328125 39.953125 C86.69526008 45.62694626 90.64199275 52.07148787 94.8125 58.8125 C105.83099506 76.52127046 117.53482662 88.6302542 138 95 C138.8559375 95.35707031 139.711875 95.71414063 140.59375 96.08203125 C145.58115216 97.42611325 150.41922935 97.33754259 155.5625 97.3125 C156.63137451 97.31193604 157.70024902 97.31137207 158.80151367 97.31079102 C165.79629894 97.22949955 171.9943962 96.59684326 178.70703125 94.55859375 C181 94 181 94 184 95 C171.8120728 108.68541996 153.97384896 115.91391598 136 118 C112.4083242 119.35665939 92.92165545 114.91748821 74.6015625 99.35546875 C69.83751772 95.06149766 66.15176895 90.26723333 62.4375 85.0625 C50.21588575 68.12331673 38.58473083 57.97772266 18 53 C27.17077245 86.77933186 27.17077245 86.77933186 46 116 C46.60457031 116.70125 47.20914063 117.4025 47.83203125 118.125 C53.37257251 124.09712026 59.95107816 128.01134179 67 132 C67.78890625 132.474375 68.5778125 132.94875 69.390625 133.4375 C86.80187725 143.1780607 106.64393853 142.90172632 126 143 C122.23339529 147.1649956 118.53719161 149.62960368 113.5 152.0625 C112.80092529 152.40611572 112.10185059 152.74973145 111.3815918 153.10375977 C90.03595062 163.31507262 63.3955654 164.83612951 41 157 C25.72670988 151.47624611 12.67163913 143.33419378 1 132 C0.24203125 131.31550781 -0.5159375 130.63101563 -1.296875 129.92578125 C-7.87413302 123.79078713 -12.554229 116.73930324 -17 109 C-17.35481445 108.38237793 -17.70962891 107.76475586 -18.07519531 107.12841797 C-31.43370144 83.3532374 -38.44801406 51.0960699 -33 24 C-29.72830121 18.39310282 -24.21387856 16.84740533 -18.32275391 14.94482422 C-14.25805902 13.29143246 -11.26137812 10.43933685 -8.0625 7.5 C-7.18634033 6.72160767 -7.18634033 6.72160767 -6.29248047 5.92749023 C-4.13978628 4.00371701 -2.04150528 2.04150528 0 0 Z " fill="#F7F8F8" transform="translate(395,537)"/>
<path d="M0 0 C4.14165915 0.55887449 6.89699924 2.97576177 10.0625 5.5 C10.63323242 5.94706299 11.20396484 6.39412598 11.79199219 6.85473633 C16.39750395 10.47764515 20.95253694 14.16333542 25.421875 17.953125 C27.91284614 20.03454369 27.91284614 20.03454369 30.578125 21.484375 C34.91393691 24.08586215 36.68371106 25.81055819 38.01171875 30.8046875 C38.52478528 33.8944423 38.89663907 36.99754911 39.28125 40.10546875 C43.0082671 68.71146132 61.5033757 91.75607105 81.34790039 111.25512695 C97.51052309 127.18255329 115.218321 147.58199546 116.09765625 171.67578125 C116.08025391 172.98095703 116.08025391 172.98095703 116.0625 174.3125 C116.05347656 175.19550781 116.04445313 176.07851563 116.03515625 176.98828125 C116.02355469 177.65214844 116.01195312 178.31601562 116 179 C114.12779742 176.6784688 112.26771938 174.35040739 110.45703125 171.98046875 C97.96236202 155.65448219 82.81200202 144.06714767 65.75 132.875 C46.59503315 120.14719508 30.42916719 104.25016908 23 82 C23 81.34 23 80.68 23 80 C20.6368344 80.89324065 20.6368344 80.89324065 19.8984375 84.0859375 C15.56622192 100.79348011 21.80882938 116.70980296 29.88378906 131.14892578 C32.73203688 135.87233237 36.26893892 139.96199605 40 144 C40.82564453 144.928125 40.82564453 144.928125 41.66796875 145.875 C51.38471547 156.23952984 64.14134289 163.94788619 75.92138672 171.75268555 C83.9850603 177.10614812 91.63334031 182.69547061 99 189 C99.90758057 189.77210815 99.90758057 189.77210815 100.83349609 190.55981445 C111.84064629 200.07008935 131.94927459 218.65397645 133.25 233.9375 C133.1675 234.618125 133.085 235.29875 133 236 C132.01 236 131.02 236 130 236 C130 237.32 130 238.64 130 240 C129.01 240 128.02 240 127 240 C127 240.99 127 241.98 127 243 C126.46890625 243.24234375 125.9378125 243.4846875 125.390625 243.734375 C121.26007376 245.69412559 118.02889453 247.46628972 115 251 C115 250.01 115 249.02 115 248 C111.62911733 250.27415287 111.62911733 250.27415287 110 254 C109.03126968 255.35622245 108.03565785 256.69417053 107 258 C107 257.01 107 256.02 107 255 C106.01 255.33 105.02 255.66 104 256 C90.44450454 240.99981455 90.44450454 240.99981455 85.375 234.8125 C80.96557785 229.59081587 75.95027048 225.12965593 70.8671875 220.58203125 C67.2034385 217.28266055 63.5828631 213.93826294 59.96557617 210.58813477 C57.27210029 208.09452672 54.57370201 205.60724897 51.85546875 203.140625 C41.81257074 194.02409914 32.28986704 184.77178773 24 174 C23.27490234 173.0728418 23.27490234 173.0728418 22.53515625 172.12695312 C3.62023594 147.76396974 -7.84283769 120.35278089 -13 90 C-13.22429688 88.72125 -13.44859375 87.4425 -13.6796875 86.125 C-18.04507982 57.89944969 -14.56069167 24.93905702 0 0 Z " fill="#D4D8DB" transform="translate(706,229)"/>
<path d="M0 0 C0.80179688 0.15984375 1.60359375 0.3196875 2.4296875 0.484375 C16.73429073 4.0484849 28.92925978 12.5377069 39 23 C39.67417969 23.65484375 40.34835937 24.3096875 41.04296875 24.984375 C48.54266271 32.73240319 53.35888229 43.42390809 55 54 C52.28515768 51.3911602 50.00857612 48.74031692 47.8125 45.6875 C42.30637311 38.53424114 35.3329654 33.42190214 27 30 C26.32195312 29.7009375 25.64390625 29.401875 24.9453125 29.09375 C11.17861034 23.94910006 -4.84929051 26.23291145 -18 32 C-21.6708099 34.01381315 -24.82882135 36.27369893 -28 39 C-28.71671875 39.59554687 -29.4334375 40.19109375 -30.171875 40.8046875 C-39.58584227 49.33388341 -43.94325632 61.45016825 -45.31640625 73.859375 C-45.9895559 89.92810858 -40.29046462 103.50779831 -29.87109375 115.4375 C-20.253801 124.78912168 -7.50942981 128.90433734 5.625 129.375 C20.72119792 129.08250101 34.11685272 123.85586395 45.0625 113.375 C47.7533608 110.46324764 49.9379807 107.38171164 52 104 C53.84065587 109.52196761 50.35033012 114.93175258 48 120 C37.2296844 139.01991903 20.33533538 150.13088161 -0.25 156.4375 C-19.84459123 161.2181699 -42.16016258 158.33151951 -59.38427734 147.89111328 C-78.71662335 135.65724038 -92.01065789 118.35893626 -97.31640625 95.98046875 C-101.62607059 73.09007709 -97.90920551 50.19023595 -84.79296875 30.796875 C-72.37775243 13.41469692 -53.89883309 2.27358857 -32.9296875 -1.5 C-21.85537701 -2.9090574 -10.93487738 -2.27445449 0 0 Z " fill="#F8F9F9" transform="translate(725,457)"/>
<path d="M0 0 C0.75369873 0.00491455 1.50739746 0.0098291 2.28393555 0.01489258 C21.65811392 0.41693204 40.49280202 10.03722765 54.18359375 23.43359375 C69.09576074 39.02262505 76.11705249 57.88011173 76.625 79.1875 C76.66874756 80.24557861 76.71249512 81.30365723 76.75756836 82.39379883 C76.76828186 90.39174266 74.49041363 94.65148051 68.9375 100.3125 C68.37224609 100.8907251 67.80699219 101.4689502 67.22460938 102.06469727 C56.3019258 112.69622984 40.90239158 115.83829459 26.22192383 115.73217773 C8.2002862 115.17686917 -8.23677957 108.15724969 -21.0625 95.3125 C-31.28059105 83.49251416 -38.89723801 69.05708645 -40.0625 53.3125 C-40.12824219 52.45011719 -40.19398438 51.58773437 -40.26171875 50.69921875 C-40.81047403 36.71542031 -36.91187405 22.89740329 -27.9375 12.125 C-23.52591929 7.38582666 -19.03520416 4.68575993 -13.0625 2.3125 C-11.92748047 1.76529297 -11.92748047 1.76529297 -10.76953125 1.20703125 C-7.17638075 0.01968426 -3.74343905 -0.02881817 0 0 Z " fill="#FAFBFB" transform="translate(322.0625,383.6875)"/>
<path d="M0 0 C-0.61746094 0.1959375 -1.23492187 0.391875 -1.87109375 0.59375 C-10.86047165 3.76808131 -18.13604305 9.22618392 -22.94140625 17.58984375 C-30.27384925 34.28400365 -30.96309809 51.5014525 -24.75 68.5625 C-22.37588105 74.43861845 -19.5221446 79.73941899 -16 85 C-15.55011719 85.69738281 -15.10023438 86.39476562 -14.63671875 87.11328125 C-5.82427131 99.89753598 10.34191415 108.72766795 25.4609375 111.59765625 C42.66855746 113.55393093 60.29404236 112.09846944 74.47265625 101.078125 C78.39233145 97.68744661 81.96317397 94.22514925 85 90 C86.15335545 104.70528205 78.40649858 119.67452998 69.1171875 130.62890625 C68.41851562 131.41136719 67.71984375 132.19382812 67 133 C65.98292969 134.15822266 65.98292969 134.15822266 64.9453125 135.33984375 C52.02810616 149.17970768 33.27791349 157.9049264 14.4375 158.6875 C13.12749023 158.74393677 13.12749023 158.74393677 11.79101562 158.80151367 C-10.21025682 159.60020654 -30.52817236 154.35185971 -47.0625 139.125 C-63.90978816 122.86758492 -72.45103644 101.45288686 -73.02734375 78.22265625 C-73.10183384 56.61556504 -65.32368508 37.03297719 -50.32421875 21.26953125 C-39.15923829 10.36725621 -16.72274614 -5.03209364 0 0 Z " fill="#4B5D67" transform="translate(312,386)"/>
<path d="M0 0 C2.9375 1.9375 2.9375 1.9375 5 5 C5.98764372 11.51480897 4.32814271 17.6263828 2.4375 23.8125 C2.16574951 24.72410889 1.89399902 25.63571777 1.61401367 26.57495117 C0.76273321 29.38997812 -0.11330618 32.19594251 -1 35 C-1.26200195 35.8353125 -1.52400391 36.670625 -1.79394531 37.53125 C-6.36382707 51.87895422 -12.43060834 65.46575047 -19 79 C-19.41121094 79.84981445 -19.82242187 80.69962891 -20.24609375 81.57519531 C-34.08579209 109.83313675 -53.63965279 135.13702754 -75.22998047 157.88891602 C-77.64927758 160.44308079 -79.97800979 162.97239358 -82.171875 165.7265625 C-83.91745349 167.897346 -85.67959088 169.59395572 -87.8125 171.375 C-90.46021412 173.63262732 -92.96100084 175.93219118 -95.375 178.4375 C-98.75537731 181.86345543 -102.39260733 184.83640274 -106.18359375 187.796875 C-108.11106018 189.3046296 -110.01923824 190.83728027 -111.91015625 192.390625 C-127.14990559 204.83812337 -143.83567859 215.81230214 -161.21142578 225.03955078 C-162.97725528 225.98778628 -164.72134887 226.9761426 -166.46484375 227.96484375 C-177.84158343 234.36762595 -189.89983946 239.1504775 -202 244 C-202.72268066 244.29648437 -203.44536133 244.59296875 -204.18994141 244.8984375 C-226.58772929 254.08727356 -250.15602849 259.28245567 -274 263 C-275.48581229 263.24788885 -276.97151035 263.49646462 -278.45703125 263.74609375 C-285.18406816 264.78488007 -291.88900168 265.26080133 -298.6875 265.4375 C-299.45529785 265.47206299 -300.2230957 265.50662598 -301.01416016 265.54223633 C-304.87901802 265.57116878 -306.6070146 265.36575492 -309.48046875 262.69140625 C-311.51110362 259.09472907 -311.7262219 257.06684264 -311 253 C-306.32630871 248.03050547 -302.5105829 247.14561057 -295.875 246.5 C-293.99812483 246.27291672 -292.1218449 246.04087564 -290.24609375 245.8046875 C-289.24175293 245.68061523 -288.23741211 245.55654297 -287.20263672 245.42871094 C-248.46650884 240.24342045 -212.12416599 228.89573312 -177 212 C-176.15131348 211.59426758 -175.30262695 211.18853516 -174.42822266 210.77050781 C-134.47224089 191.41189018 -95.29223203 158.65122191 -69 123 C-67.37503274 120.95830727 -65.75003233 118.91664094 -64.125 116.875 C-52.16111885 101.37981341 -42.60761104 84.54095034 -34 67 C-33.62536621 66.24605957 -33.25073242 65.49211914 -32.86474609 64.71533203 C-24.89948268 48.50446979 -19.48853329 30.91786666 -14.39453125 13.62109375 C-14.17240967 12.8729541 -13.95028809 12.12481445 -13.72143555 11.35400391 C-13.17589257 9.48669717 -12.65316097 7.61276492 -12.1328125 5.73828125 C-9.75106752 -0.01897128 -5.91109707 -0.82962766 0 0 Z " fill="#F7F7F8" transform="translate(848,588)"/>
<path d="M0 0 C16.28742099 1.69740102 32.1229378 6.84674214 47.625 11.9375 C48.84396973 12.33187256 50.06293945 12.72624512 51.31884766 13.13256836 C75.91912995 21.39335852 75.91912995 21.39335852 81.609375 31.83984375 C92.80231974 57.27549627 94.8219193 87.74080986 85 114 C77.37083886 131.81709149 77.37083886 131.81709149 71 138 C70.01 138.33 69.02 138.66 68 139 C68.2165625 137.9584375 68.433125 136.916875 68.65625 135.84375 C73.24922477 112.73194449 70.91272397 92.09846576 58 72 C57.02024704 70.98015485 56.02144019 69.97808994 55 69 C53.84098653 67.32152508 52.69676411 65.63279797 51.5625 63.9375 C45.03122003 54.85154963 35.18280137 45.53059083 24 43 C25.18811568 55.80255263 30.68104901 66.51760403 36.45458984 77.77661133 C46.77439453 97.93187441 52.87499264 119.35235998 47 142 C41.95485851 157.07830967 30.92331791 173.72162791 16.5 181.31640625 C14.35242327 182.27946019 12.20499417 183.17823134 10 184 C11.14885294 181.66248238 12.34442456 179.36459607 13.5859375 177.07421875 C18.09673553 168.53521899 20.96392389 160.49486747 23 151 C23.22558594 149.989375 23.45117188 148.97875 23.68359375 147.9375 C28.72560094 121.23224813 21.45343653 97.6853992 12.68850708 72.76507568 C5.55151694 52.44699992 -0.2473698 32.17242861 -0.0625 10.5 C-0.05798828 9.48679688 -0.05347656 8.47359375 -0.04882812 7.4296875 C-0.03714593 4.95306173 -0.02076582 2.47656343 0 0 Z " fill="#D0D4D7" transform="translate(576,176)"/>
<path d="M0 0 C11.22 0 22.44 0 34 0 C38.49322197 13.4796659 38.47267816 33.03441656 32 46 C27.21676662 55.22267187 19.44441443 62.53609875 11.1875 68.6875 C4.9885001 73.36413066 1.46876224 78.25561726 0 86 C-1.46338564 97.63954427 4.02943505 107.40619251 9.70288086 117.12255859 C20.64568908 136.03599801 19.7902199 155.6643838 14.3125 176.2578125 C13.87729687 177.83917558 13.43999312 179.41996297 13 181 C9.19153539 195.01395962 9.30685907 207.74078062 12 222 C5.93118071 218.17889156 0.34904609 213.96008901 -5.15625 209.3671875 C-7.07680494 207.7684838 -9.01494956 206.19071127 -10.96875 204.6328125 C-20.97714844 196.64223633 -20.97714844 196.64223633 -24 192 C-23.61578159 188.66553312 -22.09185501 186.43604137 -20.25 183.6875 C-11.33170047 169.24630172 -8.20159802 150.42362529 -11.765625 133.796875 C-14.01893409 125.29454482 -18.07187072 117.70069518 -22.25732422 110.01342773 C-30.38294872 95.07477961 -36.91452021 79.50925425 -32.28125 62.3359375 C-29.22269112 53.81943303 -23.52470898 47.64144115 -17.5 41.0625 C-5.47987439 27.81374145 -2.29899067 18.39192537 0 0 Z " fill="#ECEDEE" transform="translate(302,569)"/>
<path d="M0 0 C2.95200387 1.31129786 4.75867538 2.64302618 6.875 5.0625 C14.28100194 12.7079201 24.6442627 18.07462507 34 23 C34.66500976 44.67439227 34.66500976 44.67439227 26.9296875 53.16015625 C24.60143313 55.38001012 22.13790971 57.36676052 19.625 59.375 C8.82527172 68.03529771 0.50348769 78.41453334 -3 92 C-3.18433594 92.71414063 -3.36867187 93.42828125 -3.55859375 94.1640625 C-6.52385425 113.21520521 -1.74564409 128.41143821 7 145 C8.47282874 147.82608256 9.92707809 150.66109505 11.375 153.5 C11.70846436 154.13389648 12.04192871 154.76779297 12.38549805 155.42089844 C16.61695769 163.70338559 17.34227889 171.31619108 17.3125 180.5 C17.32861328 181.49386719 17.34472656 182.48773437 17.36132812 183.51171875 C17.36543075 189.72309994 16.55808625 194.33036294 14 200 C-2.44085024 193.35531457 -17.21183522 165.32613111 -25.796875 150.71875 C-26.97555837 148.89873095 -26.97555837 148.89873095 -28.82421875 147.3515625 C-31.99783239 143.92155278 -33.9254632 140.00878251 -36.0625 135.875 C-36.77116211 134.51435425 -36.77116211 134.51435425 -37.49414062 133.1262207 C-43.32208399 121.71188183 -48.21579841 109.88203969 -53 98 C-53.32226562 97.23252441 -53.64453125 96.46504883 -53.9765625 95.67431641 C-55.61677222 91.63031802 -56.32733472 88.364463 -56 84 C-54.15148437 83.36384766 -54.15148437 83.36384766 -52.265625 82.71484375 C-42.56005908 79.3045412 -33.54593097 75.8298887 -25 70 C-24.02740234 69.34837891 -24.02740234 69.34837891 -23.03515625 68.68359375 C-13.37741373 61.34721338 -6.54885801 48.67199356 -4 37 C-3.78212344 33.73185166 -3.81487471 30.46222864 -3.8125 27.1875 C-3.79413086 25.87168945 -3.79413086 25.87168945 -3.77539062 24.52929688 C-3.76356047 19.25699177 -4.37231644 15.00577287 -6 10 C-5.90750399 6.11516756 -5.1100291 5.12076364 -2.4375 2.1875 C-1.2309375 1.1046875 -1.2309375 1.1046875 0 0 Z " fill="#F2F3F3" transform="translate(243,539)"/>
<path d="M0 0 C0 0.66 0 1.32 0 2 C-1.46875 3.375 -1.46875 3.375 -3.5 5 C-19.87557981 18.99894699 -26.62938277 39.74087942 -28.29516602 60.71679688 C-28.57368344 65.42845649 -28.8177761 70.14058183 -29.02905273 74.85571289 C-30.06036229 97.20432482 -34.82387308 118.29261552 -52 134 C-52.98411186 134.97419637 -53.96383414 135.95286326 -54.9375 136.9375 C-55.618125 137.618125 -56.29875 138.29875 -57 139 C-62.3223297 137.36368504 -67.30981576 135.16119959 -72.375 132.875 C-73.20644531 132.50246094 -74.03789062 132.12992188 -74.89453125 131.74609375 C-76.93084255 130.83326454 -78.96594539 129.91784402 -81 129 C-80.44387179 124.27291025 -79.76951891 119.59057834 -78.9921875 114.89453125 C-77.89195836 107.83862551 -77.49804497 100.81232713 -77.125 93.6875 C-75.45839627 66.61162581 -66.85091741 46.54601023 -48 27 C-47.33226562 26.26910156 -46.66453125 25.53820312 -45.9765625 24.78515625 C-35.31002848 13.42102191 -16.09522394 0 0 0 Z " fill="#F8F9F9" transform="translate(430,235)"/>
<path d="M0 0 C2.14793839 6.30956901 -0.63058579 13.17013018 -3.41015625 18.9140625 C-11.69219498 32.81535682 -25.15625333 41.47176189 -40.5625 45.8125 C-45.4273886 46.86921761 -50.33541981 47.42314573 -55.27368164 48.01049805 C-73.55356673 50.20314434 -87.37521601 55.92366701 -103.49316406 64.64404297 C-134.98993665 81.68076628 -168.48327886 87.20663632 -203.5625 77.5625 C-205.04918865 77.06354285 -206.52905194 76.54361124 -208 76 C-208.7734375 75.73703125 -209.546875 75.4740625 -210.34375 75.203125 C-212.54947045 74.31773017 -214.21441615 73.5711273 -216 72 C-216.9978697 69.15907042 -217 67.06933252 -217 64 C-216.01 64 -215.02 64 -214 64 C-214 63.01 -214 62.02 -214 61 C-213.34 61 -212.68 61 -212 61 C-210.33333333 62.66666667 -208.66666667 64.33333333 -207 66 C-206.505 65.505 -206.505 65.505 -206 65 C-204.515 64.505 -204.515 64.505 -203 64 C-201.30911778 62.02043058 -199.64169528 60.02054804 -198 58 C-197.01 57.505 -197.01 57.505 -196 57 C-195.34 56.01 -194.68 55.02 -194 54 C-193.04480469 54.33773437 -192.08960938 54.67546875 -191.10546875 55.0234375 C-166.09363377 63.7236301 -143.65808293 61.98346015 -119.84765625 50.4765625 C-113.32339431 46.96151993 -108.23528731 42.64072733 -102.9296875 37.56201172 C-99.26247311 34.0796897 -95.506443 30.91901502 -91.375 28 C-89.93253906 26.9790625 -89.93253906 26.9790625 -88.4609375 25.9375 C-79.37409705 20.85051031 -71.47563588 19.40892427 -61.125 19.6875 C-60.02414062 19.69716797 -58.92328125 19.70683594 -57.7890625 19.71679688 C-53.04038592 19.78307088 -48.64983508 20.0032576 -44 21 C-31.47162351 21.9333461 -18.53966102 19.32151851 -8.703125 11.07421875 C-5.2191882 7.69836029 -2.18881146 4.37762292 0 0 Z " fill="#AFB6BA" transform="translate(690,735)"/>
<path d="M0 0 C0.99 0.495 0.99 0.495 2 1 C2.35652126 11.87389828 1.59840828 21.62691669 -6 30 C-11.58361157 34.90500632 -18.56629803 37.79819029 -25.18481445 41.03930664 C-35.81541486 46.3062231 -43.6892847 52.93463671 -48.8125 63.8125 C-51.32499992 68.68421735 -51.32499992 68.68421735 -54.24609375 70.05078125 C-55.95662455 70.44305586 -57.67040541 70.82135315 -59.38671875 71.1875 C-66.16119563 73.29376486 -71.12519944 80.08197761 -75.91796875 85.08984375 C-91.16672954 100.91462229 -108.15648079 111.68845762 -130.81005859 112.29248047 C-144.56949353 112.42195874 -156.19389588 109.3634745 -168 102 C-164.58952951 99.72635301 -161.69325997 99.3497869 -157.75 98.75 C-140.73097265 95.84402871 -123.35250333 87.86524525 -111.34375 75.26171875 C-110 74 -110 74 -108 74 C-107.75507812 73.43539062 -107.51015625 72.87078125 -107.2578125 72.2890625 C-105.773105 69.58707928 -103.98033665 67.62705 -101.875 65.375 C-98.80299103 62.03394566 -95.89803452 58.65484017 -93.125 55.0625 C-77.79765676 35.85062379 -61.61064092 27.40543021 -37.375 24.5625 C-24.54933885 23.04005913 -13.66717509 20.27679333 -5 10 C-3.03777186 6.77107529 -1.4259067 3.49669582 0 0 Z " fill="#C8CCCF" transform="translate(652,636)"/>
<path d="M0 0 C10.8260071 -0.63061557 10.8260071 -0.63061557 14.79248047 2.03564453 C17.57425102 4.72252524 17.90421885 5.57149505 18.34326172 9.44970703 C17.96826172 13.13720703 17.96826172 13.13720703 16.28076172 15.94970703 C11.20157357 19.30388788 5.91391682 19.50701014 -0.03173828 20.13720703 C-29.4714699 23.34776044 -57.99128859 30.67480439 -84.03173828 45.13720703 C-84.67723633 45.49427734 -85.32273437 45.85134766 -85.98779297 46.21923828 C-94.711181 51.10537151 -102.47720043 56.5493636 -110.03173828 63.13720703 C-111.14742188 64.01892578 -111.14742188 64.01892578 -112.28564453 64.91845703 C-126.75906702 76.72504139 -135.72505427 93.53150241 -141.03173828 111.13720703 C-147.11977339 108.73092102 -149.46830811 102.51979574 -152.08251953 96.86376953 C-155.15931488 88.78535899 -155.12175076 81.17975537 -151.96923828 73.13720703 C-137.34403336 41.61176532 -105.36784146 26.7015553 -74.24902344 15.26708984 C-50.4609867 6.91293641 -25.15798741 1.69896526 0 0 Z " fill="#F6F8F8" transform="translate(482.03173828125,171.86279296875)"/>
<path d="M0 0 C4.75486377 2.16703968 8.18799493 5.48765895 12 9 C12.65355469 9.5878125 13.30710937 10.175625 13.98046875 10.78125 C35.45959449 31.01707305 41.16388601 58.49000284 46.41430664 86.23754883 C48.7014293 98.22477308 51.02570056 110.32109594 56.8125 121.1875 C57.33179077 122.18946411 57.33179077 122.18946411 57.86157227 123.21166992 C69.04775696 144.47692663 84.79193771 162.47387919 106 174 C99.70199228 176.52886755 91.00071539 172.31007854 85 170 C74.29679152 165.27023338 64.0450849 159.44716877 55 152 C54.15308594 151.30390625 53.30617188 150.6078125 52.43359375 149.890625 C15.94270907 118.46946629 4.61622044 58.92177626 0 13 C-0.0628389 10.66741994 -0.08680521 8.33329975 -0.0625 6 C-0.05347656 4.865625 -0.04445313 3.73125 -0.03515625 2.5625 C-0.02355469 1.716875 -0.01195312 0.87125 0 0 Z " fill="#F5F6F6" transform="translate(336,656)"/>
<path d="M0 0 C0.79921875 0.00902344 1.5984375 0.01804687 2.421875 0.02734375 C3.02515625 0.03894531 3.6284375 0.05054688 4.25 0.0625 C4.39695313 1.36960937 4.54390625 2.67671875 4.6953125 4.0234375 C6.48369755 18.70090986 9.04526019 33.82242798 17.46484375 46.3359375 C18.25 48.0625 18.25 48.0625 18.14453125 49.96484375 C12.086102 64.17172807 -6.30802442 73.30388881 -19.75 79.0625 C-26.33350015 81.38508371 -32.80909547 82.4935734 -39.75 83.0625 C-41.6349413 76.05620876 -43.14700836 69.29839973 -43.75 62.0625 C-44.41 62.0625 -45.07 62.0625 -45.75 62.0625 C-45.75 49.5225 -45.75 36.9825 -45.75 24.0625 C-43.11 23.4025 -40.47 22.7425 -37.75 22.0625 C-35.10242489 20.5060012 -35.10242489 20.5060012 -32.875 18.5 C-32.03324219 17.79230469 -31.19148437 17.08460938 -30.32421875 16.35546875 C-28.59821223 14.81803957 -26.89242943 13.25762194 -25.20703125 11.67578125 C-17.81274985 4.74005994 -10.42221262 -0.15326783 0 0 Z M-44.75 31.0625 C-43.75 34.0625 -43.75 34.0625 -43.75 34.0625 Z " fill="#F4F4F4" transform="translate(210.75,469.9375)"/>
<path d="M0 0 C7.53534031 6.05862972 7.53534031 6.05862972 9.875 10.625 C10.26429688 11.35976563 10.65359375 12.09453125 11.0546875 12.8515625 C14.85427965 21.4869992 14.06280363 32.8394621 11 41.5625 C6.67103792 54.05464773 8.62245871 65.72730274 14.15625 77.44921875 C15.08998173 79.30667795 16.04302623 81.15440773 17 83 C17 83.66 17 84.32 17 85 C16.33355469 85.32871094 15.66710937 85.65742188 14.98046875 85.99609375 C8.37383592 89.40567069 2.89100674 93.32856092 -2.6875 98.2421875 C-5 100 -5 100 -8 100 C-9.98046875 97.875 -9.98046875 97.875 -12.1875 95 C-22.46784576 82.08324299 -32.95390639 75.65046771 -48 69 C-48 66.36 -48 63.72 -48 61 C-47.34 61 -46.68 61 -46 61 C-43.36 56.38 -40.72 51.76 -38 47 C-37.34 47 -36.68 47 -36 47 C-35.87778076 46.40993164 -35.75556152 45.81986328 -35.62963867 45.21191406 C-34.6138762 41.64355113 -32.38711325 38.7813469 -30.3125 35.75 C-29.85915283 35.08049316 -29.40580566 34.41098633 -28.9387207 33.72119141 C-24.34442408 26.97196065 -19.79517477 20.7708253 -14 15 C-11.54373307 12.41327778 -9.11560095 9.80064675 -6.6875 7.1875 C-6.04232422 6.49462891 -5.39714844 5.80175781 -4.73242188 5.08789062 C-3.15412839 3.39268651 -1.57667698 1.69670746 0 0 Z " fill="#F4F5F6" transform="translate(254,287)"/>
<path d="M0 0 C0.66 0 1.32 0 2 0 C2.40089844 1.00417969 2.80179688 2.00835937 3.21484375 3.04296875 C12.76487119 26.30989207 28.29887121 41.36366448 49 55 C49.58088379 55.38381836 50.16176758 55.76763672 50.76025391 56.16308594 C52.31911559 57.19239108 53.87829963 58.22120797 55.4375 59.25 C60.89835043 62.86827777 66.01137149 66.75548959 71 71 C71.98097656 71.83402344 72.96195313 72.66804688 73.97265625 73.52734375 C86.66541773 84.5844712 100.86897288 101.70542868 102.171875 119.32421875 C102.1850879 121.21696697 102.10309008 123.11001512 102 125 C98.535 125.99 98.535 125.99 95 127 C94.18917969 126.09378906 93.37835937 125.18757813 92.54296875 124.25390625 C80.08927979 110.48760794 65.90631425 99.79605756 50.41186523 89.68383789 C26.70344116 74.17098093 4.55622358 55.79520524 -2.53125 27.0234375 C-3.95060261 17.86861314 -4.21093404 8.42186807 0 0 Z " fill="#192631" transform="translate(727,309)"/>
<path d="M0 0 C1.4308929 2.8617858 0.30441214 4.74126699 -0.484375 7.69921875 C-3.6788869 21.95351806 -0.97633963 36.303096 6.59375 48.5859375 C8.9869807 52.29124644 11.4297525 55.95230582 13.97314453 59.55639648 C24.12962345 73.97415048 26.44161107 88.85262056 23.61914062 106.36279297 C22.58043904 110.78999349 21.02990266 114.94019468 19 119 C16.40234375 119.30859375 16.40234375 119.30859375 12.9375 119.4375 C4.78969524 119.89062199 -3.0195216 121.35208303 -11 123 C-16.40462889 114.8724283 -19.43627673 107.94531115 -18 98 C-16.76914744 93.97363429 -15.10736416 90.13294282 -13.41015625 86.28515625 C-8.72928075 75.38040197 -9.71166721 60.95248089 -13.671875 49.9921875 C-17.5289461 41.30243319 -22.38958156 33.83143547 -29 27 C-27.40767341 22.89296251 -24.44343574 20.32346839 -21.25 17.4375 C-20.68450439 16.92026367 -20.11900879 16.40302734 -19.53637695 15.87011719 C-13.29506061 10.23831441 -6.68437644 5.09094937 0 0 Z " fill="#F6F7F9" transform="translate(305,240)"/>
<path d="M0 0 C5.19174322 4.28883136 9.91994854 8.8908202 14.6484375 13.68359375 C16.44542694 15.4537179 18.21278509 17.06740402 20.1875 18.625 C23.21929114 21.18517919 25.65719221 23.95809566 28.22265625 26.97265625 C29.86880511 28.85035132 31.57735116 30.58127698 33.375 32.3125 C37.46225665 36.35464344 41.04471012 40.75510473 44.61474609 45.25537109 C45.60361745 46.50078433 46.59658909 47.74294643 47.59228516 48.98291016 C84 94.38069806 84 94.38069806 84 107 C83.34 107 82.68 107 82 107 C81.01 108.98 81.01 108.98 80 111 C79.01 111 78.02 111 77 111 C76.67 110.34 76.34 109.68 76 109 C75.01 110.98 75.01 110.98 74 113 C71.25 113.34765625 71.25 113.34765625 68 113 C65.9375 110.68359375 65.9375 110.68359375 64 107.4375 C57.11996127 96.62089038 47.92598651 87.85248352 38.81884766 78.91137695 C22.55818071 62.90592227 11.17509548 45.73292587 4 24 C3.67128906 23.01257813 3.34257813 22.02515625 3.00390625 21.0078125 C0.90598918 14.08167479 0.33239761 7.20958949 0 0 Z " fill="#566873" transform="translate(743,257)"/>
<path d="M0 0 C8.80957145 -0.71044931 14.62245741 1.51816997 21.5390625 7.01953125 C24.09805251 9.2814249 26.56007406 11.61034195 29 14 C30.26650391 15.22589844 30.26650391 15.22589844 31.55859375 16.4765625 C37.62248841 22.43373261 37.62248841 22.43373261 40 26 C39.43001229 30.1911471 37.13212092 33.74254483 35.1875 37.4375 C30.76049368 46.06809547 27.81341106 54.7203718 25.9375 64.25 C25.628125 65.4875 25.31875 66.725 25 68 C13.6074195 71.79752683 -2.10082391 66.67655157 -12.8671875 62.61328125 C-16 61 -16 61 -16.97265625 59.09765625 C-17.15321449 55.00761959 -17.03970416 52.62614073 -15 49 C-14.7952635 47.67197947 -14.63273061 46.33713804 -14.5 45 C-14.17625459 41.86660688 -13.48810533 39.79019749 -12 37 C-11.814375 35.700625 -11.814375 35.700625 -11.625 34.375 C-11.06860523 31.37046822 -10.29432198 29.10735671 -9.125 26.3125 C-7.63714709 22.74272342 -6.46410316 19.24516995 -5.5 15.5 C-4.11345721 10.13001936 -2.17708436 5.09459842 0 0 Z " fill="#EFF0F0" transform="translate(191,379)"/>
<path d="M0 0 C2.33678478 2.10832817 3.56323271 3.85471969 4.625 6.8125 C4.86476563 7.45832031 5.10453125 8.10414063 5.3515625 8.76953125 C9.0620464 21.53270176 7.99379081 36.81713104 1.59375 48.51953125 C-4.47714711 57.96810886 -12.00792237 64.36412501 -22.92074585 67.56303406 C-26.50224687 68.3157049 -30.14777163 68.03539153 -33.7890625 67.95703125 C-35.55337397 67.93462628 -37.31769772 67.91317272 -39.08203125 67.89257812 C-41.84685925 67.8556518 -44.61105108 67.81280087 -47.37548828 67.75317383 C-61.67496711 67.32097195 -61.67496711 67.32097195 -75 72 C-76.485 72.495 -76.485 72.495 -78 73 C-77.73446697 65.77750151 -76.9097939 60.14597098 -73 54 C-72.443125 53.113125 -71.88625 52.22625 -71.3125 51.3125 C-65.01572461 45.01572461 -58.02919879 43.01607306 -49.32788086 42.81176758 C-36.75471934 42.44892854 -23.2873251 40.17831894 -14 31 C-13.38898438 30.42636719 -12.77796875 29.85273437 -12.1484375 29.26171875 C-4.32332681 21.22016883 -1.43576022 10.88606254 0 0 Z " fill="#D0D3D6" transform="translate(689,658)"/>
<path d="M0 0 C2.99577469 3.53301088 4.69874017 7.50549299 6.4375 11.75 C6.74316895 12.49499756 7.04883789 13.23999512 7.36376953 14.00756836 C14.6689174 32.3749632 17.51008133 52.13133344 13.25 71.5625 C13.09313721 72.28743652 12.93627441 73.01237305 12.7746582 73.75927734 C11.53111485 78.93742766 9.51249888 83.30753886 7 88 C5.08886719 87.71264648 5.08886719 87.71264648 3 87 C1.88273258 84.32653868 1.03851464 81.83374559 0.25 79.0625 C-5.57515635 60.30879522 -14.00446506 42.72978637 -26.8203125 27.69921875 C-28 26 -28 26 -28 23 C-27.01 23.33 -26.02 23.66 -25 24 C-24.773125 23.071875 -24.54625 22.14375 -24.3125 21.1875 C-22.7911563 17.49280817 -21.53647504 16.67517239 -18 15 C-17.67 15.99 -17.34 16.98 -17 18 C-16.236875 17.21625 -15.47375 16.4325 -14.6875 15.625 C-9.95238095 11 -9.95238095 11 -6 11 C-6 10.01 -6 9.02 -6 8 C-5.34 7.67 -4.68 7.34 -4 7 C-3.34444881 4.47266765 -3.34444881 4.47266765 -3 2 C-2.34 2.33 -1.68 2.66 -1 3 C-0.67 2.01 -0.34 1.02 0 0 Z " fill="#838F98" transform="translate(839,461)"/>
<path d="M0 0 C0.66 0 1.32 0 2 0 C2.99901796 2.72547618 3.99295354 5.4525093 4.9765625 8.18359375 C5.70743587 10.19489033 6.46872209 12.19524132 7.25 14.1875 C8.2416122 17.90604574 8.13249624 21.15760902 8 25 C8.54785156 24.93039062 9.09570312 24.86078125 9.66015625 24.7890625 C18.34844655 24.19571585 25.24340659 27.52504615 33 31 C25.73700574 35.84199617 16.73742429 38.87374243 8 38 C8.061875 38.96035156 8.12375 39.92070313 8.1875 40.91015625 C8.1875 45.74464381 6.61275687 49.92977191 5 54.4375 C4.57074219 55.67790039 4.57074219 55.67790039 4.1328125 56.94335938 C3.43146095 58.96558968 2.71705448 60.98328428 2 63 C1.34 63 0.68 63 0 63 C-0.98355849 59.93889304 -1.96106019 56.8758844 -2.9375 53.8125 C-3.21529297 52.94818359 -3.49308594 52.08386719 -3.77929688 51.19335938 C-4.04677734 50.35224609 -4.31425781 49.51113281 -4.58984375 48.64453125 C-4.83597412 47.87471924 -5.08210449 47.10490723 -5.33569336 46.31176758 C-6.031111 43.89173463 -6.53879898 41.47441045 -7 39 C-8.03125 38.938125 -9.0625 38.87625 -10.125 38.8125 C-14.39989356 38.28102675 -18.38075681 37.02806468 -22.4375 35.625 C-23.65308594 35.20476563 -24.86867188 34.78453125 -26.12109375 34.3515625 C-27.54615234 33.68253906 -27.54615234 33.68253906 -29 33 C-29.33 32.01 -29.66 31.02 -30 30 C-27.29559485 28.98810676 -24.58729099 27.99034309 -21.875 27 C-21.11445312 26.71382812 -20.35390625 26.42765625 -19.5703125 26.1328125 C-15.22283843 24.55872706 -11.69810742 23.63976173 -7 24 C-6.82984375 23.27296875 -6.6596875 22.5459375 -6.484375 21.796875 C-4.69790265 14.38491526 -2.51368278 7.19653344 0 0 Z " fill="#F4F6F8" transform="translate(743,645)"/>
<path d="M0 0 C2.58465914 1.29232957 2.60353366 2.1677089 3.5078125 4.859375 C3.90419922 6.03886719 3.90419922 6.03886719 4.30859375 7.2421875 C4.57800781 8.06976563 4.84742188 8.89734375 5.125 9.75 C5.40214844 10.56210937 5.67929687 11.37421875 5.96484375 12.2109375 C7.29395502 16.23100805 8.40137367 19.70704683 8 24 C9.15628906 23.94070313 10.31257812 23.88140625 11.50390625 23.8203125 C16.13760714 23.82235513 19.72220097 25.06060702 23.9375 26.875 C24.60845703 27.14441406 25.27941406 27.41382813 25.97070312 27.69140625 C30.85893654 29.71787309 30.85893654 29.71787309 32 32 C16.67045455 38.3538961 16.67045455 38.3538961 8 38 C7.9071875 39.546875 7.9071875 39.546875 7.8125 41.125 C7.01082335 47.67988552 4.72254094 57.27745906 0 62 C-1.01401869 59.31707555 -2.01128551 56.62974283 -3 53.9375 C-3.28617188 53.18533203 -3.57234375 52.43316406 -3.8671875 51.65820312 C-5.60594087 46.87663136 -6.3242268 43.0863079 -6 38 C-7.134375 38.061875 -8.26875 38.12375 -9.4375 38.1875 C-14.3785494 38.1875 -18.43112813 36.75786751 -23 35 C-24.16208984 34.57074219 -24.16208984 34.57074219 -25.34765625 34.1328125 C-27.23607828 33.43339693 -29.11868738 32.71831936 -31 32 C-28.0891102 28.84907609 -25.30574989 27.76160377 -21.25 26.3125 C-20.05890625 25.87550781 -18.8678125 25.43851562 -17.640625 24.98828125 C-13.92212182 23.97885925 -10.83280826 23.8181873 -7 24 C-6.91363281 23.35675781 -6.82726562 22.71351563 -6.73828125 22.05078125 C-5.52339253 14.23759783 -3.03376688 7.28335636 0 0 Z " fill="#F5F6F8" transform="translate(587,418)"/>
<path d="M0 0 C0.66 0 1.32 0 2 0 C4.95555804 7.66700112 7.57200914 14.72550999 8 23 C8.87398437 23.02126953 8.87398437 23.02126953 9.765625 23.04296875 C17.43287997 23.48901975 26.40129645 25.40129645 32 31 C15.96946565 38 15.96946565 38 8 38 C7.88785156 38.98097656 7.77570312 39.96195312 7.66015625 40.97265625 C7.04422965 45.28414248 5.78672896 49.30666736 4.4375 53.4375 C4.08655273 54.53481445 4.08655273 54.53481445 3.72851562 55.65429688 C3.15732778 57.43780179 2.57936877 59.21913583 2 61 C-3.31664204 56.41249744 -5.00191918 48.55591428 -5.75 41.8125 C-5.8325 40.554375 -5.915 39.29625 -6 38 C-7.155 37.95875 -8.31 37.9175 -9.5 37.875 C-17.03087972 37.08927419 -24.03028244 33.79643882 -31 31 C-27.58363864 28.04319994 -23.85674555 26.69114939 -19.625 25.3125 C-18.97789062 25.08755859 -18.33078125 24.86261719 -17.6640625 24.63085938 C-13.65389409 23.30087408 -10.21554035 22.75855264 -6 23 C-5.9071875 21.205625 -5.9071875 21.205625 -5.8125 19.375 C-5.09494625 12.57998343 -2.44051276 6.33092425 0 0 Z " fill="#F4F5F6" transform="translate(658,363)"/>
<path d="M0 0 C2.32097015 4.64194031 1.52657853 11.34479469 0.5390625 16.32421875 C-2.19560959 24.51214871 -7.91156318 29.55181213 -15.2734375 33.7109375 C-21.34502674 36.58145963 -27.30057634 38.07964692 -34 38 C-34.84415762 34.46082426 -35.67337694 30.91830859 -36.5 27.375 C-36.73847656 26.37597656 -36.97695312 25.37695312 -37.22265625 24.34765625 C-38.34893117 19.48858446 -39.34312331 15.02675656 -39 10 C-37.36804688 9.85304688 -37.36804688 9.85304688 -35.703125 9.703125 C-23.93860497 8.54560688 -10.58304398 0 0 0 Z " fill="#4D5E68" transform="translate(213,564)"/>
<path d="M0 0 C-0.72703125 0.71285156 -1.4540625 1.42570313 -2.203125 2.16015625 C-15.55036045 15.712447 -24.39937095 29.85835453 -30 48 C-36.0880351 45.59371399 -38.43656983 39.3825887 -41.05078125 33.7265625 C-43.29294435 27.83955607 -43.31489511 22.23958823 -43 16 C-42.49597656 15.76023438 -41.99195313 15.52046875 -41.47265625 15.2734375 C-39.43816098 14.22565637 -37.47186706 13.1283586 -35.49609375 11.9765625 C-24.10572978 5.35618566 -13.49520559 -0.26461187 0 0 Z " fill="#9CA4A9" transform="translate(371,235)"/>
<path d="M0 0 C6.39666227 7.49547542 10.4761816 19.42656479 11.3203125 29.1171875 C10.89340835 31.62655093 10.02580111 32.50184941 8 34 C7.01 34 6.02 34 5 34 C5 34.99 5 35.98 5 37 C2.69 36.34 0.38 35.68 -2 35 C-2.495 32.525 -2.495 32.525 -3 30 C-3.99 29.67 -4.98 29.34 -6 29 C-5.67 29.99 -5.34 30.98 -5 32 C-6.8125 33.0625 -6.8125 33.0625 -9 34 C-10.485 33.505 -10.485 33.505 -12 33 C-13.91813089 36.00229182 -15.23596585 38.52846619 -16 42 C-18.01169608 39.40468022 -20.00724395 36.79738208 -22 34.1875 C-22.57234375 33.44951172 -23.1446875 32.71152344 -23.734375 31.95117188 C-24.27578125 31.23896484 -24.8171875 30.52675781 -25.375 29.79296875 C-25.87773438 29.1383667 -26.38046875 28.48376465 -26.8984375 27.80932617 C-28 26 -28 26 -28 23 C-27.01 23.33 -26.02 23.66 -25 24 C-24.773125 23.071875 -24.54625 22.14375 -24.3125 21.1875 C-22.7911563 17.49280817 -21.53647504 16.67517239 -18 15 C-17.67 15.99 -17.34 16.98 -17 18 C-16.236875 17.21625 -15.47375 16.4325 -14.6875 15.625 C-9.95238095 11 -9.95238095 11 -6 11 C-6 10.01 -6 9.02 -6 8 C-5.34 7.67 -4.68 7.34 -4 7 C-3.34444881 4.47266765 -3.34444881 4.47266765 -3 2 C-2.34 2.33 -1.68 2.66 -1 3 C-0.67 2.01 -0.34 1.02 0 0 Z M-3 27 C-2.67 27.66 -2.34 28.32 -2 29 C-1.67 28.34 -1.34 27.68 -1 27 C-1.66 27 -2.32 27 -3 27 Z " fill="#98A2A9" transform="translate(839,461)"/>
<path d="M0 0 C9.89981449 1.13181671 18.26168867 9.00061019 25 16 C27.50481956 19.23038537 29.80360438 22.55356571 32 26 C30.65095772 29.05782918 29.87509926 30.0977484 27.125 32.25 C22.40680838 36.01071019 20.1227148 41.09423139 19.25 47 C19.1675 47.99 19.085 48.98 19 50 C18.72978027 49.45666016 18.45956055 48.91332031 18.18115234 48.35351562 C16.8370757 45.67536373 15.46894412 43.01007919 14.1015625 40.34375 C12.94240438 38.06265443 11.78356239 35.78139819 10.625 33.5 C10.0475 32.37851563 9.47 31.25703125 8.875 30.1015625 C-0.8382217 10.89688215 -0.8382217 10.89688215 0 0 Z " fill="#5C6E79" transform="translate(600,219)"/>
<path d="M0 0 C0.66 0.33 1.32 0.66 2 1 C0.98823563 4.40320742 0.35156418 5.75725331 -2.625 7.8125 C-3.40875 8.204375 -4.1925 8.59625 -5 9 C-5 8.34 -5 7.68 -5 7 C-5.66 7 -6.32 7 -7 7 C-7.33 8.65 -7.66 10.3 -8 12 C-8.99 11.67 -9.98 11.34 -11 11 C-10.79375 11.78375 -10.5875 12.5675 -10.375 13.375 C-10.25125 14.24125 -10.1275 15.1075 -10 16 C-10.66 16.66 -11.32 17.32 -12 18 C-12.6425235 20.06874034 -12.6425235 20.06874034 -13 22 C-12.01 22.33 -11.02 22.66 -10 23 C-10.495 24.485 -10.495 24.485 -11 26 C-8.36 26.33 -5.72 26.66 -3 27 C-3 27.33 -3 27.66 -3 28 C-18.97703068 28.70400625 -32.10386143 26.6670303 -46 18 C-42.58952951 15.72635301 -39.69325997 15.3497869 -35.75 14.75 C-24.31082358 12.79677919 -8.35378153 8.35378153 0 0 Z " fill="#A3ACB0" transform="translate(530,720)"/>
<path d="M0 0 C-0.32871916 3.50633767 -1.19163691 5.28471769 -3.1875 8.25 C-7.52146606 14.78896633 -9.55562962 22.60808957 -12 30 C-15.78306242 28.53426802 -17.1328299 26.66597502 -19.125 23.1875 C-19.62257813 22.33542969 -20.12015625 21.48335938 -20.6328125 20.60546875 C-23.50037494 15.14071405 -24.21167674 12.17955135 -23 6 C-20 5 -20 5 -17 5 C-15.31201173 3.56249809 -15.31201173 3.56249809 -14 2 C-13.34 2.33 -12.68 2.66 -12 3 C-13 6 -13 6 -15 7 C-14.01 7.66 -13.02 8.32 -12 9 C-11.67 8.01 -11.34 7.02 -11 6 C-10.01 5.34 -9.02 4.68 -8 4 C-7.67 3.01 -7.34 2.02 -7 1 C-2.25 0 -2.25 0 0 0 Z " fill="#A2A9AE" transform="translate(353,253)"/>
<path d="M0 0 C0.33 0 0.66 0 1 0 C1.20753906 1.11375 1.41507812 2.2275 1.62890625 3.375 C5.19877494 21.49033366 12.15147216 35.16784179 23 50 C24.67131784 52.33004021 26.33530431 54.66521922 28 57 C18.35818175 53.9869318 12.10474296 46.65533865 7.40234375 38.08984375 C1.25646618 25.66218468 -0.56519829 13.77409156 0 0 Z " fill="#52606C" transform="translate(338,761)"/>
<path d="M0 0 C0.66 0.66 1.32 1.32 2 2 C-0.23324238 41.34760386 -27.62474633 85.27631876 -49.375 117 C-49.94589355 117.84336914 -50.51678711 118.68673828 -51.10498047 119.55566406 C-54.31208225 124.13402008 -57.09591381 127.27386146 -62 130 C-60.64734508 127.11045614 -59.09919966 124.65436989 -57.1640625 122.12109375 C-56.60074219 121.37537109 -56.03742187 120.62964844 -55.45703125 119.86132812 C-54.55017578 118.6615332 -54.55017578 118.6615332 -53.625 117.4375 C-28.2099329 83.22892406 -6.95703602 42.40285507 0 0 Z " fill="#202F3A" transform="translate(853,596)"/>
<path d="M0 0 C0.33 0.66 0.66 1.32 1 2 C0.67 2.99 0.34 3.98 0 5 C1.32 5.33 2.64 5.66 4 6 C3.360625 6.391875 2.72125 6.78375 2.0625 7.1875 C-0.43778819 9.38472296 -0.64950425 10.75791433 -1 14 C-0.34 14 0.32 14 1 14 C2.125 17.75 2.125 17.75 1 20 C1.66 20 2.32 20 3 20 C3 20.99 3 21.98 3 23 C-0.90037529 21.6998749 -2.07500029 19.75622928 -4.625 16.5625 C-5.42164063 15.57378906 -6.21828125 14.58507812 -7.0390625 13.56640625 C-9 11 -9 11 -10 9 C-8.1875 6 -8.1875 6 -6 3 C-5.01 3 -4.02 3 -3 3 C-3 2.34 -3 1.68 -3 1 C-2.01 0.67 -1.02 0.34 0 0 Z " fill="#A8B0B4" transform="translate(808,461)"/>
<path d="M0 0 C4.27454425 2.7479213 8.14126153 5.69250989 12 9 C11.34 9.66 10.68 10.32 10 11 C10.165 11.804375 10.33 12.60875 10.5 13.4375 C11 16 11 16 9 19 C8.67 19.66 8.34 20.32 8 21 C6.68 21 5.36 21 4 21 C4 21.66 4 22.32 4 23 C3.34 23 2.68 23 2 23 C2 23.66 2 24.32 2 25 C1.34 24.67 0.68 24.34 0 24 C0.350625 23.4225 0.70125 22.845 1.0625 22.25 C2.14917407 19.64198224 1.93065133 18.60582371 1 16 C2.65 15.34 4.3 14.68 6 14 C5.67 13.67 5.34 13.34 5 13 C4.95919217 11.00041636 4.95745644 8.99954746 5 7 C3.35 7.66 1.7 8.32 0 9 C-0.66 7.68 -1.32 6.36 -2 5 C-1.34 5 -0.68 5 0 5 C0 3.35 0 1.7 0 0 Z " fill="#BCC2C6" transform="translate(793,409)"/>
<path d="M0 0 C2 2 2 2 2.875 4 C4.2363704 6.42021404 5.46546555 6.98618622 8 8 C7.67 8.66 7.34 9.32 7 10 C7.66 10.33 8.32 10.66 9 11 C1.58851545 12.28297723 -5.47280398 13.25515919 -13 13 C-12.34 12.67 -11.68 12.34 -11 12 C-11.33 11.01 -11.66 10.02 -12 9 C-10.68 8.34 -9.36 7.68 -8 7 C-7.67 7.99 -7.34 8.98 -7 10 C-6.34 10 -5.68 10 -5 10 C-5 9.01 -5 8.02 -5 7 C-4.34 6.67 -3.68 6.34 -3 6 C-1.95191959 4.02477154 -0.9479589 2.02518491 0 0 Z " fill="#BAC1C5" transform="translate(631,771)"/>
<path d="M0 0 C1.62106548 2.94924939 2.48443268 5.63806994 3.125 8.9375 C3.29257812 9.77152344 3.46015625 10.60554687 3.6328125 11.46484375 C4.00211177 14.01458019 4.06442528 16.42759067 4 19 C3.01 19 2.02 19 1 19 C0.34 18.34 -0.32 17.68 -1 17 C-1.66 17.99 -2.32 18.98 -3 20 C-4.32 19.34 -5.64 18.68 -7 18 C-7 17.34 -7 16.68 -7 16 C-6.34 16 -5.68 16 -5 16 C-4.31292445 13.50935112 -4 11.62113708 -4 9 C-3.34 8.67 -2.68 8.34 -2 8 C-1.31527335 6.11235097 -1.31527335 6.11235097 -0.875 3.9375 C-0.62363281 2.83728516 -0.62363281 2.83728516 -0.3671875 1.71484375 C-0.24601563 1.14894531 -0.12484375 0.58304688 0 0 Z " fill="#C3C7CC" transform="translate(662,222)"/>
<path d="M0 0 C2.97 1.65 5.94 3.3 9 5 C8.67 7.31 8.34 9.62 8 12 C7.01 12 6.02 12 5 12 C4.01 12.33 3.02 12.66 2 13 C2 12.01 2 11.02 2 10 C1.34 10 0.68 10 0 10 C-0.33 10.66 -0.66 11.32 -1 12 C-1.99 10.68 -2.98 9.36 -4 8 C-3.525625 7.608125 -3.05125 7.21625 -2.5625 6.8125 C-0.52332645 4.74741744 -0.52332645 4.74741744 0 0 Z " fill="#6E7D86" transform="translate(486,783)"/>
<path d="M0 0 C1.32 0.33 2.64 0.66 4 1 C3.67386719 1.78890625 3.34773437 2.5778125 3.01171875 3.390625 C1.73691816 7.93856223 1.74462097 12.05562949 1.8125 16.75 C1.81314453 17.61238281 1.81378906 18.47476563 1.81445312 19.36328125 C1.70310257 23.83334366 1.70310257 23.83334366 3 28 C3.06996014 29.70702735 3.08440154 31.41668003 3.0625 33.125 C3.05347656 34.03507813 3.04445312 34.94515625 3.03515625 35.8828125 C3.02355469 36.58148437 3.01195312 37.28015625 3 38 C2.01 38 1.02 38 0 38 C0 25.46 0 12.92 0 0 Z " fill="#18272E" transform="translate(165,494)"/>
<path d="M0 0 C0.51046875 0.23589844 1.0209375 0.47179687 1.546875 0.71484375 C0.680625 1.02421875 0.680625 1.02421875 -0.203125 1.33984375 C-3.26723044 3.21235263 -4.60852468 5.68442894 -6.453125 8.71484375 C-7.113125 8.38484375 -7.773125 8.05484375 -8.453125 7.71484375 C-10.7009225 9.7671806 -11.4553492 10.72151636 -12.453125 13.71484375 C-13.113125 13.71484375 -13.773125 13.71484375 -14.453125 13.71484375 C-16.453125 10.71484375 -16.453125 10.71484375 -16.453125 6.71484375 C-14.21005472 5.51234217 -11.9602459 4.32792755 -9.703125 3.15234375 C-8.75179688 2.63897461 -8.75179688 2.63897461 -7.78125 2.11523438 C-3.00217062 -0.34897843 -3.00217062 -0.34897843 0 0 Z " fill="#989FA5" transform="translate(355.453125,238.28515625)"/>
<path d="M0 0 C0.66 0.33 1.32 0.66 2 1 C2 1.66 2 2.32 2 3 C2.66 3 3.32 3 4 3 C4 3.99 4 4.98 4 6 C3.34 6.66 2.68 7.32 2 8 C1.3574765 10.06874034 1.3574765 10.06874034 1 12 C1.99 12.33 2.98 12.66 4 13 C3.01 14.485 3.01 14.485 2 16 C1.34 15.67 0.68 15.34 0 15 C0 15.66 0 16.32 0 17 C-0.66 17 -1.32 17 -2 17 C-2 16.34 -2 15.68 -2 15 C-2.66 15 -3.32 15 -4 15 C-4.33 14.01 -4.66 13.02 -5 12 C-4.525625 11.67 -4.05125 11.34 -3.5625 11 C-1.15599591 7.91967477 -1.37337982 4.85825818 -1 1 C-0.67 0.67 -0.34 0.34 0 0 Z " fill="#ADB3B6" transform="translate(516,730)"/>
<path d="M0 0 C2.97 0.495 2.97 0.495 6 1 C5.67 1.99 5.34 2.98 5 4 C5.78375 3.525625 6.5675 3.05125 7.375 2.5625 C8.88948678 1.66101977 10.4235897 0.78820515 12 0 C12.66 0.33 13.32 0.66 14 1 C13 3 13 3 11 5 C12.32 5.99 13.64 6.98 15 8 C8.7945858 7.51679152 3.00054754 6.66681876 -3 5 C-3 4.34 -3 3.68 -3 3 C-2.34 2.67 -1.68 2.34 -1 2 C-0.67 1.34 -0.34 0.68 0 0 Z " fill="#7D8B93" transform="translate(491,808)"/>
<path d="M0 0 C0.99 0.33 1.98 0.66 3 1 C-1.29975855 5.87305969 -6.37224317 8.8200442 -12 12 C-12.99 10.68 -13.98 9.36 -15 8 C-14.34 7.34 -13.68 6.68 -13 6 C-12.34 6.33 -11.68 6.66 -11 7 C-11 6.34 -11 5.68 -11 5 C-9.68 5 -8.36 5 -7 5 C-6.67 4.34 -6.34 3.68 -6 3 C-5.34 3.33 -4.68 3.66 -4 4 C-2.68 2.68 -1.36 1.36 0 0 Z M-13 8 C-12.67 8.66 -12.34 9.32 -12 10 C-11.67 9.34 -11.34 8.68 -11 8 C-11.66 8 -12.32 8 -13 8 Z " fill="#BAC1C6" transform="translate(563,729)"/>
<path d="M0 0 C0.22823248 9.28145408 -0.09572892 17.86970027 -2 27 C-4 24 -4 24 -3.625 21.8125 C-3.41875 21.214375 -3.2125 20.61625 -3 20 C-3.99 19.67 -4.98 19.34 -6 19 C-6 18.34 -6 17.68 -6 17 C-5.01 16.34 -4.02 15.68 -3 15 C-2.20562077 12.81494871 -2.20562077 12.81494871 -1.8125 10.375 C-1.65394531 9.55773437 -1.49539063 8.74046875 -1.33203125 7.8984375 C-1.22246094 7.27195312 -1.11289062 6.64546875 -1 6 C-1.99 6.33 -2.98 6.66 -4 7 C-3.625 4.0625 -3.625 4.0625 -3 1 C-1 0 -1 0 0 0 Z " fill="#BDC3C8" transform="translate(625,291)"/>
<path d="M0 0 C2.4375 0.375 2.4375 0.375 5 1 C5.33 1.66 5.66 2.32 6 3 C6.99 2.67 7.98 2.34 9 2 C8.67 3.32 8.34 4.64 8 6 C7.01 6 6.02 6 5 6 C5 6.99 5 7.98 5 9 C2.69 8.34 0.38 7.68 -2 7 C-1.125 2.25 -1.125 2.25 0 0 Z " fill="#929DA4" transform="translate(839,489)"/>
<path d="M0 0 C6.36590304 5.24458586 12.13570612 11.02097322 17.9375 16.875 C18.91708237 17.85960919 19.89689837 18.843986 20.87695312 19.828125 C23.25360252 22.21648203 25.62787356 24.60715212 28 27 C24.28672358 27 23.39839337 25.75783556 20.84846497 23.23965454 C20.31710434 22.69908417 19.78574371 22.15851379 19.23828125 21.6015625 C18.68762497 21.05140472 18.13696869 20.50124695 17.56962585 19.93441772 C16.40698677 18.76943733 15.24804168 17.60076046 14.0925293 16.42871094 C12.31780277 14.63037332 10.53011701 12.84573977 8.74023438 11.0625 C7.61378833 9.93047803 6.48811057 8.79769094 5.36328125 7.6640625 C4.55713127 6.85927963 4.55713127 6.85927963 3.73469543 6.03823853 C0 2.23101543 0 2.23101543 0 0 Z " fill="#15232E" transform="translate(254,745)"/>
<path d="M0 0 C0.99 0.66 1.98 1.32 3 2 C2.49396008 4.16874252 2.00016187 5.99967627 1 8 C-0.65 7.67 -2.3 7.34 -4 7 C-3.67 7.99 -3.34 8.98 -3 10 C-3.66 10.66 -4.32 11.32 -5 12 C-7.125 7.375 -7.125 7.375 -6 4 C-4.0625 2.75 -4.0625 2.75 -2 2 C-1.34 2.33 -0.68 2.66 0 3 C0 2.01 0 1.02 0 0 Z " fill="#B3B9BE" transform="translate(812,436)"/>
<path d="M0 0 C0.33 0.66 0.66 1.32 1 2 C1.99 2.28875 2.98 2.5775 4 2.875 C7 4 7 4 7.9375 6 C8 8 8 8 7 10 C7.66 10 8.32 10 9 10 C9 10.99 9 11.98 9 13 C5.21919607 11.73973202 4.22704575 10.06453466 1.8125 6.9375 C1.09707031 6.01839844 0.38164063 5.09929687 -0.35546875 4.15234375 C-1.16951172 3.08693359 -1.16951172 3.08693359 -2 2 C-1.34 1.34 -0.68 0.68 0 0 Z " fill="#9BA6AE" transform="translate(802,471)"/>
<path d="M0 0 C1.03719328 3.21456356 0.94068337 5.40925583 0.1875 8.6875 C-0.06966797 9.86892578 -0.06966797 9.86892578 -0.33203125 11.07421875 C-1 13 -1 13 -3 14 C-3.66 13.34 -4.32 12.68 -5 12 C-5.66 11.67 -6.32 11.34 -7 11 C-5.22054913 6.95579349 -2.60470327 3.53921513 0 0 Z " fill="#CACDD1" transform="translate(690,735)"/>
<path d="M0 0 C3.96 0.99 3.96 0.99 8 2 C7.01 2.495 7.01 2.495 6 3 C6 3.66 6 4.32 6 5 C7.32 5 8.64 5 10 5 C9.67 5.66 9.34 6.32 9 7 C8.34 7 7.68 7 7 7 C6.34 7.66 5.68 8.32 5 9 C2.69 7.02 0.38 5.04 -2 3 C-1.34 2.01 -0.68 1.02 0 0 Z " fill="#B4BCC1" transform="translate(770,439)"/>
<path d="M0 0 C2.49551158 2.49551158 3.07575992 4.66076626 4.1875 8 C4.55230469 9.0725 4.91710937 10.145 5.29296875 11.25 C6 14 6 14 5 16 C2.40725112 12.80016846 -0.03125367 9.62465077 -2 6 C-1.4375 2.375 -1.4375 2.375 0 0 Z " fill="#DDDFE3" transform="translate(774,495)"/>
<path d="M0 0 C7.26 0 14.52 0 22 0 C22 0.33 22 0.66 22 1 C15.07 1 8.14 1 1 1 C1 7.93 1 14.86 1 22 C0.67 22 0.34 22 0 22 C0 14.74 0 7.48 0 0 Z " fill="#12232E" transform="translate(0,0)"/>
<path d="M0 0 C3.05269529 2.85855459 5.29259507 5.76560162 7.5 9.3125 C8.09941406 10.27414062 8.69882813 11.23578125 9.31640625 12.2265625 C11.27470831 15.45253574 13.16732986 18.70119375 15 22 C11.5498322 20.58965853 10.11323194 19.11121614 8.203125 15.9375 C7.71972656 15.14085937 7.23632812 14.34421875 6.73828125 13.5234375 C6.24714844 12.69070313 5.75601563 11.85796875 5.25 11 C4.74339844 10.16726563 4.23679688 9.33453125 3.71484375 8.4765625 C0 2.28849394 0 2.28849394 0 0 Z " fill="#24303D" transform="translate(215,687)"/>
<path d="M0 0 C0.33 0 0.66 0 1 0 C1.12152487 7.73708326 0.84800767 15.307359 0 23 C-0.99 23 -1.98 23 -3 23 C-3.33 21.02 -3.66 19.04 -4 17 C-3.01 16.67 -2.02 16.34 -1 16 C-1.33 14.02 -1.66 12.04 -2 10 C-1.34 10 -0.68 10 0 10 C0 6.7 0 3.4 0 0 Z " fill="#ACB2B8" transform="translate(666,247)"/>
<path d="M0 0 C0.99 0 1.98 0 3 0 C3.54372951 3.05847848 4 5.88772805 4 9 C2.0625 8.625 2.0625 8.625 0 8 C-0.33 7.34 -0.66 6.68 -1 6 C-0.34 6 0.32 6 1 6 C0.34 4.35 -0.32 2.7 -1 1 C-0.67 0.67 -0.34 0.34 0 0 Z M-6 1 C-3.525 1.495 -3.525 1.495 -1 2 C-1.66 3.32 -2.32 4.64 -3 6 C-3.99 5.34 -4.98 4.68 -6 4 C-6 3.01 -6 2.02 -6 1 Z " fill="#B8BEC2" transform="translate(786,436)"/>
<path d="M0 0 C2.31 0 4.62 0 7 0 C7.66 1.98 8.32 3.96 9 6 C8.01 6.495 8.01 6.495 7 7 C5.0546875 6.22265625 5.0546875 6.22265625 2.875 5.0625 C2.15054687 4.68222656 1.42609375 4.30195312 0.6796875 3.91015625 C0.12539063 3.60980469 -0.42890625 3.30945313 -1 3 C-0.67 2.01 -0.34 1.02 0 0 Z " fill="#657580" transform="translate(466,800)"/>
<path d="M0 0 C2.31 0.33 4.62 0.66 7 1 C4.29259338 3.70740662 1.7373234 4.1010554 -1.9375 5.125 C-3.18402344 5.47820313 -4.43054688 5.83140625 -5.71484375 6.1953125 C-9 7 -9 7 -12 7 C-12 6.34 -12 5.68 -12 5 C-6.555 4.01 -6.555 4.01 -1 3 C-0.67 2.01 -0.34 1.02 0 0 Z " fill="#B5BDC2" transform="translate(542,740)"/>
<path d="M0 0 C0.66 0.33 1.32 0.66 2 1 C1.51679152 7.2054142 0.66681876 12.99945246 -1 19 C-1.33 19 -1.66 19 -2 19 C-2.02715383 17.25008666 -2.04646551 15.50005055 -2.0625 13.75 C-2.07410156 12.77546875 -2.08570313 11.8009375 -2.09765625 10.796875 C-2.01133607 8.32466493 -1.64222327 6.36661803 -1 4 C-1 3.01 -1 2.02 -1 1 C-0.67 0.67 -0.34 0.34 0 0 Z " fill="#D2D7DC" transform="translate(318,724)"/>
<path d="M0 0 C-0.99 0.8971875 -0.99 0.8971875 -2 1.8125 C-4.3373846 3.87501834 -4.3373846 3.87501834 -4 7 C-6 8.6875 -6 8.6875 -8 10 C-8.29296875 3.9453125 -8.29296875 3.9453125 -8 2 C-4.77208445 -0.1519437 -3.71599191 -0.20086443 0 0 Z " fill="#5F6F79" transform="translate(467,772)"/>
<path d="M0 0 C2.38564077 0.57584432 4.66682784 1.22227595 7 2 C7 2.66 7 3.32 7 4 C2.22642128 6.71391278 -1.34388537 8.56561146 -7 8 C-4.35261084 6.5393715 -3.10551666 6 0 6 C0 5.34 0 4.68 0 4 C0.66 4 1.32 4 2 4 C2 3.34 2 2.68 2 2 C1.34 2 0.68 2 0 2 C0 1.34 0 0.68 0 0 Z " fill="#D7DADC" transform="translate(632,667)"/>
<path d="M0 0 C0 0.66 0 1.32 0 2 C-1.76371818 3.03307771 -3.53625033 4.05112049 -5.3125 5.0625 C-6.79169922 5.91521484 -6.79169922 5.91521484 -8.30078125 6.78515625 C-11 8 -11 8 -14 7 C-13.34 7 -12.68 7 -12 7 C-11.34 5.68 -10.68 4.36 -10 3 C-9.01 3.33 -8.02 3.66 -7 4 C-6.67 3.01 -6.34 2.02 -6 1 C-3.90006779 0.25486277 -2.22568901 0 0 0 Z " fill="#B9BFC2" transform="translate(595,793)"/>
<path d="M0 0 C0 0.66 0 1.32 0 2 C-1.93558599 2.67220351 -3.87354372 3.33758077 -5.8125 4 C-6.89144531 4.37125 -7.97039063 4.7425 -9.08203125 5.125 C-12 6 -12 6 -15 6 C-14.67 5.01 -14.34 4.02 -14 3 C-13.34 3 -12.68 3 -12 3 C-11.67 2.34 -11.34 1.68 -11 1 C-10.01 1.33 -9.02 1.66 -8 2 C-1.46666667 0 -1.46666667 0 0 0 Z " fill="#C5CBCE" transform="translate(660,775)"/>
<path d="M0 0 C0.66 0.33 1.32 0.66 2 1 C2 3.31 2 5.62 2 8 C0.35 8.66 -1.3 9.32 -3 10 C-3 7.33333333 -3 4.66666667 -3 2 C-2.01 1.34 -1.02 0.68 0 0 Z " fill="#AFB5B9" transform="translate(798,453)"/>
<path d="M0 0 C-0.33 0.99 -0.66 1.98 -1 3 C-1.66 3 -2.32 3 -3 3 C-2.67 3.99 -2.34 4.98 -2 6 C-5 7 -5 7 -7.1875 6.0625 C-7.785625 5.711875 -8.38375 5.36125 -9 5 C-7.35234966 0.05704899 -4.76872479 -0.25776891 0 0 Z " fill="#A5ADB2" transform="translate(826,464)"/>
<path d="M0 0 C2.97 0.495 2.97 0.495 6 1 C4.515 3.475 4.515 3.475 3 6 C0.03 5.505 0.03 5.505 -3 5 C-3 4.34 -3 3.68 -3 3 C-2.34 2.67 -1.68 2.34 -1 2 C-0.67 1.34 -0.34 0.68 0 0 Z " fill="#77858D" transform="translate(491,808)"/>
<path d="M0 0 C2.33944736 0.28730055 4.6739143 0.61936779 7 1 C6.67 1.99 6.34 2.98 6 4 C6.66 4.33 7.32 4.66 8 5 C5.36 5 2.72 5 0 5 C-0.5625 3.0625 -0.5625 3.0625 -1 1 C-0.67 0.67 -0.34 0.34 0 0 Z " fill="#C8CCD0" transform="translate(632,777)"/>
<path d="M0 0 C-0.60183749 2.02045442 -1.27306096 4.02111039 -2 6 C-2.99 6.495 -2.99 6.495 -4 7 C-5.32 5.35 -6.64 3.7 -8 2 C-4.77208445 -0.1519437 -3.71599191 -0.20086443 0 0 Z " fill="#D1D4D6" transform="translate(610,685)"/>
<path d="M0 0 C1.5625 1.8125 1.5625 1.8125 3 4 C2.67 4.99 2.34 5.98 2 7 C-1 8 -1 8 -4 7 C-3.67 5.35 -3.34 3.7 -3 2 C-2.34 2.33 -1.68 2.66 -1 3 C-0.67 2.01 -0.34 1.02 0 0 Z " fill="#A2ABB2" transform="translate(839,461)"/>
<path d="M0 0 C0.33 0 0.66 0 1 0 C2.32286246 4.96073422 2.08893197 9.91111512 2 15 C-0.125 13.125 -0.125 13.125 -2 10 C-1.75739133 6.54546347 -0.9546751 3.32201132 0 0 Z " fill="#9BA2AD" transform="translate(820,393)"/>
<path d="M0 0 C0.99 0.66 1.98 1.32 3 2 C2.67 2.66 2.34 3.32 2 4 C2.66 4.33 3.32 4.66 4 5 C1.03 6.32 -1.94 7.64 -5 9 C-3.44455189 5.88910379 -1.80979645 2.96148509 0 0 Z " fill="#B7BDC5" transform="translate(591,351)"/>
<path d="M0 0 C1.95881942 3.27920881 2.05559492 3.76173604 1.125 7.75 C0.75375 8.8225 0.3825 9.895 0 11 C0.99 11.33 1.98 11.66 3 12 C1.35 13.65 -0.3 15.3 -2 17 C-3.59190467 13.81619067 -2.28749598 10.71923676 -1.5625 7.375 C-1.41490234 6.66859375 -1.26730469 5.9621875 -1.11523438 5.234375 C-0.74950507 3.48831251 -0.37552879 1.74398116 0 0 Z " fill="#B2B8C0" transform="translate(647,298)"/>
<path d="M0 0 C-0.928125 0.4021875 -0.928125 0.4021875 -1.875 0.8125 C-4.2995233 1.95556848 -4.2995233 1.95556848 -6 5 C-9.125 5.1875 -9.125 5.1875 -12 5 C-11 2 -11 2 -7.6875 0.25 C-3.02436902 -1.33072237 -3.02436902 -1.33072237 0 0 Z " fill="#919B9F" transform="translate(357,239)"/>
<path d="M0 0 C-0.33 1.32 -0.66 2.64 -1 4 C-7.75 5 -7.75 5 -10 5 C-9.67 4.01 -9.34 3.02 -9 2 C-7.0625 1.375 -7.0625 1.375 -5 1 C-3 0 -3 0 0 0 Z " fill="#BABFC2" transform="translate(606,786)"/>
<path d="M0 0 C0 4.38618346 -2.73456783 6.55175811 -5.5 9.6875 C-6.02464844 10.29400391 -6.54929688 10.90050781 -7.08984375 11.52539062 C-8.38666902 13.02263435 -9.69249362 14.51207472 -11 16 C-11 12.0691648 -9.66253629 10.99680069 -7.1875 8 C-6.47980469 7.13375 -5.77210938 6.2675 -5.04296875 5.375 C-3.42346556 3.49228884 -1.79054442 1.71711515 0 0 Z " fill="#1D2B36" transform="translate(248,291)"/>
<path d="M0 0 C0.66 0.66 1.32 1.32 2 2 C-1.625 7.875 -1.625 7.875 -5 9 C-5.3125 6.75 -5.3125 6.75 -5 4 C-2.5 1.6875 -2.5 1.6875 0 0 Z " fill="#9EA7AC" transform="translate(820,476)"/>
<path d="M0 0 C0.66 0 1.32 0 2 0 C0.54997977 4.10839064 -1.3979134 7.50344613 -4 11 C-4.66 11 -5.32 11 -6 11 C-4.54997977 6.89160936 -2.6020866 3.49655387 0 0 Z " fill="#192732" transform="translate(812,695)"/>
<path d="M0 0 C0.33 0.99 0.66 1.98 1 3 C1.66 3 2.32 3 3 3 C3 6.63 3 10.26 3 14 C0.31907309 11.31907309 0.61329743 9.60832637 0.375 5.875 C0.30023438 4.77929688 0.22546875 3.68359375 0.1484375 2.5546875 C0.09945312 1.71164062 0.05046875 0.86859375 0 0 Z " fill="#969A9E" transform="translate(168,535)"/>
<path d="M0 0 C0.33 0 0.66 0 1 0 C2.04350941 6.95253862 2.46505172 11.7629069 -1 18 C-1.33 18 -1.66 18 -2 18 C-1.42085333 11.98673249 -0.77662055 5.99107278 0 0 Z " fill="#9EA7B1" transform="translate(601,314)"/>
<path d="M0 0 C0.99 0.33 1.98 0.66 3 1 C3 2.65 3 4.3 3 6 C1.02 6.99 1.02 6.99 -1 8 C-1.66 6.02 -2.32 4.04 -3 2 C-2.34 2 -1.68 2 -1 2 C-0.67 1.34 -0.34 0.68 0 0 Z " fill="#C1C8D0" transform="translate(643,255)"/>
<path d="M0 0 C0.33 0 0.66 0 1 0 C1.66 4.29 2.32 8.58 3 13 C1.02 11.68 -0.96 10.36 -3 9 C-2.01 8.67 -1.02 8.34 0 8 C0 5.36 0 2.72 0 0 Z " fill="#ABB0B7" transform="translate(311,778)"/>
<path d="M0 0 C0.66 0.33 1.32 0.66 2 1 C2 2.65 2 4.3 2 6 C0.35 6.33 -1.3 6.66 -3 7 C-3.1875 4.625 -3.1875 4.625 -3 2 C-2.01 1.34 -1.02 0.68 0 0 Z " fill="#687880" transform="translate(478,779)"/>
<path d="M0 0 C-1.27679803 3.83039408 -2.59435626 3.98757415 -6 6 C-7.7041054 7.62836738 -9.38025441 9.28769752 -11 11 C-11.66 10.67 -12.32 10.34 -13 10 C-11.73232923 8.70522938 -10.46073776 7.41429661 -9.1875 6.125 C-8.47980469 5.40570313 -7.77210938 4.68640625 -7.04296875 3.9453125 C-2.89959839 0 -2.89959839 0 0 0 Z " fill="#DEE1E1" transform="translate(490,233)"/>
<path d="M0 0 C0.66 0.33 1.32 0.66 2 1 C0.57140593 2.03325986 -0.86822383 3.05127634 -2.3125 4.0625 C-3.51326172 4.91521484 -3.51326172 4.91521484 -4.73828125 5.78515625 C-5.48464844 6.18605469 -6.23101563 6.58695313 -7 7 C-7.99 6.67 -8.98 6.34 -10 6 C-7.04348747 3.45411421 -4.86866421 1.69083289 -1 1 C-0.67 0.67 -0.34 0.34 0 0 Z " fill="#C7CCCF" transform="translate(671,768)"/>
<path d="M0 0 C1.76462683 3.08809695 2 4.23312136 2 8 C1.34 8 0.68 8 0 8 C0 8.99 0 9.98 0 11 C-1.32 10.34 -2.64 9.68 -4 9 C-3.34 8.67 -2.68 8.34 -2 8 C-1.31527335 6.11235097 -1.31527335 6.11235097 -0.875 3.9375 C-0.70742188 3.20402344 -0.53984375 2.47054687 -0.3671875 1.71484375 C-0.24601563 1.14894531 -0.12484375 0.58304688 0 0 Z " fill="#BCC1C7" transform="translate(662,222)"/>
<path d="M0 0 C0.66 1.32 1.32 2.64 2 4 C0.38405168 6.04119788 -1.2856382 8.04072937 -3 10 C-3.66 10 -4.32 10 -5 10 C-5 9.01 -5 8.02 -5 7 C-4.34 6.67 -3.68 6.34 -3 6 C-1.95191959 4.02477154 -0.9479589 2.02518491 0 0 Z " fill="#C7CBCE" transform="translate(631,771)"/>
<path d="M0 0 C2.64 1.32 5.28 2.64 8 4 C3.03429151 5.24142712 0.84452938 4.37261666 -4 3 C-2.68 2.67 -1.36 2.34 0 2 C0 1.34 0 0.68 0 0 Z " fill="#D8DBE3" transform="translate(434,826)"/>
<path d="M0 0 C0.66 0.66 1.32 1.32 2 2 C1.60495559 4.9628331 0.40182371 7.38326241 -1 10 C-1.144375 8.88625 -1.28875 7.7725 -1.4375 6.625 C-1.78372035 3.17857953 -1.78372035 3.17857953 -3 1 C-2.01 0.67 -1.02 0.34 0 0 Z " fill="#A3AAAF" transform="translate(813,469)"/>
<path d="M0 0 C0.66 0 1.32 0 2 0 C2.33 1.98 2.66 3.96 3 6 C1.02 6 -0.96 6 -3 6 C-2.34 5.67 -1.68 5.34 -1 5 C-1.33 4.01 -1.66 3.02 -2 2 C-1.34 1.34 -0.68 0.68 0 0 Z " fill="#C4C9CD" transform="translate(621,778)"/>
<path d="M0 0 C0.66 0.33 1.32 0.66 2 1 C0.54744301 4.82946843 -1.42895561 6.12050295 -5 8 C-3.62845496 5.04590299 -2.01136276 2.55991624 0 0 Z " fill="#24313C" transform="translate(796,718)"/>
<path d="M0 0 C0.66 0.33 1.32 0.66 2 1 C2.85056945 4.55692677 3.16909807 6.49270578 2 10 C1.34 10 0.68 10 0 10 C-0.74926071 6.33694766 -1.2380014 3.57644848 0 0 Z " fill="#727880" transform="translate(176,424)"/>
<path d="M0 0 C0.66 0.33 1.32 0.66 2 1 C0.68 3.64 -0.64 6.28 -2 9 C-2.66 8.34 -3.32 7.68 -4 7 C-3.625 4.375 -3.625 4.375 -3 2 C-2.34 2 -1.68 2 -1 2 C-0.67 1.34 -0.34 0.68 0 0 Z " fill="#B1B8BC" transform="translate(618,325)"/>
<path d="M0 0 C0.33 0 0.66 0 1 0 C1 2.31 1 4.62 1 7 C1.66 7 2.32 7 3 7 C3 8.32 3 9.64 3 11 C2.01 11.33 1.02 11.66 0 12 C0 8.04 0 4.08 0 0 Z " fill="#B7BDC5" transform="translate(602,302)"/>
<path d="M0 0 C0.66 0.33 1.32 0.66 2 1 C-0.97 3.97 -3.94 6.94 -7 10 C-7.66 9.67 -8.32 9.34 -9 9 C-6.03 6.03 -3.06 3.06 0 0 Z " fill="#15232E" transform="translate(280,253)"/>
<path d="M0 0 C0.66 0 1.32 0 2 0 C2.66 1.98 3.32 3.96 4 6 C3.01 6 2.02 6 1 6 C0.34 4.35 -0.32 2.7 -1 1 C-0.67 0.67 -0.34 0.34 0 0 Z " fill="#6C7C84" transform="translate(471,800)"/>
<path d="M0 0 C0.33 0.66 0.66 1.32 1 2 C1.66 2 2.32 2 3 2 C2.34 5.3 1.68 8.6 1 12 C0.67 12 0.34 12 0 12 C0 8.04 0 4.08 0 0 Z " fill="#D5D8DF" transform="translate(292,709)"/>
<path d="M0 0 C-0.350625 0.598125 -0.70125 1.19625 -1.0625 1.8125 C-2.33304698 4.10813214 -2.33304698 4.10813214 -1 7 C-1.66 7.66 -2.32 8.32 -3 9 C-4.1875 6.75 -4.1875 6.75 -5 4 C-2.83783784 0 -2.83783784 0 0 0 Z " fill="#B4BABF" transform="translate(805,444)"/>
<path d="M0 0 C1.65 1.65 3.3 3.3 5 5 C3.68 5.99 2.36 6.98 1 8 C0.67 5.36 0.34 2.72 0 0 Z " fill="#5E717C" transform="translate(743,257)"/>
<path d="M0 0 C1.32 0.33 2.64 0.66 4 1 C3.67 1.66 3.34 2.32 3 3 C3.99 3 4.98 3 6 3 C6 3.66 6 4.32 6 5 C4.68 5.33 3.36 5.66 2 6 C1.34 4.02 0.68 2.04 0 0 Z " fill="#8E969F" transform="translate(328,251)"/>
<path d="M0 0 C2.12508244 3.18762365 2.5020163 5.26512223 3 9 C0.9375 7.3125 0.9375 7.3125 -1 5 C-0.75 2.25 -0.75 2.25 0 0 Z " fill="#C1C6CF" transform="translate(777,502)"/>
<path d="M0 0 C0.99 0.66 1.98 1.32 3 2 C2.67 4.31 2.34 6.62 2 9 C0 6 0 6 0.375 3.8125 C0.58125 3.214375 0.7875 2.61625 1 2 C0.01 1.67 -0.98 1.34 -2 1 C-1.34 0.67 -0.68 0.34 0 0 Z " fill="#B1B7BC" transform="translate(621,309)"/>
<path d="M0 0 C0 3 0 3 -1.53125 4.60546875 C-2.1809375 5.12753906 -2.830625 5.64960938 -3.5 6.1875 C-4.1496875 6.71730469 -4.799375 7.24710937 -5.46875 7.79296875 C-5.9740625 8.19128906 -6.479375 8.58960938 -7 9 C-5.27845212 5.23511958 -3.00765886 2.84936103 0 0 Z " fill="#15232E" transform="translate(261,272)"/>
<path d="M0 0 C2.5 2.3125 2.5 2.3125 5 5 C5 5.99 5 6.98 5 8 C0 2.25 0 2.25 0 0 Z " fill="#15232E" transform="translate(233,719)"/>
<path d="M0 0 C1.98 1.65 3.96 3.3 6 5 C5.67 5.66 5.34 6.32 5 7 C3.29115995 5.37660195 1.62553283 3.70680947 0 2 C0 1.34 0 0.68 0 0 Z " fill="#15232E" transform="translate(248,738)"/>
<path d="M0 0 C0.33 0 0.66 0 1 0 C1 3.96 1 7.92 1 12 C0.67 12 0.34 12 0 12 C0 8.04 0 4.08 0 0 Z " fill="#15232E" transform="translate(166,534)"/>
<path d="M0 0 C0.33 0 0.66 0 1 0 C1 3.3 1 6.6 1 10 C0.67 10 0.34 10 0 10 C0 6.7 0 3.4 0 0 Z " fill="#15232E" transform="translate(166,480)"/>
<path d="M0 0 C0.66 0.33 1.32 0.66 2 1 C0.68 2.32 -0.64 3.64 -2 5 C-2.66 4.67 -3.32 4.34 -4 4 C-2.68 2.68 -1.36 1.36 0 0 Z " fill="#15232E" transform="translate(287,247)"/>
<path d="M0 0 C3.875 1.75 3.875 1.75 5 4 C1.125 2.25 1.125 2.25 0 0 Z " fill="#15232E" transform="translate(290,780)"/>
<path d="M0 0 C1.32 0.99 2.64 1.98 4 3 C3.67 3.66 3.34 4.32 3 5 C1.5 3.625 1.5 3.625 0 2 C0 1.34 0 0.68 0 0 Z " fill="#15232E" transform="translate(243,732)"/>
<path d="M0 0 C1.32 0.99 2.64 1.98 4 3 C3.67 3.66 3.34 4.32 3 5 C1.5 3.625 1.5 3.625 0 2 C0 1.34 0 0.68 0 0 Z " fill="#15232E" transform="translate(239,727)"/>
<path d="M0 0 C0.33 0 0.66 0 1 0 C1 2.64 1 5.28 1 8 C0.67 8 0.34 8 0 8 C0 5.36 0 2.72 0 0 Z " fill="#15232E" transform="translate(167,547)"/>
<path d="M0 0 C0.66 0.33 1.32 0.66 2 1 C1.01 1.99 0.02 2.98 -1 4 C-1.66 3.67 -2.32 3.34 -3 3 C-2.01 2.01 -1.02 1.02 0 0 Z " fill="#15232E" transform="translate(293,242)"/>
<path d="M0 0 C0.99 0.99 1.98 1.98 3 3 C2.67 3.66 2.34 4.32 2 5 C1.34 3.35 0.68 1.7 0 0 Z " fill="#15232E" transform="translate(202,669)"/>
<path d="M0 0 C0.33 0 0.66 0 1 0 C1 2.31 1 4.62 1 7 C0.67 7 0.34 7 0 7 C0 4.69 0 2.38 0 0 Z " fill="#15232E" transform="translate(168,556)"/>
<path d="M0 0 C1.485 0.99 1.485 0.99 3 2 C2.67 2.66 2.34 3.32 2 4 C1.34 2.68 0.68 1.36 0 0 Z " fill="#15232E" transform="translate(230,715)"/>
<path d="M0 0 C1.485 0.99 1.485 0.99 3 2 C2.67 2.66 2.34 3.32 2 4 C1.34 2.68 0.68 1.36 0 0 Z " fill="#15232E" transform="translate(225,708)"/>
<path d="M0 0 C0 0.99 0 1.98 0 3 C-0.99 3.495 -0.99 3.495 -2 4 C-1.34 2.68 -0.68 1.36 0 0 Z " fill="#15232E" transform="translate(250,284)"/>
<path d="M0 0 C0.33 0 0.66 0 1 0 C1 1.65 1 3.3 1 5 C0.67 5 0.34 5 0 5 C0 3.35 0 1.7 0 0 Z " fill="#15232E" transform="translate(171,576)"/>
<path d="M0 0 C0.33 0 0.66 0 1 0 C1 1.65 1 3.3 1 5 C0.67 5 0.34 5 0 5 C0 3.35 0 1.7 0 0 Z " fill="#15232E" transform="translate(169,564)"/>
<path d="M0 0 C0.33 0 0.66 0 1 0 C1 1.65 1 3.3 1 5 C0.67 5 0.34 5 0 5 C0 3.35 0 1.7 0 0 Z " fill="#15232E" transform="translate(167,471)"/>
<path d="M0 0 C0.99 0.33 1.98 0.66 3 1 C2.01 1 1.02 1 0 1 C0 0.67 0 0.34 0 0 Z " fill="#15232E" transform="translate(305,792)"/>
<path d="M0 0 C0.99 0.495 0.99 0.495 2 1 C1.67 1.66 1.34 2.32 1 3 C0.67 2.01 0.34 1.02 0 0 Z " fill="#15232E" transform="translate(228,712)"/>
<path d="M0 0 C0.99 0.495 0.99 0.495 2 1 C1.67 1.66 1.34 2.32 1 3 C0.67 2.01 0.34 1.02 0 0 Z " fill="#15232E" transform="translate(223,705)"/>
<path d="M0 0 C0.99 0.495 0.99 0.495 2 1 C1.67 1.66 1.34 2.32 1 3 C0.67 2.01 0.34 1.02 0 0 Z " fill="#15232E" transform="translate(221,702)"/>
<path d="M0 0 C0.99 0.495 0.99 0.495 2 1 C1.67 1.66 1.34 2.32 1 3 C0.67 2.01 0.34 1.02 0 0 Z " fill="#15232E" transform="translate(218,697)"/>
<path d="M0 0 C0.99 0.495 0.99 0.495 2 1 C1.67 1.66 1.34 2.32 1 3 C0.67 2.01 0.34 1.02 0 0 Z " fill="#15232E" transform="translate(216,694)"/>
<path d="M0 0 C0.99 0.495 0.99 0.495 2 1 C1.67 1.66 1.34 2.32 1 3 C0.67 2.01 0.34 1.02 0 0 Z " fill="#15232E" transform="translate(213,689)"/>
<path d="M0 0 C1 4 1 4 1 4 Z " fill="#15232E" transform="translate(174,590)"/>
<path d="M0 0 C1 4 1 4 1 4 Z " fill="#15232E" transform="translate(173,586)"/>
<path d="M0 0 C1 4 1 4 1 4 Z " fill="#15232E" transform="translate(170,571)"/>
<path d="M0 0 C1 4 1 4 1 4 Z " fill="#15232E" transform="translate(168,463)"/>
<path d="M0 0 C1 4 1 4 1 4 Z " fill="#15232E" transform="translate(171,445)"/>
<path d="M0 0 C0 3 0 3 0 3 Z " fill="#15232E" transform="translate(222,321)"/>
<path d="M0 0 C0 3 0 3 0 3 Z " fill="#15232E" transform="translate(224,318)"/>
<path d="M0 0 C0 3 0 3 0 3 Z " fill="#15232E" transform="translate(226,315)"/>
<path d="M0 0 C0 3 0 3 0 3 Z " fill="#15232E" transform="translate(231,308)"/>
<path d="M0 0 C0 3 0 3 0 3 Z " fill="#15232E" transform="translate(236,301)"/>
<path d="M0 0 C0 3 0 3 0 3 Z " fill="#15232E" transform="translate(240,296)"/>
<path d="M0 0 C0 3 0 3 0 3 Z " fill="#15232E" transform="translate(244,291)"/>
<path d="M0 0 C0.66 0.33 1.32 0.66 2 1 C1.01 1 0.02 1 -1 1 C-0.67 0.67 -0.34 0.34 0 0 Z " fill="#15232E" transform="translate(306,232)"/>
<path d="" fill="#15232E" transform="translate(0,0)"/>
<path d="" fill="#15232E" transform="translate(0,0)"/>
<path d="" fill="#15232E" transform="translate(0,0)"/>
<path d="" fill="#15232E" transform="translate(0,0)"/>
<path d="" fill="#15232E" transform="translate(0,0)"/>
<path d="" fill="#15232E" transform="translate(0,0)"/>
<path d="" fill="#15232E" transform="translate(0,0)"/>
<path d="" fill="#15232E" transform="translate(0,0)"/>
<path d="" fill="#15232E" transform="translate(0,0)"/>
<path d="" fill="#15232E" transform="translate(0,0)"/>
<path d="" fill="#15232E" transform="translate(0,0)"/>
<path d="" fill="#15232E" transform="translate(0,0)"/>
<path d="" fill="#15232E" transform="translate(0,0)"/>
<path d="" fill="#15232E" transform="translate(0,0)"/>
<path d="" fill="#15232E" transform="translate(0,0)"/>
<path d="" fill="#15232E" transform="translate(0,0)"/>
<path d="" fill="#15232E" transform="translate(0,0)"/>
<path d="" fill="#15232E" transform="translate(0,0)"/>
<path d="" fill="#15232E" transform="translate(0,0)"/>
<path d="" fill="#15232E" transform="translate(0,0)"/>
<path d="" fill="#15232E" transform="translate(0,0)"/>
<path d="" fill="#15232E" transform="translate(0,0)"/>
<path d="" fill="#15232E" transform="translate(0,0)"/>
<path d="" fill="#15232E" transform="translate(0,0)"/>
<path d="" fill="#15232E" transform="translate(0,0)"/>
<path d="" fill="#15232E" transform="translate(0,0)"/>
<path d="" fill="#15232E" transform="translate(0,0)"/>
<path d="" fill="#15232E" transform="translate(0,0)"/>
<path d="" fill="#15232E" transform="translate(0,0)"/>
<path d="" fill="#15232E" transform="translate(0,0)"/>
<path d="" fill="#15232E" transform="translate(0,0)"/>
<path d="" fill="#15232E" transform="translate(0,0)"/>
<path d="" fill="#15232E" transform="translate(0,0)"/>
<path d="" fill="#15232E" transform="translate(0,0)"/>
<path d="" fill="#15232E" transform="translate(0,0)"/>
<path d="" fill="#15232E" transform="translate(0,0)"/>
<path d="" fill="#15232E" transform="translate(0,0)"/>
<path d="" fill="#15232E" transform="translate(0,0)"/>
<path d="" fill="#15232E" transform="translate(0,0)"/>
<path d="" fill="#15232E" transform="translate(0,0)"/>
<path d="" fill="#15232E" transform="translate(0,0)"/>
<path d="" fill="#15232E" transform="translate(0,0)"/>
<path d="" fill="#15232E" transform="translate(0,0)"/>
<path d="" fill="#15232E" transform="translate(0,0)"/>
<path d="" fill="#15232E" transform="translate(0,0)"/>
<path d="" fill="#15232E" transform="translate(0,0)"/>
<path d="" fill="#15232E" transform="translate(0,0)"/>
<path d="" fill="#15232E" transform="translate(0,0)"/>
<path d="" fill="#15232E" transform="translate(0,0)"/>
<path d="" fill="#15232E" transform="translate(0,0)"/>
<path d="" fill="#15232E" transform="translate(0,0)"/>
<path d="" fill="#15232E" transform="translate(0,0)"/>
<path d="" fill="#15232E" transform="translate(0,0)"/>
<path d="" fill="#15232E" transform="translate(0,0)"/>
<path d="" fill="#15232E" transform="translate(0,0)"/>
<path d="" fill="#15232E" transform="translate(0,0)"/>
<path d="" fill="#15232E" transform="translate(0,0)"/>
<path d="" fill="#15232E" transform="translate(0,0)"/>
<path d="" fill="#15232E" transform="translate(0,0)"/>
<path d="" fill="#15232E" transform="translate(0,0)"/>
<path d="" fill="#15232E" transform="translate(0,0)"/>
<path d="" fill="#15232E" transform="translate(0,0)"/>
<path d="" fill="#15232E" transform="translate(0,0)"/>
<path d="" fill="#15232E" transform="translate(0,0)"/>
<path d="" fill="#15232E" transform="translate(0,0)"/>
<path d="" fill="#15232E" transform="translate(0,0)"/>
<path d="" fill="#15232E" transform="translate(0,0)"/>
<path d="" fill="#15232E" transform="translate(0,0)"/>
<path d="" fill="#15232E" transform="translate(0,0)"/>
<path d="" fill="#15232E" transform="translate(0,0)"/>
<path d="" fill="#15232E" transform="translate(0,0)"/>
<path d="" fill="#15232E" transform="translate(0,0)"/>
<path d="" fill="#15232E" transform="translate(0,0)"/>
<path d="" fill="#15232E" transform="translate(0,0)"/>
<path d="" fill="#15232E" transform="translate(0,0)"/>
<path d="" fill="#15232E" transform="translate(0,0)"/>
<path d="" fill="#15232E" transform="translate(0,0)"/>
<path d="" fill="#15232E" transform="translate(0,0)"/>
<path d="" fill="#15232E" transform="translate(0,0)"/>
<path d="" fill="#15232E" transform="translate(0,0)"/>
<path d="" fill="#15232E" transform="translate(0,0)"/>
<path d="" fill="#15232E" transform="translate(0,0)"/>
<path d="" fill="#15232E" transform="translate(0,0)"/>
<path d="" fill="#15232E" transform="translate(0,0)"/>
<path d="" fill="#15232E" transform="translate(0,0)"/>
<path d="" fill="#15232E" transform="translate(0,0)"/>
<path d="" fill="#15232E" transform="translate(0,0)"/>
<path d="" fill="#15232E" transform="translate(0,0)"/>
<path d="" fill="#15232E" transform="translate(0,0)"/>
<path d="" fill="#15232E" transform="translate(0,0)"/>
<path d="" fill="#15232E" transform="translate(0,0)"/>
<path d="" fill="#15232E" transform="translate(0,0)"/>
<path d="" fill="#15232E" transform="translate(0,0)"/>
<path d="" fill="#15232E" transform="translate(0,0)"/>
<path d="" fill="#15232E" transform="translate(0,0)"/>
<path d="" fill="#13232D" transform="translate(0,0)"/>
<path d="" fill="#13232D" transform="translate(0,0)"/>
<path d="" fill="#13232F" transform="translate(0,0)"/>
<path d="" fill="#13232F" transform="translate(0,0)"/>
</svg>
