<?xml version="1.0" encoding="UTF-8"?>
<svg version="1.1" xmlns="http://www.w3.org/2000/svg" width="1024" height="1024">
<path d="M0 0 C0.99531738 0.20431641 1.99063477 0.40863281 3.01611328 0.61914062 C29.99280479 6.23278741 57.10519707 15.16333552 82 27 C83.38058594 27.6482373 83.38058594 27.6482373 84.7890625 28.30957031 C106.78727173 38.71472328 127.6935887 50.91945221 147.125 65.58789062 C148.8431431 66.88186715 150.57366359 68.15591728 152.3125 69.421875 C163.22042935 77.43238561 173.35270003 86.27303062 183.24609375 95.4921875 C185.18395912 97.25688192 187.11836374 98.93563121 189.14453125 100.58984375 C191.45569168 102.54057697 193.33919156 104.36938766 195.25 106.6875 C197.98158473 109.90042125 200.8558389 112.86811689 203.875 115.8125 C208.20498618 120.0900015 212.05672074 124.59802388 215.8515625 129.3515625 C217.83062583 131.79120785 219.8820189 134.1186037 222 136.4375 C226.70148649 141.69210255 230.87217483 147.29045721 235 153 C235.51868652 153.7105957 236.03737305 154.42119141 236.57177734 155.15332031 C245.64853896 167.63157277 253.63595491 180.44673758 261 194 C261.74612549 195.35085693 261.74612549 195.35085693 262.50732422 196.72900391 C283.32857832 234.52563318 296.06349806 275.53445713 303 318 C303.24991699 319.43134277 303.24991699 319.43134277 303.50488281 320.89160156 C309.45813432 355.88390185 307.99735004 394.09932125 302 429 C301.77804864 430.32468879 301.55620808 431.64939614 301.33447266 432.97412109 C298.34262522 450.62216114 294.2835737 467.8949053 289 485 C288.58065186 486.37140137 288.58065186 486.37140137 288.15283203 487.77050781 C283.98703894 501.24793064 278.81585813 514.15564609 273 527 C272.62004883 527.85029785 272.24009766 528.7005957 271.84863281 529.57666016 C260.47671676 554.89626494 245.85189939 578.01832651 229 600 C228.51563477 600.63292969 228.03126953 601.26585937 227.53222656 601.91796875 C222.34247491 608.67704462 217.05218885 615.25845696 211.265625 621.5234375 C209.42051324 623.54033553 207.6358587 625.58697835 205.85546875 627.66015625 C201.47557571 632.67846644 196.78128203 637.3649578 192.0625 642.0625 C191.20720703 642.92166016 190.35191406 643.78082031 189.47070312 644.66601562 C184.47719289 649.65190799 179.39347495 654.4496269 174 659 C173.39583252 659.51087158 172.79166504 660.02174316 172.16918945 660.5480957 C133.52095155 692.91502161 89.81884897 716.2729119 42 732 C40.91605957 732.35932617 39.83211914 732.71865234 38.71533203 733.08886719 C1.17911699 745.35412643 -38.0664095 751.22447832 -77.5 751.25 C-78.44408722 751.25067474 -79.38817444 751.25134949 -80.36087036 751.25204468 C-135.74658823 751.18957805 -191.11674009 738.76310099 -241.296875 715.25830078 C-243.78956711 714.09795621 -246.29571566 712.97795453 -248.8125 711.87109375 C-258.56868665 707.51302651 -267.80728893 702.36433109 -277 696.9375 C-278.12196777 696.27661377 -279.24393555 695.61572754 -280.39990234 694.93481445 C-286.69569686 691.16229359 -292.70546778 687.15978808 -298.59716797 682.78344727 C-301.53344235 680.60406458 -304.53601911 678.55185145 -307.5625 676.5 C-318.32950233 669.10196073 -328.17032459 660.58124296 -338 652 C-338.56058105 651.51080078 -339.12116211 651.02160156 -339.69873047 650.51757812 C-341.26441094 649.14428862 -342.8214743 647.76201237 -344.375 646.375 C-345.71691406 645.18003906 -345.71691406 645.18003906 -347.0859375 643.9609375 C-349 642 -349 642 -349 640 C-349.58934326 639.74041504 -350.17868652 639.48083008 -350.78588867 639.21337891 C-353.15711776 637.91389621 -354.59551183 636.56578239 -356.42578125 634.5859375 C-357.37420898 633.56693359 -357.37420898 633.56693359 -358.34179688 632.52734375 C-358.99212891 631.81707031 -359.64246094 631.10679687 -360.3125 630.375 C-360.95123047 629.68792969 -361.58996094 629.00085938 -362.24804688 628.29296875 C-416.32459585 569.88810431 -449.83047341 496.85196681 -460 418 C-460.11859375 417.12037598 -460.2371875 416.24075195 -460.359375 415.33447266 C-464.35454011 384.48490158 -463.3714981 351.74423038 -459 321 C-458.82307617 319.75089844 -458.64615234 318.50179688 -458.46386719 317.21484375 C-448.0335352 245.80580057 -417.57384763 180.78277695 -370.296875 126.4921875 C-369.18124187 125.20853734 -368.07415251 123.91747062 -366.96875 122.625 C-362.86579033 117.85064692 -358.48925093 113.41002885 -354 109 C-351.18643294 106.20078787 -348.39346557 103.38297001 -345.6171875 100.546875 C-338.40566936 93.20932846 -331.11707903 86.3418169 -323 80 C-321.89499385 79.09636248 -320.79225523 78.18994735 -319.69140625 77.28125 C-245.57792741 16.39614761 -147.0107212 -13.7365849 0 0 Z M-307 107 C-315.96447479 115.93342361 -323.68088947 125.69271891 -331 136 C-331.43022461 136.60537598 -331.86044922 137.21075195 -332.30371094 137.83447266 C-381.18353991 207.33846053 -399.52891422 293.46724963 -385 377 C-377.48495104 417.85205645 -362.50163183 458.53093998 -339 493 C-338.31671631 494.0204541 -338.31671631 494.0204541 -337.61962891 495.06152344 C-330.46381706 505.71417266 -322.64670075 515.52532093 -314 525 C-313.38157227 525.6801416 -312.76314453 526.3602832 -312.12597656 527.06103516 C-302.7686569 537.31054236 -293.16096239 546.77784965 -282.25 555.375 C-281.66420166 555.84196289 -281.07840332 556.30892578 -280.47485352 556.79003906 C-277.44129421 559.18454174 -274.38874091 561.42776054 -271.1328125 563.51171875 C-264.8161748 567.70361761 -260.65358477 570.96357049 -258.87011719 578.57958984 C-258.30236708 581.67402015 -257.8303106 584.7775686 -257.37744141 587.890625 C-255.50678383 598.34501146 -248.89724265 610.04164309 -242 618 C-242 618.33 -242 618.66 -242 619 C-289.53611169 621.70347555 -332.98681313 596.58303899 -368.31298828 567.38769531 C-370.52392841 565.56902908 -372.7586724 563.78101656 -375 562 C-373.48511525 566.24965038 -371.32167407 569.92310757 -368.875 573.6875 C-368.28102417 574.60680298 -368.28102417 574.60680298 -367.67504883 575.54467773 C-364.1137692 580.97561144 -360.16260062 586.01735815 -356 591 C-354.95779297 592.37478516 -354.95779297 592.37478516 -353.89453125 593.77734375 C-353.26933594 594.51082031 -352.64414062 595.24429688 -352 596 C-351.34 596 -350.68 596 -350 596 C-350 596.66 -350 597.32 -350 598 C-348.38601889 599.71773704 -346.70884005 601.37660195 -345 603 C-343.7934375 604.16789063 -343.7934375 604.16789063 -342.5625 605.359375 C-335.82123778 611.64847939 -328.75733415 617.02410813 -321 622 C-319.41638672 623.01900391 -319.41638672 623.01900391 -317.80078125 624.05859375 C-292.40732509 639.47497601 -263.54840559 644.45900378 -234.25 644.3125 C-233.46663269 644.31034485 -232.68326538 644.3081897 -231.87615967 644.30596924 C-206.59726023 644.19484614 -184.21856021 638.59645642 -160.24633789 630.953125 C-158.72674825 630.46867789 -157.20713548 629.98430329 -155.6875 629.5 C-154.93338837 629.25958984 -154.17927673 629.01917969 -153.40231323 628.77148438 C-127.58109065 620.56345025 -101.18316811 613.97511621 -73.95703125 613.76171875 C-72.92276505 613.75201553 -71.88849884 613.74231232 -70.82289124 613.73231506 C-67.48605424 613.7074565 -64.1494203 613.69479225 -60.8125 613.6875 C-59.67161926 613.68488159 -58.53073853 613.68226318 -57.35528564 613.67956543 C-38.84972662 613.67501869 -21.24288235 614.86044082 -3 618 C-0.65418809 618.37708682 1.69217043 618.75078897 4.0390625 619.12109375 C7.2709834 619.63132447 10.50115692 620.1452983 13.72705078 620.69238281 C35.6096882 624.38306486 58.24509636 624.50562109 80 620 C80.97678711 619.80132324 81.95357422 619.60264648 82.95996094 619.39794922 C112.54787785 613.22802278 139.71728171 601.08319783 164 583 C165.22976563 582.09894531 165.22976563 582.09894531 166.484375 581.1796875 C179.36508864 571.44863741 191.44395122 560.71179778 201.52734375 548.0859375 C203.26546513 545.91671808 205.02021654 543.7834568 206.81640625 541.6640625 C214.51126284 532.48016499 220.75907609 522.73458218 226.67626953 512.32617188 C227.83812249 510.28446494 229.02303061 508.25864407 230.21484375 506.234375 C238.57097447 491.69264231 244.23589555 475.28800476 248.41674805 459.08837891 C250.03912731 453.01430214 250.03912731 453.01430214 253 451 C256.34192692 451.24453124 257.60543557 451.60543557 260 454 C260.66672423 462.30580186 259.94419394 470.73830303 259 479 C286.66773553 437.49839671 279.35012853 352.16604576 270.22460938 306.08447266 C265.46970709 283.29739704 259.08648987 261.42190273 250 240 C249.68836914 239.25572754 249.37673828 238.51145508 249.05566406 237.74462891 C240.34291935 217.03226805 229.73163541 197.51093957 217 179 C216.53287598 178.32050293 216.06575195 177.64100586 215.58447266 176.94091797 C210.35601947 169.38744352 204.86535443 162.07324746 199 155 C198.19175781 154.01773438 197.38351562 153.03546875 196.55078125 152.0234375 C185.35277542 138.53096278 173.43253457 125.26721899 160.11328125 113.8359375 C157.80426107 111.82994955 155.56250055 109.75939065 153.3125 107.6875 C79.53019498 41.56080257 -28.8787538 10.7356685 -307 107 Z M195 591 C194.13375 591.928125 193.2675 592.85625 192.375 593.8125 C186.72836404 599.44777452 180.35550098 604.20149609 174 609 C173.42830078 609.43248047 172.85660156 609.86496094 172.26757812 610.31054688 C123.73160525 646.72655427 66.559982 657.30589759 7.27494812 648.92576599 C-1.75977944 647.61881735 -10.7759535 646.18523001 -19.77685547 644.66333008 C-66.96177075 636.69114473 -111.83632143 645.7364375 -156.82785034 660.06542969 C-171.05692047 664.5915186 -185.18297933 668.83456313 -200 671 C-201.16104248 671.17740723 -202.32208496 671.35481445 -203.51831055 671.53759766 C-209.05378415 672.21507593 -214.58761976 672.12387656 -220.15625 672.09765625 C-221.29912476 672.0962413 -222.44199951 672.09482635 -223.61950684 672.09336853 C-227.24636525 672.08780025 -230.87316045 672.07525362 -234.5 672.0625 C-236.9687491 672.0574809 -239.43749918 672.05291871 -241.90625 672.04882812 C-247.93752133 672.03784121 -253.96875615 672.02113485 -260 672 C-236.47095526 690.02013286 -205.80538477 693.94382147 -177.15234375 690.38671875 C-160.37637107 687.79755036 -144.14840431 682.22299444 -128.015625 677.1015625 C-109.673874 671.32278257 -90.53924041 665.94861055 -71.19140625 665.76171875 C-70.35603333 665.7519249 -69.5206604 665.74213104 -68.65997314 665.73204041 C-50.43186729 665.56243294 -32.8163578 665.66947614 -15 670 C-14.06752441 670.21962402 -13.13504883 670.43924805 -12.17431641 670.66552734 C21.58031982 678.77008146 21.58031982 678.77008146 29 686 C29.3125 689.125 29.3125 689.125 29 692 C27.40469549 693.59530451 25.75271387 693.1691371 23.54663086 693.18554688 C18.24313286 693.13238074 13.40679877 692.19770041 8.25390625 691.03125 C-2.90145929 688.72555218 -13.70379254 688.37049501 -25.0625 688.5 C-26.52976532 688.50930542 -26.52976532 688.50930542 -28.02667236 688.51879883 C-65.34162884 688.794852 -102.72204056 696.77413789 -137.03515625 711.71875 C-139.72985755 712.8832586 -142.10849319 713.56189291 -145 714 C-128.51427445 723.9342554 -98.49174139 721.3886112 -79.9375 721.3125 C-78.95766144 721.31001251 -77.97782288 721.30752502 -76.96829224 721.30496216 C-2.65322969 721.01478965 74.94510385 697.7370414 134.33447266 652.26416016 C135.92913377 651.05378853 137.54811433 649.87566049 139.16796875 648.69921875 C145.58855001 644.02290924 151.46373705 638.99474113 157.24609375 633.5703125 C159.56200146 631.40879863 161.91043872 629.3141991 164.3125 627.25 C170.00135448 622.30163691 175.12081378 616.9543779 180.0390625 611.24609375 C183.18434472 607.64342986 186.43210215 604.13451561 189.66796875 600.61328125 C191.87413608 598.14104349 193.95639461 595.6073586 196 593 C195.67 592.34 195.34 591.68 195 591 Z " fill="#191E1D" transform="translate(578,153)"/>
<path d="M0 0 C5.6854538 5.80923 9.61936263 12.59657943 13.625 19.625 C13.97182831 20.23070831 14.31865662 20.83641663 14.67599487 21.46047974 C22.45180156 35.12897166 28.49271023 49.26942153 34 64 C34.36448242 64.97050293 34.72896484 65.94100586 35.10449219 66.94091797 C44.39180254 92.093677 48.42614757 117.7100522 48.375 144.4375 C48.37512085 145.40844604 48.3752417 146.37939209 48.37536621 147.37976074 C48.34890883 162.31464607 47.46156094 176.42126524 44 191 C43.70580661 192.39139524 43.41399965 193.78329798 43.125 195.17578125 C39.14314912 212.86302065 32.8252957 230.16489801 24 246 C23.66419922 246.61746094 23.32839844 247.23492188 22.98242188 247.87109375 C11.95381711 268.00300605 -4.32756127 286.09326681 -21.69140625 300.9765625 C-25.31428551 304.15194568 -28.82655994 307.44691242 -32.34472656 310.73754883 C-34.73869944 312.96505098 -37.12546333 315.09975064 -39.6875 317.13671875 C-45.70454357 321.98491095 -50.29037059 328.56626662 -55.06640625 334.58984375 C-57.63695542 337.79394241 -60.30472786 340.90043704 -63 344 C-67.75 343.25 -67.75 343.25 -70 341 C-72.49175536 321.02224212 -52.36071285 296.54585717 -41.01171875 281.86328125 C-40.0081679 280.57524385 -39.00425839 279.28748582 -38 278 C-25.72866794 262.16065528 -16.30809105 246.24637491 -8 228 C-19.70694303 233.66708528 -29.70043013 242.90761441 -39.32373047 251.50292969 C-40.81488748 252.83467667 -42.31502812 254.15634927 -43.81640625 255.4765625 C-54.37535771 264.82924877 -63.64038042 274.66159487 -72 286 C-72.61029053 286.81984375 -72.61029053 286.81984375 -73.23291016 287.65625 C-82.98004692 300.93437982 -89.92351489 315.97017153 -97.32519531 330.62353516 C-105.57864285 346.90892978 -115.22248322 360.93372578 -128 374 C-128.68578125 374.74765625 -129.3715625 375.4953125 -130.078125 376.265625 C-143.83738388 390.94987608 -162.60415618 400.0213058 -182.66796875 400.7734375 C-184.7013622 400.87371008 -186.73472714 400.97456236 -188.76806641 401.07592773 C-189.81681946 401.12417694 -190.86557251 401.17242615 -191.94610596 401.22213745 C-207.76196919 401.96800578 -223.48443586 402.901694 -239.125 405.4375 C-240.33438232 405.63069824 -241.54376465 405.82389648 -242.78979492 406.02294922 C-250.19145788 407.2995472 -257.32523936 409.10194043 -264.52294922 411.21508789 C-268.15113632 412.03411763 -271.29291748 412.22451547 -275 412 C-280.52214488 407.87486552 -282.50849453 398.05896599 -283.67480469 391.56054688 C-288.80100509 351.19749144 -270.59574428 317.86498045 -248 286 C-251.06187835 286.60178559 -253.05121898 287.53643198 -255.5390625 289.40625 C-256.19704834 289.89810791 -256.85503418 290.38996582 -257.53295898 290.89672852 C-258.22333252 291.42580811 -258.91370605 291.9548877 -259.625 292.5 C-260.33922119 293.04390381 -261.05344238 293.58780762 -261.78930664 294.14819336 C-283.2737907 310.66407175 -303.15748614 335.248511 -307 363 C-308.88172019 379.93548171 -308.34162353 396.98760696 -301.3671875 412.796875 C-300 416 -300 416 -300 418.25 C-301.91034646 421.59310631 -305.4068857 422.80132496 -308.93505859 423.9831543 C-312.41296078 424.89345463 -315.89077116 425.80164776 -319.375 426.6875 C-320.5815625 427.00783203 -321.788125 427.32816406 -323.03125 427.65820312 C-324.20429688 427.96048828 -325.37734375 428.26277344 -326.5859375 428.57421875 C-327.6486084 428.84838623 -328.7112793 429.12255371 -329.80615234 429.4050293 C-334.48893831 430.27736911 -338.47430531 430.93993691 -342.625 428.3828125 C-356.8418378 414.86746341 -365.53353295 397.90053443 -366.28125 378.1171875 C-366.52787206 366.77599824 -366.47139545 355.88577214 -363 345 C-362.80132324 344.37367676 -362.60264648 343.74735352 -362.39794922 343.10205078 C-350.98961089 308.02247861 -322.78846871 281.35448368 -291.39794922 263.37890625 C-260.90319672 246.08010021 -260.90319672 246.08010021 -233 225 C-232.175 224.29617188 -231.35 223.59234375 -230.5 222.8671875 C-213.49454297 208.04055465 -201.32433221 190.45921436 -192 170 C-191.59265625 169.1234375 -191.1853125 168.246875 -190.765625 167.34375 C-179.1349825 140.50380577 -179.16970067 107.35362318 -189 80 C-191.74393121 73.19988302 -194.82855775 66.4743076 -198.71875 60.25 C-200.54666822 57.03999726 -200.40245045 54.62205408 -200 51 C-198.8125 49.0625 -198.8125 49.0625 -197 48 C-194.28161425 47.72288301 -192.6397547 47.57149919 -190.33203125 49.1171875 C-183.90068799 56.55704474 -179.50397999 65.31673289 -175 74 C-174.63729004 74.69270996 -174.27458008 75.38541992 -173.90087891 76.09912109 C-169.40232067 84.79774499 -165.85621622 93.73681064 -162.6875 103 C-162.19902588 104.40403076 -162.19902588 104.40403076 -161.70068359 105.83642578 C-156.75503978 120.85338586 -155.44009244 135.60914057 -155.5625 151.3125 C-155.56620605 152.16884033 -155.56991211 153.02518066 -155.57373047 153.9074707 C-155.65219876 166.6561894 -156.184286 178.74874108 -160 191 C-160.26844727 191.89460937 -160.53689453 192.78921875 -160.81347656 193.7109375 C-166.74590184 213.10464672 -175.48814179 230.31793222 -186.30541992 247.40429688 C-191.10986391 255.0318971 -195.16749525 262.85021066 -199 271 C-199.70189453 272.36705078 -199.70189453 272.36705078 -200.41796875 273.76171875 C-207.26729645 287.52359871 -210.20528013 303.18199211 -210.0625 318.4375 C-210.05573242 319.82098633 -210.05573242 319.82098633 -210.04882812 321.23242188 C-210.03713938 323.48835048 -210.02075455 325.74413967 -210 328 C-209.53851563 327.21238281 -209.07703125 326.42476562 -208.6015625 325.61328125 C-187.31224925 290.0609696 -155.77500513 270.71602003 -120.578125 250.73828125 C-108.46287101 243.86154117 -96.44682563 236.95841307 -85 229 C-84.4421582 228.61344238 -83.88431641 228.22688477 -83.30957031 227.82861328 C-69.89616258 218.59490369 -69.89616258 218.59490369 -57.8203125 207.7421875 C-56 206 -56 206 -54 206 C-53.773125 205.443125 -53.54625 204.88625 -53.3125 204.3125 C-51.633288 201.35388838 -49.42723538 199.38163703 -47 197 C-25.21374355 174.79840764 -8.98915692 145.34703767 -1.53515625 115.14453125 C-1.17973015 113.72023248 -0.80480318 112.30065245 -0.41015625 110.88671875 C3.18872751 97.83194433 3.39691448 84.75973349 3.4375 71.3125 C3.4436734 70.44439697 3.4498468 69.57629395 3.45620728 68.68188477 C3.54333274 49.60343438 1.20453401 30.86596988 -6.6328125 13.27734375 C-8.19039716 9.54359081 -8.46238292 7.00731865 -8 3 C-5.9633381 -0.32297468 -3.72981702 -0.86739931 0 0 Z " fill="#171D1C" transform="translate(708,341)"/>
<path d="M0 0 C2.51059119 2.21359696 4.93958208 4.48806283 7.3515625 6.80859375 C8.28097656 7.68644531 9.21039063 8.56429687 10.16796875 9.46875 C16.05168183 15.16034184 21.04999126 20.84506363 25.3515625 27.80859375 C25.87314941 28.6289209 25.87314941 28.6289209 26.40527344 29.46582031 C41.70781029 53.76672662 46.48800679 83.27165171 41.32592773 111.53930664 C40.5286502 115.0382184 39.52622991 118.41857217 38.3515625 121.80859375 C38.07248047 122.62070312 37.79339844 123.4328125 37.50585938 124.26953125 C32.09326718 139.57647989 24.80733403 152.33195882 14.3515625 164.80859375 C13.65546875 165.72640625 12.959375 166.64421875 12.2421875 167.58984375 C11.61828125 168.32203125 10.994375 169.05421875 10.3515625 169.80859375 C9.6915625 169.80859375 9.0315625 169.80859375 8.3515625 169.80859375 C8.14015625 170.3603125 7.92875 170.91203125 7.7109375 171.48046875 C5.87346551 174.62740354 3.36171666 176.74725832 0.6015625 179.05859375 C0.02809082 179.54021973 -0.54538086 180.0218457 -1.13623047 180.51806641 C-7.20343249 185.47017952 -13.70284894 189.23353816 -20.6484375 192.80859375 C-21.52628906 193.27910156 -22.40414062 193.74960937 -23.30859375 194.234375 C-31.89584066 198.52136225 -41.33648484 200.65984525 -50.6484375 202.80859375 C-51.41607422 202.98962646 -52.18371094 203.17065918 -52.97460938 203.35717773 C-82.0393827 208.26411399 -112.09892506 201.69529977 -136.6484375 185.80859375 C-163.28486866 166.7878273 -180.11923236 140.54010755 -186.28515625 108.5 C-189.37557704 77.09733718 -184.09038596 46.8133512 -163.79663086 21.97851562 C-141.76539679 -4.33432549 -114.40390639 -20.37305221 -80.01318359 -23.98486328 C-51.28511307 -26.4940464 -22.28059962 -18.43571738 0 0 Z M-111.1484375 6.74609375 C-111.85460205 7.06167236 -112.5607666 7.37725098 -113.28833008 7.70239258 C-126.59362344 13.84017507 -136.69182156 22.28853256 -145.6484375 33.80859375 C-146.27234375 34.60523438 -146.89625 35.401875 -147.5390625 36.22265625 C-157.07767494 49.06970633 -164.04686234 65.71645823 -164.6484375 81.80859375 C-164.7 82.96617187 -164.7515625 84.12375 -164.8046875 85.31640625 C-165.44580378 112.61727467 -155.82833539 137.59120623 -137.08984375 157.53125 C-119.85274543 174.10242773 -97.44132397 182.41940283 -73.6550293 182.19970703 C-71.58380612 182.18357715 -69.5145252 182.19967894 -67.44335938 182.21875 C-56.78986532 182.23641998 -47.05437522 180.8220108 -37.3984375 176.12109375 C-36.48578125 175.68410156 -35.573125 175.24710938 -34.6328125 174.796875 C-33.97796875 174.47074219 -33.323125 174.14460937 -32.6484375 173.80859375 C-36.1633652 172.63695118 -37.95882132 173.35789453 -41.44140625 174.30175781 C-45.00596595 175.12034475 -48.50321612 175.19019816 -52.1484375 175.18359375 C-52.8902124 175.18488281 -53.6319873 175.18617188 -54.39624023 175.1875 C-60.0643122 175.07764639 -63.89573499 174.04447631 -68.6484375 170.80859375 C-67.8128095 166.18449682 -65.0000874 164.03183058 -61.5859375 161.05859375 C-61.01810547 160.55199219 -60.45027344 160.04539062 -59.86523438 159.5234375 C-58.466451 158.27746239 -57.05833017 157.04198402 -55.6484375 155.80859375 C-55.9784375 155.14859375 -56.3084375 154.48859375 -56.6484375 153.80859375 C-57.43347656 154.21851563 -58.21851563 154.6284375 -59.02734375 155.05078125 C-70.16885518 160.76507791 -80.09304343 163.94822397 -92.71875 161.12109375 C-98.88116996 159.06123193 -103.80381238 156.10608462 -108.6484375 151.80859375 C-109.32777344 151.21046875 -110.00710938 150.61234375 -110.70703125 149.99609375 C-119.08210957 142.14346833 -124.44967994 133.1514558 -125.01953125 121.515625 C-125.35453648 105.70898388 -123.68873025 95.36305087 -112.57104492 83.72583008 C-111.27462319 82.40904925 -109.96217683 81.10809751 -108.6484375 79.80859375 C-108.04257812 79.20144531 -107.43671875 78.59429687 -106.8125 77.96875 C-106.42835938 77.58589844 -106.04421875 77.20304687 -105.6484375 76.80859375 C-109.25899488 77.42219474 -112.34228874 78.45351757 -115.7109375 79.87109375 C-121.72897303 82.0942652 -127.28289333 82.73431756 -133.6484375 81.80859375 C-137.85298525 79.66341633 -139.23823809 77.08325296 -141.01342773 72.78198242 C-144.44856815 62.1067652 -141.46021414 49.45473752 -136.6484375 39.80859375 C-127.56724106 23.98136567 -115.27476521 13.77191878 -99.6484375 4.80859375 C-104.11427837 3.37602733 -107.04627381 4.87592561 -111.1484375 6.74609375 Z M-73.6484375 22.80859375 C-74.87329562 25.25830999 -74.81566558 26.95093836 -74.8359375 29.68359375 C-74.85011719 30.54726563 -74.86429687 31.4109375 -74.87890625 32.30078125 C-74.62976196 35.01180891 -74.19292413 36.57106824 -72.6484375 38.80859375 C-68.24310153 40.4512614 -65.57276826 40.90102683 -60.8984375 40.43359375 C-57.07104477 38.51989738 -55.75613078 36.99943836 -54.12890625 33.10546875 C-53.3919061 29.58224853 -53.8992111 27.04423712 -55.2734375 23.74609375 C-57.41696792 20.72566452 -59.68546021 19.78230087 -63.22265625 18.90234375 C-67.32020234 18.74398448 -70.44125548 20.34593613 -73.6484375 22.80859375 Z M7.1015625 68.74609375 C4.11899171 70.65286051 4.11899171 70.65286051 2.7890625 74.05859375 C2.24855334 78.69152938 2.87946135 80.86868254 5.3515625 84.80859375 C8.04212846 86.64996107 8.04212846 86.64996107 11.3515625 86.80859375 C14.01389464 86.12259406 15.89666188 85.15638233 18.3515625 83.80859375 C19.94791183 80.61589509 19.72372576 77.28211748 19.3515625 73.80859375 C17.86649938 70.67346049 16.63538857 69.95366041 13.5390625 68.37109375 C10.31471293 67.56110513 10.31471293 67.56110513 7.1015625 68.74609375 Z M-60.02734375 76.34765625 C-63.27681092 81.12561843 -63.50755401 86.20680345 -62.6484375 91.80859375 C-61.222523 96.47886426 -59.42074032 99.19390375 -55.5859375 102.24609375 C-49.63626166 105.41081494 -43.86441698 105.70053087 -37.4609375 103.80859375 C-32.73115012 101.83474547 -30.62248624 98.40336236 -28.6484375 93.80859375 C-26.8150478 86.96393889 -28.1653861 81.61579818 -31.3984375 75.49609375 C-34.60573026 71.66516073 -37.21656557 70.14376752 -42.19921875 69.45703125 C-49.73642892 69.06088466 -54.93631696 70.6653204 -60.02734375 76.34765625 Z M-91.0859375 114.49609375 C-92.89496416 117.1734532 -93.57306853 118.56772795 -93.6484375 121.80859375 C-92.21867974 126.13337465 -92.21867974 126.13337465 -89.6484375 129.80859375 C-87.3862017 130.04706278 -87.3862017 130.04706278 -84.7734375 130.05859375 C-83.44699219 130.09726562 -83.44699219 130.09726562 -82.09375 130.13671875 C-79.61182318 130.01140353 -79.61182318 130.01140353 -77.9140625 128.46875 C-76.00417421 125.9634953 -75.25521743 123.90317139 -74.6484375 120.80859375 C-76.11340912 116.79919773 -77.07247553 115.1925684 -80.6484375 112.80859375 C-86.24093559 112.17850891 -86.24093559 112.17850891 -91.0859375 114.49609375 Z " fill="#181E1D" transform="translate(437.6484375,268.19140625)"/>
<path d="M0 0 C4.78170821 2.21841433 7.8209883 6.87189005 11.00390625 10.9296875 C11.45926758 11.50170898 11.91462891 12.07373047 12.38378906 12.66308594 C53.60880479 64.78827532 77.20232868 130.80502977 77.25390625 197.2421875 C77.25458099 198.03204041 77.25525574 198.82189331 77.25595093 199.63568115 C77.23757818 213.26551088 76.33351292 226.48150355 74.00390625 239.9296875 C73.82698242 240.9830127 73.65005859 242.03633789 73.46777344 243.12158203 C68.48843684 272.28811066 60.24565634 300.85665879 46.00390625 326.9296875 C45.52703369 327.82107422 45.52703369 327.82107422 45.04052734 328.73046875 C37.3342897 343.08729504 27.74066643 355.72372859 17.00390625 367.9296875 C16.20726562 368.83847656 15.410625 369.74726562 14.58984375 370.68359375 C6.66037632 379.60765074 -1.6004016 387.55560367 -10.99609375 394.9296875 C-11.57891113 395.3942334 -12.16172852 395.8587793 -12.76220703 396.33740234 C-31.71622837 411.38634877 -52.56139674 421.54839142 -75.62109375 428.7421875 C-76.50176514 429.02022217 -77.38243652 429.29825684 -78.28979492 429.5847168 C-93.38865562 434.09829923 -107.93251727 435.42312217 -123.62573242 435.32080078 C-126.5589024 435.3046858 -129.49069896 435.32076092 -132.42382812 435.33984375 C-161.73807332 435.37499901 -161.73807332 435.37499901 -168.99609375 428.9296875 C-167.51970964 425.30291785 -165.58177437 423.54277203 -162.49609375 421.1796875 C-161.59503906 420.47714844 -160.69398438 419.77460937 -159.765625 419.05078125 C-158.03674366 417.72668736 -156.30538393 416.4058158 -154.5703125 415.08984375 C-153.38888672 414.17525391 -153.38888672 414.17525391 -152.18359375 413.2421875 C-151.34570312 412.60152344 -150.5078125 411.96085937 -149.64453125 411.30078125 C-147.50619102 409.3863675 -145.99531299 407.71814822 -144.28515625 405.46484375 C-137.09201072 396.37296919 -137.09201072 396.37296919 -131.42480469 395.56152344 C-125.44844776 395.5968128 -119.59660216 396.59509735 -113.70947266 397.54931641 C-83.30747027 401.8111771 -48.58574449 383.53636395 -24.99609375 365.9296875 C-5.34900565 350.68321501 10.46962749 330.99272877 20.00390625 307.9296875 C19.59140625 308.35378906 19.17890625 308.77789063 18.75390625 309.21484375 C11.34552393 316.73898204 3.35550156 323.47564961 -4.99609375 329.9296875 C-5.96675781 330.69152344 -6.93742188 331.45335937 -7.9375 332.23828125 C-19.16599819 340.79283332 -38.79671007 355.55187548 -53.37109375 354.7421875 C-55.99609375 353.9296875 -55.99609375 353.9296875 -57.99609375 351.9296875 C-58.359375 349.546875 -58.359375 349.546875 -57.99609375 346.9296875 C-53.48602681 341.25034395 -46.8878838 337.51470156 -40.80078125 333.74609375 C-25.54212934 323.86409774 -12.39604244 309.73550424 -1.99609375 294.9296875 C-1.60147949 294.37410156 -1.20686523 293.81851562 -0.80029297 293.24609375 C10.90942664 276.63495955 20.88971493 258.98348243 28.00390625 239.9296875 C28.30635254 239.12660156 28.60879883 238.32351563 28.92041016 237.49609375 C50.64521737 178.82173442 47.35519388 115.08858949 21.85449219 58.01489258 C14.62550107 42.36261504 5.90859409 27.840436 -4.41357422 14.03369141 C-7.94463105 9.26419505 -7.94463105 9.26419505 -8.49609375 5.6796875 C-7.99609375 2.9296875 -7.99609375 2.9296875 -6.93359375 0.9921875 C-4.52815699 -0.32692298 -2.69112012 -0.55058407 0 0 Z " fill="#1A1F1F" transform="translate(748.99609375,316.0703125)"/>
<path d="M0 0 C2.69042969 1.11645508 2.69042969 1.11645508 5.421875 2.51953125 C6.43862305 3.04119873 7.45537109 3.56286621 8.50292969 4.1003418 C9.57446289 4.665354 10.64599609 5.23036621 11.75 5.8125 C12.86020508 6.39491455 13.97041016 6.9773291 15.11425781 7.57739258 C24.86038444 12.77443659 34.05218206 18.53402539 43 25 C43.59699707 25.42877441 44.19399414 25.85754883 44.80908203 26.29931641 C53.45997496 32.57151968 61.3135994 39.59592816 69 47 C69.52513184 47.50321777 70.05026367 48.00643555 70.59130859 48.52490234 C102.19603737 78.955098 125.87496644 121.60038567 127.17700195 166.29101562 C127.2031464 167.82934053 127.2233117 169.36777577 127.23828125 170.90625 C127.24812042 171.74011734 127.25795959 172.57398468 127.26809692 173.43312073 C127.4382433 191.60051583 127.43959401 209.26379024 123 227 C122.75862305 227.97598145 122.51724609 228.95196289 122.26855469 229.95751953 C108.68260611 283.26741463 77.00542262 322.75323344 31 352 C29.89269531 352.71671875 28.78539062 353.4334375 27.64453125 354.171875 C17.8628962 360.24742472 17.8628962 360.24742472 12 359 C10 357.875 10 357.875 9 356 C8.8125 353.25 8.8125 353.25 10 350 C12.43482507 347.37834429 15.19362683 345.21093399 18 343 C35.6090239 328.98742414 46.21397482 305.90661705 50 284 C50.15588808 282.33303244 50.28433039 280.66329449 50.38671875 278.9921875 C50.43892578 278.15042969 50.49113281 277.30867188 50.54492188 276.44140625 C50.64035296 274.7236467 50.71572367 273.00466074 50.77148438 271.28515625 C51.19103901 265.28229767 52.67486123 262.53821168 57.18383789 258.57373047 C57.78317139 258.05439941 58.38250488 257.53506836 59 257 C77.85867143 235.37308322 89.95881297 205.13219343 90.23828125 176.3671875 C90.24812042 175.54165878 90.25795959 174.71613007 90.26809692 173.86558533 C90.67060365 149.14359366 90.67060365 149.14359366 86 125 C85.75862305 124.16629883 85.51724609 123.33259766 85.26855469 122.47363281 C77.30696756 95.26403252 64.05756498 71.71010316 44.6875 51.03125 C43 49 43 49 43 47 C42.34 47 41.68 47 41 47 C41 46.34 41 45.68 41 45 C40.11199707 44.60615112 40.11199707 44.60615112 39.20605469 44.2043457 C36.89558165 42.94299516 35.49367488 41.64519846 33.703125 39.73046875 C30.2850586 36.21705246 26.68439226 33.22669695 22.75 30.3125 C22.07541748 29.80775146 21.40083496 29.30300293 20.70581055 28.78295898 C14.48415609 24.20532101 7.99520132 20.0865004 1.38378906 16.09692383 C-2.97491023 13.43538036 -6.66438379 10.89374097 -10 7 C-10.5625 4.375 -10.5625 4.375 -10 2 C-6.82077455 -1.66833706 -4.46202961 -1.01785356 0 0 Z " fill="#1A1F1E" transform="translate(562,209)"/>
<path d="M0 0 C-4.23397653 26.2311879 -19.75268221 52.89534511 -41 69 C-61.95495145 83.90824904 -85.04522598 90.61178112 -110.0625 95.375 C-111.88625556 95.7321149 -113.70982444 96.09018451 -115.53320312 96.44921875 C-128.58514993 99 -128.58514993 99 -131 99 C-127.47687962 88.07031973 -115.64334652 78.96849362 -105.85205078 73.88476562 C-96.13820095 68.99734351 -86.21418584 64.63632442 -76.1875 60.4375 C-62.98707599 54.87846197 -50.79506745 48.53161721 -40 39 C-39.24074219 38.34902344 -38.48148438 37.69804688 -37.69921875 37.02734375 C-26.47074894 27.19554122 -15.81349644 16.49303305 -6.328125 4.96875 C-5.78671875 4.3190625 -5.2453125 3.669375 -4.6875 3 C-3.98173828 2.13375 -3.98173828 2.13375 -3.26171875 1.25 C-2 0 -2 0 0 0 Z " fill="#797979" transform="translate(593,633)"/>
<path d="M0 0 C2.88260081 0.59130273 3.62170719 1.23152523 5.4375 3.5 C6.00585938 5.59716797 6.00585938 5.59716797 6.28125 7.9921875 C6.39339844 8.86230469 6.50554688 9.73242188 6.62109375 10.62890625 C6.77771484 11.98822266 6.77771484 11.98822266 6.9375 13.375 C7.81301752 21.38880479 7.81301752 21.38880479 11.4375 28.5 C11.4375 29.16 11.4375 29.82 11.4375 30.5 C12.62988281 30.68175781 13.82226562 30.86351562 15.05078125 31.05078125 C16.61729082 31.30404926 18.18369162 31.55799072 19.75 31.8125 C20.53568359 31.93044922 21.32136719 32.04839844 22.13085938 32.16992188 C22.88818359 32.29560547 23.64550781 32.42128906 24.42578125 32.55078125 C25.12227783 32.66075439 25.81877441 32.77072754 26.53637695 32.8840332 C28.88012159 33.64341008 29.91958223 34.57460307 31.4375 36.5 C31.9375 39.4375 31.9375 39.4375 31.4375 42.5 C26.94201701 46.94580915 22.52830683 47.53375417 16.49609375 48.59375 C12.97334185 49.63752834 11.63203017 50.57730765 9.4375 53.5 C8.31842804 56.31015016 8.31842804 56.31015016 7.6875 59.375 C7.44515625 60.38304687 7.2028125 61.39109375 6.953125 62.4296875 C6.3446507 65.50763487 6.3446507 65.50763487 6.46484375 68.703125 C6.4375 71.5 6.4375 71.5 4.75 74.375 C2.4375 76.5 2.4375 76.5 -0.125 77 C-3.1067575 76.38835744 -3.76369417 75.94402966 -5.5625 73.5 C-6.31087417 70.2172766 -6.82817146 66.98624292 -7.29101562 63.65625 C-8.11355073 58.47768579 -9.49789671 54.80233549 -12.5625 50.5 C-17.08682499 47.89301876 -22.62345138 47.33894105 -27.69921875 46.28125 C-30.5625 45.5 -30.5625 45.5 -32.5625 43.5 C-32.9375 40.0625 -32.9375 40.0625 -32.5625 36.5 C-28.61154637 32.43226942 -23.223219 32.34221856 -17.875 31.44140625 C-13.5558358 30.21390793 -11.86608302 28.37869317 -9.3671875 24.77734375 C-7.90166987 20.62978657 -7.83460041 16.15240217 -7.52734375 11.78710938 C-7.03259561 6.48023543 -6.00884939 1.17245842 0 0 Z " fill="#1F2423" transform="translate(593.5625,342.5)"/>
<path d="M0 0 C1.6328125 1.07421875 1.6328125 1.07421875 3 3 C3.5546875 6.29296875 3.5546875 6.29296875 3.875 10.1875 C4.53716751 16.1960037 5.18110264 21.86951655 10 26 C12.96588246 27.25757868 15.80712758 27.69383415 19 28 C25.58064516 28.74297607 25.58064516 28.74297607 27.9375 30.1875 C29.5339636 32.91087907 29.38630872 34.90953021 29 38 C26.22490046 42.10143388 21.1538419 42.35638984 16.625 43.28515625 C11.73646424 44.42451618 9.09989274 46.05887242 6 50 C5.03031454 52.38973937 5.03031454 52.38973937 4.75 54.875 C4.60820312 55.74125 4.46640625 56.6075 4.3203125 57.5 C4.04865294 59.62026975 3.8309028 61.74733773 3.625 63.875 C3 67 3 67 1.25 69.5 C-1 71 -1 71 -3.5625 70.9375 C-6.28287119 69.89120339 -7.2694092 69.32982585 -9 67 C-9.625 63.63671875 -9.625 63.63671875 -10 59.6875 C-10.49815476 54.47244239 -11.12964678 50.4510316 -14 46 C-15.90139841 44.73122204 -15.90139841 44.73122204 -18.125 44.25 C-19.30642578 43.91935547 -19.30642578 43.91935547 -20.51171875 43.58203125 C-23.71347418 42.833112 -26.91895574 42.12611931 -30.15234375 41.52734375 C-32 41 -32 41 -34 39 C-34.55776066 32.8646327 -34.55776066 32.8646327 -32.94921875 30.37109375 C-29.56930859 27.99364191 -25.45353322 27.80140227 -21.44921875 27.18359375 C-17.56681966 26.519329 -17.56681966 26.519329 -14.15625 24.65625 C-10.67017189 19.66267866 -10.38187489 14.69267638 -9.87695312 8.75585938 C-9.33279983 3.47610174 -9.33279983 3.47610174 -7.62109375 1.02734375 C-5.02681418 -0.61674185 -2.98325278 -0.3729066 0 0 Z " fill="#1E2323" transform="translate(282,493)"/>
<path d="M0 0 C3.625 0.375 3.625 0.375 5.5 2.625 C6.625 5.375 6.625 5.375 6.9375 7.5625 C7.164375 8.160625 7.39125 8.75875 7.625 9.375 C10.55414165 10.54582878 10.55414165 10.54582878 13.625 11.375 C15.625 13.375 15.625 13.375 15.6875 15.75 C14.34027381 19.07844117 12.52566787 19.70467051 9.41015625 21.265625 C6.59548521 23.014786 5.25301119 25.55728832 3.625 28.375 C2.625 29.375 2.625 29.375 0.3125 29.75 C-2.375 29.375 -2.375 29.375 -4.5625 27.0625 C-5.83866677 25.17025272 -7.1089703 23.27404455 -8.375 21.375 C-9.550625 20.92125 -10.72625 20.4675 -11.9375 20 C-15.375 18.375 -15.375 18.375 -16.5 15.875 C-16.375 13.375 -16.375 13.375 -15.3125 11.75 C-13.375 10.375 -13.375 10.375 -10.375 9.0625 C-6.72822238 7.01118759 -5.94394918 5.17350855 -4.375 1.375 C-3.375 0.375 -3.375 0.375 0 0 Z " fill="#212726" transform="translate(525.375,267.625)"/>
<path d="M0 0 C2.4375 0.625 2.4375 0.625 4.25 3 C5.4375 5.625 5.4375 5.625 5.4375 7.625 C6.22125 7.91375 7.005 8.2025 7.8125 8.5 C10.4375 9.625 10.4375 9.625 12.4375 11.625 C12.4375 13.5 12.4375 13.5 11.4375 15.625 C9.44419158 16.96831654 7.44365134 18.30094012 5.4375 19.625 C4.9425 20.5325 4.4475 21.44 3.9375 22.375 C3.4425 23.1175 2.9475 23.86 2.4375 24.625 C-0.5625 25.1875 -0.5625 25.1875 -3.5625 24.625 C-5.4375 22.75 -5.4375 22.75 -6.5625 20.625 C-6.5625 19.965 -6.5625 19.305 -6.5625 18.625 C-7.531875 18.315625 -8.50125 18.00625 -9.5 17.6875 C-12.5625 16.625 -12.5625 16.625 -13.5625 15.625 C-14.0625 13.375 -14.0625 13.375 -13.5625 10.625 C-11.9324695 9.17409373 -10.21064354 8.06057272 -8.3671875 6.89453125 C-6.30367238 5.58038743 -6.30367238 5.58038743 -4.4375 2.8125 C-2.5625 0.625 -2.5625 0.625 0 0 Z " fill="#232927" transform="translate(367.5625,568.375)"/>
<path d="M0 0 C3.4375 0.9375 3.4375 0.9375 5.375 2.0625 C7.13687187 5.17168565 6.91909369 7.44594577 6.4375 10.9375 C4.3125 13.9375 4.3125 13.9375 1.4375 15.9375 C-1.76981148 15.9375 -3.6630035 15.44721468 -6.4375 13.875 C-8.28420697 10.69456022 -8.18436446 7.45668753 -7.5625 3.9375 C-5.3173484 0.25545138 -4.33137369 -0.07598901 0 0 Z " fill="#252B29" transform="translate(697.5625,264.0625)"/>
<path d="M0 0 C1.9375 1 1.9375 1 3 3 C3.5327028 6.60137103 3.68723346 9.77825164 1.875 13 C-0.94519875 14.504106 -2.85610056 14.44912849 -6 14 C-8.375 12.4375 -8.375 12.4375 -10 10 C-10.42519574 6.53769185 -10.63902633 4.1652833 -8.9375 1.0625 C-5.88023824 -0.6140629 -3.4093712 -0.36528977 0 0 Z " fill="#232928" transform="translate(242,561)"/>
<path d="M0 0 C2.375 1.125 2.375 1.125 4 3 C4.62060815 6.64607289 4.47464453 8.30628876 2.375 11.375 C-0.71186432 13.48706506 -2.3282913 13.61195145 -6 13 C-8.4375 11.375 -8.4375 11.375 -10 9 C-9.93498241 5.81413804 -9.51914046 3.81969546 -7.8125 1.125 C-5.08827656 -0.56589731 -3.14066901 -0.38457172 0 0 Z " fill="#242A28" transform="translate(276,610)"/>
<path d="M0 0 C0.33 0 0.66 0 1 0 C1.31835861 2.06160382 1.62926615 4.12435813 1.9375 6.1875 C2.11152344 7.33605469 2.28554688 8.48460937 2.46484375 9.66796875 C3.98600008 21.18270351 4.23408317 32.71709093 4.25 44.3125 C4.25233643 45.09371216 4.25467285 45.87492432 4.25708008 46.67980957 C4.27238489 60.30874793 3.27147059 73.54032854 1 87 C0.67 87 0.34 87 0 87 C-0.08024834 81.88416828 0.03620423 76.9949866 0.71166992 71.92749023 C3.32848815 52.16508399 2.48711874 31.83710178 1 12 C0.34 12 -0.32 12 -1 12 C-0.67 8.04 -0.34 4.08 0 0 Z " fill="#6A6B6B" transform="translate(822,469)"/>
<path d="M0 0 C0.66 0.33 1.32 0.66 2 1 C-4.37021664 8.02357219 -10.82998347 14.94684523 -17.5 21.6875 C-18.08668457 22.2870752 -18.67336914 22.88665039 -19.27783203 23.50439453 C-20.11483643 24.34333252 -20.11483643 24.34333252 -20.96875 25.19921875 C-21.70254883 25.93918091 -21.70254883 25.93918091 -22.45117188 26.6940918 C-24.18513619 28.15609923 -25.94216908 29.0623772 -28 30 C-23.04837201 18.73697053 -9.57634545 7.50578427 0 0 Z " fill="#2B2E2E" transform="translate(538,622)"/>
<path d="M0 0 C0.61117676 0.19730713 1.22235352 0.39461426 1.85205078 0.59790039 C1.404021 1.01563721 0.95599121 1.43337402 0.49438477 1.86376953 C-1.57509426 3.79469711 -3.64277774 5.72753745 -5.71044922 7.66040039 C-6.41492188 8.31717773 -7.11939453 8.97395508 -7.84521484 9.65063477 C-12.36811314 13.88173318 -16.79955807 18.18759819 -21.14794922 22.59790039 C-21.47794922 21.93790039 -21.80794922 21.27790039 -22.14794922 20.59790039 C-20.01668775 16.12536264 -16.76708801 12.94798066 -13.27294922 9.53540039 C-12.75603516 9.01913086 -12.23912109 8.50286133 -11.70654297 7.97094727 C-3.06403959 -0.57359323 -3.06403959 -0.57359323 0 0 Z " fill="#1D211F" transform="translate(394.14794921875,621.402099609375)"/>
<path d="M0 0 C0.33 0 0.66 0 1 0 C0.32382001 7.64782882 -1.31373461 14.77326821 -3.27148438 22.18359375 C-4.54692446 27.24816924 -5.24108288 31.78136666 -4.98803711 37.00976562 C-5.00092223 39.15342873 -5.40497582 40.94743954 -6 43 C-6.66 43 -7.32 43 -8 43 C-8.33 46.63 -8.66 50.26 -9 54 C-9.33 54 -9.66 54 -10 54 C-10.2955895 47.00719707 -9.1817093 40.59554219 -7.8125 33.75 C-7.59053955 32.61643066 -7.3685791 31.48286133 -7.13989258 30.31494141 C-5.10434614 20.11932214 -2.66495946 10.04746416 0 0 Z " fill="#686969" transform="translate(130,420)"/>
<path d="M0 0 C-0.99 0.33 -1.98 0.66 -3 1 C-3.6701364 2.66527458 -4.33620576 4.33218723 -5 6 C-7.05859375 8.45703125 -7.05859375 8.45703125 -9.4375 10.8125 C-10.21996094 11.60269531 -11.00242187 12.39289063 -11.80859375 13.20703125 C-14 15 -14 15 -17 15 C-15.59155282 11.78475695 -13.89655214 9.67816132 -11.375 7.25 C-10.42753906 6.32960938 -10.42753906 6.32960938 -9.4609375 5.390625 C-8.73777344 4.70226562 -8.73777344 4.70226562 -8 4 C-10.13760233 3.86680486 -10.13760233 3.86680486 -12.4375 5.0625 C-15 6 -15 6 -18 5 C-15.75564555 3.96483652 -13.50593133 2.94685023 -11.25 1.9375 C-10.29867188 1.49567383 -10.29867188 1.49567383 -9.328125 1.04492188 C-3.48702331 -1.54098252 -3.48702331 -1.54098252 0 0 Z " fill="#2B2E2F" transform="translate(337,343)"/>
<path d="M0 0 C0.33 0 0.66 0 1 0 C1.17275386 13.66674963 1.17275386 13.66674963 0.4375 18.625 C-0.20915999 21.79367243 -0.20915999 21.79367243 0.59375 23.9453125 C1.13393818 26.67741808 0.38717042 27.84150833 -0.9375 30.25 C-1.31777344 30.95640625 -1.69804688 31.6628125 -2.08984375 32.390625 C-2.39019531 32.92171875 -2.69054687 33.4528125 -3 34 C-3.33 34 -3.66 34 -4 34 C-3.19605268 26.63958906 -2.32401747 19.28838411 -1.4375 11.9375 C-1.29892578 10.78572266 -1.16035156 9.63394531 -1.01757812 8.44726562 C-0.67874754 5.63146661 -0.33954653 2.81571275 0 0 Z " fill="#626265" transform="translate(838,607)"/>
<path d="M0 0 C0.33 0 0.66 0 1 0 C0.67553351 7.80341918 -0.90126716 14.95290857 -3.0625 22.421875 C-3.99431295 25.97829441 -4.55180583 29.3584224 -5 33 C-6.485 33.495 -6.485 33.495 -8 34 C-6.38822558 26.62182875 -4.64576786 19.27898495 -2.875 11.9375 C-2.59785156 10.78572266 -2.32070313 9.63394531 -2.03515625 8.44726562 C-1.35746519 5.63134243 -0.67906402 2.81559236 0 0 Z " fill="#595B5B" transform="translate(710,440)"/>
<path d="M0 0 C0 3 0 3 -1.57421875 4.9375 C-6.42442295 9.67115586 -10.9542667 12.97713335 -17 16 C-16.07038578 14.84775972 -15.1309875 13.70340824 -14.1875 12.5625 C-13.66542969 11.92441406 -13.14335938 11.28632812 -12.60546875 10.62890625 C-11 9 -11 9 -8 8 C-7.731875 7.401875 -7.46375 6.80375 -7.1875 6.1875 C-5.49201575 3.06423954 -2.98560787 1.81732653 0 0 Z " fill="#2F3332" transform="translate(662,539)"/>
<path d="M0 0 C2.61888048 0.36766141 3.76906773 0.75212893 5.59765625 2.71484375 C9.25714852 8.26751335 11.46066316 13.53208468 13 20 C10.78275162 17.91436176 9.12571641 15.82427857 7.51953125 13.2421875 C7.07802734 12.53449219 6.63652344 11.82679688 6.18164062 11.09765625 C5.50391602 9.99744141 5.50391602 9.99744141 4.8125 8.875 C4.34908203 8.13378906 3.88566406 7.39257812 3.40820312 6.62890625 C0 1.13763347 0 1.13763347 0 0 Z " fill="#434447" transform="translate(620,274)"/>
<path d="M0 0 C0.97608217 2.92824652 1.08226668 4.95613276 1 8 C0.360625 8.20625 -0.27875 8.4125 -0.9375 8.625 C-1.9584375 9.305625 -1.9584375 9.305625 -3 10 C-3.144375 10.86625 -3.28875 11.7325 -3.4375 12.625 C-4.1949991 17.16999461 -6.42181083 20.25163641 -9 24 C-9.33 23.34 -9.66 22.68 -10 22 C-9.41088867 20.29174805 -9.41088867 20.29174805 -8.41796875 18.26171875 C-8.06283203 17.52373047 -7.70769531 16.78574219 -7.34179688 16.02539062 C-6.96087891 15.25388672 -6.57996094 14.48238281 -6.1875 13.6875 C-5.450563 12.1711846 -4.71485368 10.65427182 -3.98046875 9.13671875 C-3.46105713 8.06623291 -3.46105713 8.06623291 -2.93115234 6.97412109 C-1.85205032 4.68633426 -0.89275509 2.36650952 0 0 Z " fill="#535452" transform="translate(645,424)"/>
<path d="M0 0 C0.33 0.66 0.66 1.32 1 2 C0.01196289 4.43017578 0.01196289 4.43017578 -1.52734375 7.4453125 C-2.34428711 9.05986328 -2.34428711 9.05986328 -3.17773438 10.70703125 C-3.75845703 11.83496094 -4.33917969 12.96289062 -4.9375 14.125 C-5.51435547 15.26066406 -6.09121094 16.39632813 -6.68554688 17.56640625 C-8.1166459 20.38129523 -9.55505865 23.1921983 -11 26 C-11.33 26 -11.66 26 -12 26 C-11.67 23.69 -11.34 21.38 -11 19 C-10.34 19 -9.68 19 -9 19 C-8.62875 17.7625 -8.62875 17.7625 -8.25 16.5 C-7.04223322 13.11825302 -5.58447042 10.09081611 -3.90234375 6.9296875 C-2.92097468 5.00869075 -2.92097468 5.00869075 -2.50390625 2.8203125 C-2.33761719 2.21960938 -2.17132813 1.61890625 -2 1 C-1.34 0.67 -0.68 0.34 0 0 Z " fill="#555854" transform="translate(226,321)"/>
<path d="M0 0 C4.97209562 1.76429199 9.43438061 4.3939166 14 7 C14 7.99 14 8.98 14 10 C8.19657726 8.51194289 3.82409121 5.40902445 -1 2 C-0.67 1.34 -0.34 0.68 0 0 Z " fill="#383C39" transform="translate(301,451)"/>
<path d="M0 0 C0.33 0 0.66 0 1 0 C1.23227384 13.2396088 1.23227384 13.2396088 -1.75 17.5 C-4 19 -4 19 -6.75 18.75 C-7.4925 18.5025 -8.235 18.255 -9 18 C-9 17.34 -9 16.68 -9 16 C-6.36 15.34 -3.72 14.68 -1 14 C-1.01160156 13.32453125 -1.02320313 12.6490625 -1.03515625 11.953125 C-1.04417969 11.06109375 -1.05320312 10.1690625 -1.0625 9.25 C-1.07410156 8.36828125 -1.08570313 7.4865625 -1.09765625 6.578125 C-1.00826198 4.2181162 -0.66912821 2.25501476 0 0 Z " fill="#484C4A" transform="translate(285,545)"/>
<path d="M0 0 C0.33 0 0.66 0 1 0 C2.77203196 10.12589689 3.23950618 19.7544577 3 30 C2.67 30 2.34 30 2 30 C1.67 24.06 1.34 18.12 1 12 C0.34 12 -0.32 12 -1 12 C-0.67 8.04 -0.34 4.08 0 0 Z " fill="#555955" transform="translate(822,469)"/>
<path d="M0 0 C-0.33 3.3 -0.66 6.6 -1 10 C-1.66 10 -2.32 10 -3 10 C-3.33 13.63 -3.66 17.26 -4 21 C-4.33 21 -4.66 21 -5 21 C-5.26003875 14.23899242 -4.70288971 7.56979056 -3 1 C-1 0 -1 0 0 0 Z " fill="#444648" transform="translate(125,453)"/>
<path d="M0 0 C2.02728161 2.02728161 2.61052574 3.19247926 3.62109375 5.80859375 C3.91693359 6.55560547 4.21277344 7.30261719 4.51757812 8.07226562 C5.129027 9.64437727 5.73841553 11.21729185 6.34570312 12.79101562 C6.64283203 13.53931641 6.93996094 14.28761719 7.24609375 15.05859375 C7.51091553 15.74236084 7.7757373 16.42612793 8.04858398 17.13061523 C8.92444452 19.09447095 8.92444452 19.09447095 10.62915039 20.60961914 C11.08153076 21.06844482 11.53391113 21.52727051 12 22 C11.6875 24.1875 11.6875 24.1875 11 26 C0 8.29494382 0 8.29494382 0 0 Z " fill="#5F6062" transform="translate(256,392)"/>
<path d="M0 0 C0.33 0 0.66 0 1 0 C1.33 2.31 1.66 4.62 2 7 C1.34 7 0.68 7 0 7 C0.04125 8.051875 0.0825 9.10375 0.125 10.1875 C0.00767341 13.76596091 -0.26938402 15.90310825 -2 19 C-2.99 19.33 -3.98 19.66 -5 20 C-3.56390017 13.26137773 -1.85991713 6.63370443 0 0 Z " fill="#474949" transform="translate(785,531)"/>
<path d="M0 0 C0.33 0 0.66 0 1 0 C1.125 2.875 1.125 2.875 1 6 C-1 8 -1 8 -3.06640625 8.265625 C-8.96070411 8.22872799 -14.308698 7.5396759 -20 6 C-20 5.67 -20 5.34 -20 5 C-14.39 5.33 -8.78 5.66 -3 6 C-2.34 4.68 -1.68 3.36 -1 2 C-0.67 1.34 -0.34 0.68 0 0 Z " fill="#4D514F" transform="translate(607,839)"/>
<path d="M0 0 C-13.8285794 5.08968547 -13.8285794 5.08968547 -21 3 C-5.22269626 -1.46368558 -5.22269626 -1.46368558 0 0 Z " fill="#616363" transform="translate(355,268)"/>
<path d="M0 0 C0.6084375 0.19851563 1.216875 0.39703125 1.84375 0.6015625 C-2.24431189 4.44772724 -5.56342158 7.23745801 -11.15625 8.6015625 C-4.13238365 -0.76359263 -4.13238365 -0.76359263 0 0 Z " fill="#2F3231" transform="translate(394.15625,621.3984375)"/>
<path d="M0 0 C0.99 0.99 1.98 1.98 3 3 C2.67 3.66 2.34 4.32 2 5 C-13.74487472 5.18451025 -13.74487472 5.18451025 -21 4 C-21 3.67 -21 3.34 -21 3 C-13.93391809 2.86205046 -7.02639415 3.25194283 0 4 C0 2.68 0 1.36 0 0 Z " fill="#5F605F" transform="translate(334,768)"/>
<path d="M0 0 C0 0.33 0 0.66 0 1 C-0.89203125 1.13277344 -1.7840625 1.26554688 -2.703125 1.40234375 C-3.87359375 1.57894531 -5.0440625 1.75554688 -6.25 1.9375 C-7.99023438 2.19853516 -7.99023438 2.19853516 -9.765625 2.46484375 C-12.84984988 2.92124135 -12.84984988 2.92124135 -15.21875 3.59375 C-17.9280298 4.21165592 -20.31347441 3.5495166 -23 3 C-23 2.67 -23 2.34 -23 2 C-15.26940505 0.64290496 -7.85546636 -0.31918373 0 0 Z " fill="#565957" transform="translate(493,767)"/>
<path d="M0 0 C0.66 0 1.32 0 2 0 C1.67 1.98 1.34 3.96 1 6 C0.01 6 -0.98 6 -2 6 C-3.66756036 7.30436727 -3.66756036 7.30436727 -5.1875 9 C-5.71730469 9.556875 -6.24710938 10.11375 -6.79296875 10.6875 C-7.19128906 11.120625 -7.58960938 11.55375 -8 12 C-8.66 11.67 -9.32 11.34 -10 11 C-9.52949219 10.54109375 -9.05898438 10.0821875 -8.57421875 9.609375 C-4.66905586 5.77414308 -4.66905586 5.77414308 -1.1875 1.5625 C-0.795625 1.046875 -0.40375 0.53125 0 0 Z " fill="#6A6B6B" transform="translate(591,633)"/>
<path d="M0 0 C0.33 0 0.66 0 1 0 C1.33 1.98 1.66 3.96 2 6 C1.01 6.495 1.01 6.495 0 7 C-0.40729228 9.32156597 -0.74438677 11.6568787 -1 14 C-1.99 14.33 -2.98 14.66 -4 15 C-2.9318153 9.88634986 -1.76892524 4.92772031 0 0 Z " fill="#424443" transform="translate(137,399)"/>
<path d="M0 0 C0 3.33896168 -0.59422625 4.40480889 -2.3125 7.1875 C-2.95638672 8.26064453 -2.95638672 8.26064453 -3.61328125 9.35546875 C-4.07089844 9.89816406 -4.52851563 10.44085938 -5 11 C-5.99 11 -6.98 11 -8 11 C-6.60366572 6.55711819 -4.39598172 4.13475236 -1 1 C-0.67 0.67 -0.34 0.34 0 0 Z " fill="#313432" transform="translate(181,316)"/>
<path d="M0 0 C1.73694677 2.60542016 2.69100448 4.58342775 3.6875 7.5 C3.95949219 8.2734375 4.23148438 9.046875 4.51171875 9.84375 C5 12 5 12 4 15 C1.59185923 11.48812804 0.63370592 9.27343092 1 5 C0.34 5 -0.32 5 -1 5 C-0.67 3.35 -0.34 1.7 0 0 Z " fill="#484C49" transform="translate(203,570)"/>
<path d="M0 0 C-0.71929687 0.28488281 -1.43859375 0.56976563 -2.1796875 0.86328125 C-3.98470634 1.59078884 -5.78253656 2.33656208 -7.5703125 3.10546875 C-8.41335938 3.46253906 -9.25640625 3.81960938 -10.125 4.1875 C-10.97320312 4.55230469 -11.82140625 4.91710937 -12.6953125 5.29296875 C-15 6 -15 6 -18 5 C-15.75564555 3.96483652 -13.50593133 2.94685023 -11.25 1.9375 C-10.29867188 1.49567383 -10.29867188 1.49567383 -9.328125 1.04492188 C-3.48702331 -1.54098252 -3.48702331 -1.54098252 0 0 Z " fill="#656566" transform="translate(337,343)"/>
<path d="M0 0 C1.61725534 3.00950123 2.67582623 5.97103608 3.625 9.25 C3.88539063 10.14203125 4.14578125 11.0340625 4.4140625 11.953125 C4.60742188 12.62859375 4.80078125 13.3040625 5 14 C-0.95095368 8.20163488 -0.95095368 8.20163488 -1.125 3.9375 C-1 1 -1 1 0 0 Z " fill="#3D4041" transform="translate(742,318)"/>
<path d="M0 0 C2.875 0.75 2.875 0.75 6 2 C7.1875 4.0625 7.1875 4.0625 8 6 C8.99 6.33 9.98 6.66 11 7 C10.01 7.495 10.01 7.495 9 8 C7.08984375 7.109375 7.08984375 7.109375 4.9375 5.75 C4.22464844 5.31171875 3.51179688 4.8734375 2.77734375 4.421875 C1 3 1 3 0 0 Z " fill="#3C3F3D" transform="translate(299,846)"/>
<path d="M0 0 C0.33 0.66 0.66 1.32 1 2 C2.89533342 2.46523063 2.89533342 2.46523063 5.0625 2.625 C6.361875 2.74875 7.66125 2.8725 9 3 C9.33 3.99 9.66 4.98 10 6 C5.16371695 5.00956295 0.52381127 4.04301154 -4 2 C-2.68 1.34 -1.36 0.68 0 0 Z " fill="#4A4D4C" transform="translate(277,759)"/>
<path d="M0 0 C0.33 0.66 0.66 1.32 1 2 C3.3140622 2.73075648 5.64828869 3.40138258 8 4 C4.12813552 5.44715727 1.1767672 4.5441918 -2.75 3.5625 C-3.92046875 3.27503906 -5.0909375 2.98757812 -6.296875 2.69140625 C-7.18890625 2.46324219 -8.0809375 2.23507813 -9 2 C-9 1.67 -9 1.34 -9 1 C-2.25 0 -2.25 0 0 0 Z " fill="#585B5A" transform="translate(579,181)"/>
<path d="M0 0 C2.82863975 5.3363834 4.37974335 10.92410633 4 17 C0.82824575 13.56464151 0.54233495 10.84669909 0.3125 6.25 C0.24675781 5.07953125 0.18101562 3.9090625 0.11328125 2.703125 C0.07589844 1.81109375 0.03851562 0.9190625 0 0 Z " fill="#565957" transform="translate(815,437)"/>
<path d="M0 0 C0.33 0.66 0.66 1.32 1 2 C0.22265625 3.9453125 0.22265625 3.9453125 -0.9375 6.125 C-1.31777344 6.84945313 -1.69804687 7.57390625 -2.08984375 8.3203125 C-2.39019531 8.87460937 -2.69054687 9.42890625 -3 10 C-3.99 10 -4.98 10 -6 10 C-4.6302836 6.00499382 -2.74277578 3.19990508 0 0 Z " fill="#3A3D3B" transform="translate(187,305)"/>
<path d="M0 0 C3.17119503 1.09351553 4.00783543 2.0126988 5.8125 4.9375 C7 8 7 8 6 11 C4.9944239 9.54550599 3.99569565 8.08627557 3 6.625 C2.443125 5.81289063 1.88625 5.00078125 1.3125 4.1640625 C0 2 0 2 0 0 Z " fill="#434445" transform="translate(170,719)"/>
<path d="M0 0 C0.95837449 3.04626176 1.01658162 5.09213636 0.25 8.1875 C0.01023437 9.22970703 0.01023437 9.22970703 -0.234375 10.29296875 C-0.61335937 11.13794922 -0.61335937 11.13794922 -1 12 C-1.99 12.33 -2.98 12.66 -4 13 C-3.71517632 11.58194169 -3.42181856 10.16559621 -3.125 8.75 C-2.96257813 7.96109375 -2.80015625 7.1721875 -2.6328125 6.359375 C-2.00849925 4.03168856 -1.15161458 2.10968048 0 0 Z " fill="#4D504F" transform="translate(643,662)"/>
<path d="M0 0 C3.33557632 2.9905167 5.15083921 5.93184627 7 10 C5.1875 9.9375 5.1875 9.9375 3 9 C0 3.10714286 0 3.10714286 0 0 Z " fill="#2D3033" transform="translate(269,417)"/>
<path d="M0 0 C0.33 0 0.66 0 1 0 C1.84681133 5.08086796 2.09038099 9.84828377 2 15 C1.67 14.01 1.34 13.02 1 12 C0.34 12 -0.32 12 -1 12 C-0.67 8.04 -0.34 4.08 0 0 Z " fill="#4D514F" transform="translate(880,471)"/>
<path d="M0 0 C3.3 1.98 6.6 3.96 10 6 C6 7 6 7 3.3125 5.8125 C1 4 1 4 0 0 Z " fill="#393E3E" transform="translate(307,431)"/>
<path d="M0 0 C4.21912747 0.4794463 6.79663178 1.16625119 10 4 C3.49618902 4.36814024 3.49618902 4.36814024 1.0625 2.5625 C0 1 0 1 0 0 Z " fill="#2B2F2B" transform="translate(364,877)"/>
<path d="M0 0 C0.66 0.33 1.32 0.66 2 1 C1.2575 1.5775 0.515 2.155 -0.25 2.75 C-2.66087643 4.72253526 -4.84042701 6.76044282 -7 9 C-7 7.68 -7 6.36 -7 5 C-6.34 5 -5.68 5 -5 5 C-5 4.34 -5 3.68 -5 3 C-4.34 3 -3.68 3 -3 3 C-3 2.34 -3 1.68 -3 1 C-2.01 0.67 -1.02 0.34 0 0 Z " fill="#373C36" transform="translate(669,655)"/>
<path d="M0 0 C0.33 1.32 0.66 2.64 1 4 C-1.97 6.475 -1.97 6.475 -5 9 C-5 4.61031544 -2.87194899 3.23094261 0 0 Z " fill="#393C3A" transform="translate(367,646)"/>
<path d="M0 0 C0.33 0.99 0.66 1.98 1 3 C-2.63 2.67 -6.26 2.34 -10 2 C-6.00889681 0.0044484 -4.30013434 -0.19546065 0 0 Z " fill="#464A46" transform="translate(569,179)"/>
<path d="M0 0 C3.79588866 0.54226981 5.47211993 2.20127563 8 5 C4.62537285 4.45276317 2.91765 3.9451 0 2 C0 1.34 0 0.68 0 0 Z " fill="#313638" transform="translate(247,769)"/>
<path d="M0 0 C0.66 0.33 1.32 0.66 2 1 C-1.32307692 5.8 -1.32307692 5.8 -4.75 6.8125 C-5.4925 6.874375 -6.235 6.93625 -7 7 C-4.66666667 4.66666667 -2.33333333 2.33333333 0 0 Z " fill="#3F4240" transform="translate(266,224)"/>
<path d="M0 0 C4 1 4 1 5.8125 2.875 C6.204375 3.57625 6.59625 4.2775 7 5 C6.67 5.99 6.34 6.98 6 8 C4.02 5.36 2.04 2.72 0 0 Z " fill="#2A2E2E" transform="translate(215,779)"/>
<path d="M0 0 C0.66 0.33 1.32 0.66 2 1 C0.84826645 3.46800047 -0.04783565 5.04783565 -2 7 C-2.99 6.67 -3.98 6.34 -5 6 C-3.35 4.02 -1.7 2.04 0 0 Z " fill="#282D2A" transform="translate(746,661)"/>
<path d="M0 0 C1 2 1 2 0.3125 4.5625 C-1 7 -1 7 -3.125 7.8125 C-3.74375 7.874375 -4.3625 7.93625 -5 8 C-3.62845496 5.04590299 -2.01136276 2.55991624 0 0 Z " fill="#383A38" transform="translate(674,614)"/>
<path d="M0 0 C0.33 0.66 0.66 1.32 1 2 C-3.75 6.875 -3.75 6.875 -6 8 C-4.55746343 4.63408134 -2.66735273 2.48952921 0 0 Z " fill="#353937" transform="translate(686,599)"/>
<path d="M0 0 C1 3 1 3 0.22265625 5.04296875 C-0.16019531 5.75066406 -0.54304687 6.45835937 -0.9375 7.1875 C-1.31777344 7.90292969 -1.69804688 8.61835937 -2.08984375 9.35546875 C-2.54037109 10.16951172 -2.54037109 10.16951172 -3 11 C-3.33 11 -3.66 11 -4 11 C-3.67 8.69 -3.34 6.38 -3 4 C-2.34 4 -1.68 4 -1 4 C-0.67 2.68 -0.34 1.36 0 0 Z " fill="#4E514E" transform="translate(539,552)"/>
<path d="M0 0 C0.33 0.66 0.66 1.32 1 2 C0.00390625 4.3828125 0.00390625 4.3828125 -1.4375 7.125 C-1.91058594 8.03507812 -2.38367188 8.94515625 -2.87109375 9.8828125 C-3.24363281 10.58148438 -3.61617187 11.28015625 -4 12 C-4.65234375 10.265625 -4.65234375 10.265625 -5 8 C-4.00390625 5.859375 -4.00390625 5.859375 -2.5625 3.75 C-2.08941406 3.04359375 -1.61632812 2.3371875 -1.12890625 1.609375 C-0.75636719 1.07828125 -0.38382813 0.5471875 0 0 Z " fill="#0F1311" transform="translate(162,347)"/>
<path d="M0 0 C3.83736322 0.95934081 4.59660228 1.23609263 7 4 C6.67 4.99 6.34 5.98 6 7 C4.02 4.69 2.04 2.38 0 0 Z " fill="#292E2E" transform="translate(282,436)"/>
<path d="M0 0 C3.2542015 2.83430453 4.5206753 4.68607774 5 9 C2.5 6.75 2.5 6.75 0 4 C0 2.68 0 1.36 0 0 Z " fill="#363839" transform="translate(783,313)"/>
<path d="M0 0 C3.1875 -0.3125 3.1875 -0.3125 6 0 C3.14693203 2.32472205 0.45925163 3.7508258 -3 5 C-1.875 2.5 -1.875 2.5 0 0 Z " fill="#4A4D4B" transform="translate(318,276)"/>
<path d="M0 0 C-2.31 1.65 -4.62 3.3 -7 5 C-7.66 4.67 -8.32 4.34 -9 4 C-6.56225426 0.2214941 -6.56225426 0.2214941 -3.9375 -0.8125 C-2 -1 -2 -1 0 0 Z " fill="#4D514C" transform="translate(308,232)"/>
<path d="M0 0 C0.66 0.33 1.32 0.66 2 1 C-0.475 4.465 -0.475 4.465 -3 8 C-3.33 6.68 -3.66 5.36 -4 4 C-2.0625 1.75 -2.0625 1.75 0 0 Z " fill="#626162" transform="translate(778,738)"/>
<path d="M0 0 C0.66 0.66 1.32 1.32 2 2 C-0.97 4.475 -0.97 4.475 -4 7 C-4 4 -4 4 -2 1.8125 C-1.34 1.214375 -0.68 0.61625 0 0 Z " fill="#282D26" transform="translate(580,711)"/>
<path d="M0 0 C1.10844919 3.32534757 0.84454356 5.62182575 0 9 C-0.99 9.33 -1.98 9.66 -3 10 C-2.39009109 6.44219804 -1.4216319 3.3171411 0 0 Z " fill="#494C4C" transform="translate(433,673)"/>
<path d="M0 0 C0.66 0.33 1.32 0.66 2 1 C0.70700306 3.88437779 -0.65941363 5.87219421 -3 8 C-2.45276317 4.62537285 -1.9451 2.91765 0 0 Z " fill="#353A33" transform="translate(651,505)"/>
<path d="M0 0 C0.66 0.99 1.32 1.98 2 3 C-0.375 4.5625 -0.375 4.5625 -3 6 C-3.66 5.67 -4.32 5.34 -5 5 C-3.35 3.35 -1.7 1.7 0 0 Z " fill="#2E322F" transform="translate(621,466)"/>
<path d="M0 0 C0.99 0.33 1.98 0.66 3 1 C-0.465 3.97 -0.465 3.97 -4 7 C-4 6.01 -4 5.02 -4 4 C-3.34 4 -2.68 4 -2 4 C-1.34 2.68 -0.68 1.36 0 0 Z " fill="#2A3028" transform="translate(270,258)"/>
<path d="M0 0 C5.75 1.75 5.75 1.75 8 4 C1.25 3.25 1.25 3.25 -1 1 C-0.67 0.67 -0.34 0.34 0 0 Z " fill="#414544" transform="translate(662,182)"/>
</svg>
