<?xml version="1.0" encoding="UTF-8"?>
<svg version="1.1" xmlns="http://www.w3.org/2000/svg" width="1024" height="1024">
<path d="M0 0 C1.953125 2.25 1.953125 2.25 3 4 C1.85144531 3.98839844 0.70289063 3.97679687 -0.48046875 3.96484375 C-21.66959898 3.80914234 -39.82175394 5.21226493 -56.23046875 20.01171875 C-57.99149745 21.92824667 -59.51351979 23.86443678 -61 26 C-61.52980469 26.75925781 -62.05960938 27.51851563 -62.60546875 28.30078125 C-74.03119133 45.9894925 -74.12978111 67.45742647 -69.84716797 87.46606445 C-68.24194333 94.46124005 -66.30025962 101.3721077 -64.19482422 108.23242188 C-60.12689997 121.67425851 -58.44475355 134.35310959 -58.5625 148.3125 C-58.56706207 149.46378891 -58.56706207 149.46378891 -58.57171631 150.63833618 C-58.63938766 162.19524974 -59.34345115 172.97339785 -63 184 C-63.20898926 184.66902344 -63.41797852 185.33804688 -63.63330078 186.02734375 C-72.16920298 213.08647343 -91.71028884 235.96754863 -116.7644043 249.18383789 C-128.44370812 255.08739353 -140.68499999 259.52205456 -153.03515625 263.7890625 C-184.30024193 274.37653799 -184.30024193 274.37653799 -212 292 C-212 292.33 -212 292.66 -212 293 C-211.15179688 292.41992188 -210.30359375 291.83984375 -209.4296875 291.2421875 C-181.30913166 272.36824393 -150.21497935 268.91982801 -117.31640625 267.30371094 C-78.78717042 265.40778496 -46.99977387 260.49084255 -18 233 C-17.23816406 232.27941406 -16.47632813 231.55882812 -15.69140625 230.81640625 C-11.65318933 226.89016761 -7.97130223 222.82449763 -4.4375 218.4375 C4.55345378 207.29991711 13.6621092 199.08308251 28 196 C32.09334492 195.57781184 36.1373027 195.52286712 40.25 195.5625 C41.90261841 195.57385986 41.90261841 195.57385986 43.58862305 195.58544922 C52.01325456 195.7555184 59.1670018 196.71750337 67 200 C68.54300781 200.63615234 68.54300781 200.63615234 70.1171875 201.28515625 C77.70506814 204.75086764 83.83659819 209.42574689 90 215 C90.8559375 215.76183594 91.711875 216.52367187 92.59375 217.30859375 C108.38828011 232.15252714 118.71496409 254.23859476 119.42909241 275.96783447 C119.47186104 279.1534929 119.46149103 282.33522894 119.41162109 285.52075195 C119.37465576 287.96021761 119.37060673 290.39817111 119.37109375 292.83789062 C119.33577688 300.43825479 119.13060263 307.6451597 117 315 C116.01 315 115.02 315 114 315 C113.75765625 313.98421875 113.5153125 312.9684375 113.265625 311.921875 C108.22171859 291.05624502 101.29949073 270.02718991 83 257 C66.54917079 247.30289725 49.92928502 243.68337662 31 248 C22.05724003 250.47125971 13.97576462 254.26219369 5.75 258.5 C4.07164062 259.35271484 4.07164062 259.35271484 2.359375 260.22265625 C-3.42365626 263.15264487 -3.42365626 263.15264487 -9.16967773 266.15405273 C-14.75488563 269.08161524 -20.58151846 271.09090371 -26.5625 273.0625 C-28.16085693 273.589646 -28.16085693 273.589646 -29.79150391 274.12744141 C-53.95240314 281.93439762 -78.95292288 282.49937806 -104.12695312 283.60180664 C-132.27314449 284.85098879 -132.27314449 284.85098879 -159.75 290.75 C-160.6150415 291.00676514 -161.48008301 291.26353027 -162.37133789 291.52807617 C-188.6914014 299.59613289 -209.27674958 313.66784078 -222.75 338.1875 C-232.70045423 357.3005241 -234.61283867 380.60014421 -228.38671875 401.33203125 C-219.04454606 426.04273592 -203.38722612 439.86631346 -179.890625 450.9921875 C-171.77993262 453.81996944 -163.90375638 454.27302915 -155.375 454.125 C-153.86873047 454.11146484 -153.86873047 454.11146484 -152.33203125 454.09765625 C-149.88775874 454.07437746 -147.44401592 454.04168487 -145 454 C-144.14501433 477.1796115 -148.14199056 495.25710812 -164.10546875 512.98828125 C-168.34427889 517.50387671 -172.99059505 521.36688651 -178 525 C-178.71800781 525.54011719 -179.43601562 526.08023438 -180.17578125 526.63671875 C-193.63659159 535.74607708 -210.88101938 539.1720478 -226.8125 539.25 C-227.85470703 539.270625 -228.89691406 539.29125 -229.97070312 539.3125 C-236.54433048 539.34551257 -241.92579945 538.55330161 -248 536 C-248 535.34 -248 534.68 -248 534 C-246.35064453 533.47212891 -246.35064453 533.47212891 -244.66796875 532.93359375 C-230.1215277 528.14081666 -219.32487101 523.11095672 -211.9453125 508.98046875 C-207.46170492 499.18058362 -207.29002406 485.46750246 -210.98046875 475.33984375 C-211.48513672 474.18162109 -211.48513672 474.18162109 -212 473 C-212.36738281 472.15566406 -212.73476563 471.31132813 -213.11328125 470.44140625 C-218.44968386 459.59544343 -226.97714014 450.86062902 -235.58789062 442.53808594 C-256.06073541 422.72396905 -271.29751532 396.73680821 -272.3359375 367.6875 C-272.75484651 336.66981962 -265.27583633 311.19466795 -244 288 C-243.51869629 287.47341797 -243.03739258 286.94683594 -242.54150391 286.40429688 C-227.09638622 269.72418985 -207.9079285 260.22118977 -186.9703064 252.18676758 C-162.9176069 242.92578675 -140.80588815 233.15852539 -122 215 C-121.38511719 214.41089844 -120.77023437 213.82179688 -120.13671875 213.21484375 C-104.12478955 196.4667339 -97.35322523 171.61426411 -97 149 C-97.16674715 145.50594723 -97.54970294 142.08426468 -98.0625 138.625 C-98.22528442 137.50593262 -98.22528442 137.50593262 -98.39135742 136.36425781 C-100.7396093 122.87163638 -106.23870932 110.87176241 -112.5625 98.875 C-122.40907045 80.18979465 -129.01684738 60.63937007 -123.375 39.5 C-116.80809045 19.89016283 -103.23343078 5.71615882 -85.0625 -3.8125 C-57.88389359 -16.78479165 -25.70893028 -15.74518218 0 0 Z " fill="#1B2F39" transform="translate(707,257)"/>
<path d="M0 0 C0.17539307 0.56283691 0.35078613 1.12567383 0.53149414 1.70556641 C9.4721359 30.12910324 22.61020538 52.98492614 49.42578125 67.90625 C59.82278635 73.08770828 70.78879621 76.0825924 82 79 C82.46600428 96.09303695 74.40610713 111.60890953 63 124 C50.97095123 136.65729402 36.13946705 144.35990913 20.875 152.5 C-12.52258206 170.35478034 -36.70518653 195.86171894 -48.15869141 232.57983398 C-51.97689963 245.25349078 -53.38356927 257.43648841 -53.3125 270.6875 C-53.30976578 271.74540237 -53.30976578 271.74540237 -53.30697632 272.82467651 C-53.21888686 293.07348658 -49.18153338 311.00877141 -40.23535156 329.25439453 C-38 333.81813393 -38 333.81813393 -38 336 C-42.99056867 335.44719855 -46.97047003 333.79142441 -51.375 331.5 C-52.41394409 330.96705322 -52.41394409 330.96705322 -53.47387695 330.42333984 C-55.6560341 329.29469733 -57.82886376 328.14968319 -60 327 C-60.6904541 326.6380957 -61.3809082 326.27619141 -62.09228516 325.90332031 C-76.6294767 318.23177836 -88.7084019 308.72407342 -100.55566406 297.38134766 C-101.83801618 296.15491961 -103.13297661 294.94170513 -104.4296875 293.73046875 C-135.69783782 263.74197583 -153.28100672 218.78875259 -154.28100586 175.92163086 C-154.74414664 132.95724575 -141.66316231 89.26066535 -112.140625 57.328125 C-110.26014223 55.28292842 -108.470666 53.19191183 -106.6875 51.0625 C-81.06467393 21.87119815 -39.45172054 -0.69213545 0 0 Z M-60.796875 60.29296875 C-71.01989031 70.80758014 -74.33282764 83.00981831 -74.38500977 97.14990234 C-74.18703252 109.04351889 -69.8080328 119.03219664 -62 128 C-59.5203755 130.38838291 -56.94100922 132.21818374 -54 134 C-53.13761719 134.53625 -52.27523437 135.0725 -51.38671875 135.625 C-38.99328846 142.60154533 -24.67727897 143.54273468 -11 140 C2.77448122 135.09014383 10.59080082 126.94926608 16.96875 114.0390625 C22.33435759 101.32257251 21.48876829 88.31058288 16.73828125 75.6328125 C10.73407779 62.70321273 1.7429236 54.82757713 -11.5 49.625 C-29.48225494 46.41388305 -46.39525972 48.4860579 -60.796875 60.29296875 Z M-112 122 C-112.433125 123.85625 -112.433125 123.85625 -112.875 125.75 C-113.95739152 128.75723554 -114.6301569 129.78321596 -117.42578125 131.421875 C-119.92965219 132.39934088 -122.41573112 133.26302276 -125 134 C-125 134.33 -125 134.66 -125 135 C-124.38511719 135.08636719 -123.77023437 135.17273438 -123.13671875 135.26171875 C-116.5065192 136.41433717 -116.5065192 136.41433717 -114 139.3125 C-113.04268141 141.8852937 -112.38795933 144.28428467 -112 147 C-109.8364015 144.06777934 -109.8364015 144.06777934 -108.9375 140.5 C-107.90365089 137.92625984 -107.31408129 137.16039383 -104.8046875 135.87890625 C-102.54853479 135.13982174 -100.31794689 134.51023988 -98 134 C-98 133.67 -98 133.34 -98 133 C-99.258125 132.731875 -100.51625 132.46375 -101.8125 132.1875 C-107.19250339 130.81166139 -107.19250339 130.81166139 -109 128 C-110.1875 124.8125 -110.1875 124.8125 -111 122 C-111.33 122 -111.66 122 -112 122 Z M-91 153 C-94.41638906 163.65339642 -96.91227548 173.84676499 -98 185 C-99.01835937 185.09796875 -100.03671875 185.1959375 -101.0859375 185.296875 C-111.94032624 186.41791264 -122.39649647 188.44523775 -133 191 C-126.08276861 197.91723139 -110.40190014 198.63620789 -101 200 C-100.01 200 -99.02 200 -98 200 C-97.91363281 200.87398437 -97.82726562 201.74796875 -97.73828125 202.6484375 C-96.54177642 213.12059905 -94.02643429 222.91573612 -91 233 C-88.77460022 229.66190033 -87.93253339 226.52265675 -87 222.6875 C-86.82629883 221.98560547 -86.65259766 221.28371094 -86.47363281 220.56054688 C-84.8462017 213.76380832 -83.82421481 206.9407563 -83 200 C-81.70707031 199.75765625 -80.41414063 199.5153125 -79.08203125 199.265625 C-69.17091095 197.36888769 -59.5602529 195.27979479 -50 192 C-52.71464389 190.53894342 -55.18247571 189.60323759 -58.1953125 188.96484375 C-58.9896167 188.7956543 -59.7839209 188.62646484 -60.60229492 188.45214844 C-61.4347876 188.28231445 -62.26728027 188.11248047 -63.125 187.9375 C-63.97360596 187.7612207 -64.82221191 187.58494141 -65.6965332 187.40332031 C-71.45727845 186.23605641 -77.12861282 185.385009 -83 185 C-83.14695312 183.74509766 -83.14695312 183.74509766 -83.296875 182.46484375 C-85.05457671 167.02807887 -85.05457671 167.02807887 -91 153 Z M-82 250 C-82.17273438 250.61488281 -82.34546875 251.22976563 -82.5234375 251.86328125 C-84.79138054 258.38621833 -84.79138054 258.38621833 -88.4921875 260.265625 C-90.98921442 260.98714553 -93.43679813 261.57443022 -96 262 C-96 262.33 -96 262.66 -96 263 C-95.07767578 263.14695312 -95.07767578 263.14695312 -94.13671875 263.296875 C-87.55801395 264.51398785 -87.55801395 264.51398785 -85.0625 266.6875 C-83.67192659 269.71404214 -82.8066602 272.77335919 -82 276 C-81.67 276 -81.34 276 -81 276 C-80.85304688 275.38511719 -80.70609375 274.77023437 -80.5546875 274.13671875 C-78.71152359 267.49497293 -78.71152359 267.49497293 -75.125 265 C-72.40935849 264.13099472 -69.81947022 263.41462797 -67 263 C-67 262.67 -67 262.34 -67 262 C-67.68707031 261.84144531 -68.37414062 261.68289063 -69.08203125 261.51953125 C-76.51110904 259.59583586 -76.51110904 259.59583586 -79 256.5625 C-79.33 255.716875 -79.66 254.87125 -80 254 C-80.65794436 252.66234106 -81.32320067 251.32821869 -82 250 Z " fill="#192D37" transform="translate(464,345)"/>
<path d="M0 0 C3 1 3 1 4.71069336 3.97729492 C5.34725365 5.30686151 5.97284572 6.64171196 6.58984375 7.98046875 C6.93066483 8.69694077 7.2714859 9.41341278 7.62263489 10.15159607 C8.3549776 11.69222345 9.083033 13.23489461 9.80725098 14.77935791 C11.69569876 18.80294077 13.61833653 22.81003313 15.54296875 26.81640625 C15.92385651 27.61024719 16.30474426 28.40408813 16.69717407 29.22198486 C21.83299823 39.87321659 27.49711512 50.24707373 33.43554688 60.47167969 C33.89509766 61.27250977 34.35464844 62.07333984 34.828125 62.8984375 C35.24481445 63.61435059 35.66150391 64.33026367 36.09082031 65.06787109 C37 67 37 67 37 70 C40.63 70 44.26 70 48 70 C47.37713159 72.68800977 46.75176793 75.3753992 46.125 78.0625 C45.86396484 79.19075195 45.86396484 79.19075195 45.59765625 80.34179688 C45.24696304 81.8419845 44.88794359 83.34025079 44.52050781 84.83642578 C44.18415796 86.2345179 43.87423108 87.63935073 43.59667969 89.05029297 C42.94793392 91.9802841 42.54289488 93.63947564 39.98828125 95.3359375 C36.65787755 96.07602721 33.32972801 96.66701633 29.95874023 97.18994141 C-18.97056081 104.87138044 -63.25362184 133.16743172 -92.66015625 172.72265625 C-96.44514294 177.94658913 -99.78540364 183.41024641 -103 189 C-103.65742188 190.13824219 -104.31484375 191.27648437 -104.9921875 192.44921875 C-130.86964029 238.43959447 -136.2781539 293.54258939 -122.67480469 344.21142578 C-119.22748303 356.3590377 -114.604072 367.70096622 -109 379 C-108.64180176 379.73798828 -108.28360352 380.47597656 -107.91455078 381.23632812 C-102.35638031 392.62231028 -95.61599595 402.88805024 -88 413 C-87.26136719 413.98484375 -86.52273438 414.9696875 -85.76171875 415.984375 C-66.59670059 440.38277854 -41.01234998 458.13894072 -13 471 C-12.34241699 471.30389648 -11.68483398 471.60779297 -11.00732422 471.92089844 C-4.34624147 474.9514566 2.17219404 477.70371778 9.3671875 479.171875 C23.99806797 482.22985394 31.5667024 487.79415566 41.265625 499.09814453 C42.9014835 500.89197022 44.57324903 502.39158962 46.46875 503.90234375 C47.3040625 504.59457031 48.139375 505.28679687 49 506 C49 506.66 49 507.32 49 508 C43.72 508 38.44 508 33 508 C32.0925 510.083125 31.185 512.16625 30.25 514.3125 C27.92058342 519.65433049 25.56386844 524.98314629 23.1796875 530.30078125 C16.85040359 544.43113275 10.74514557 558.62169213 5 573 C4.01 573 3.02 573 2 573 C-2.01085984 556.0924652 -5.90243133 539.15836446 -9.69927979 522.20150757 C-10.14759999 520.20180345 -10.59757599 518.20246978 -11.04925537 516.20352173 C-11.6913195 513.35939636 -12.32692704 510.51389885 -12.9609375 507.66796875 C-13.152323 506.82519379 -13.3437085 505.98241882 -13.54089355 505.11410522 C-14.72612435 499.75095604 -15.47702038 494.46866695 -16 489 C-17.03640625 488.85691406 -17.03640625 488.85691406 -18.09375 488.7109375 C-21.60634749 487.85167306 -24.33833504 486.37573504 -27.5 484.625 C-28.6034375 484.01914062 -29.706875 483.41328125 -30.84375 482.7890625 C-33.58921451 481.23284623 -36.3038559 479.63981899 -39 478 C-40.37671875 479.28583984 -40.37671875 479.28583984 -41.78125 480.59765625 C-53.27667233 491.31542862 -53.27667233 491.31542862 -59.09375 496.34375 C-65.16230169 501.61642606 -71.07891967 507.06296775 -77 512.5 C-82.30225696 517.36824328 -87.62605975 522.210789 -93 527 C-93.69480469 527.62390625 -94.38960937 528.2478125 -95.10546875 528.890625 C-99.76212033 533 -99.76212033 533 -102 533 C-101.39102293 525.76433507 -99.89750934 519.02564823 -98.05078125 512.01171875 C-97.60813179 510.30409111 -97.60813179 510.30409111 -97.15653992 508.56196594 C-96.5315824 506.156662 -95.90357712 503.75214811 -95.27270508 501.34838867 C-94.32593882 497.738737 -93.38970279 494.12648389 -92.45507812 490.51367188 C-89.45246935 478.97213082 -86.41890229 467.4686663 -82.67341614 456.14128113 C-81.38978767 452.10308302 -80.47789353 449.14672732 -82 445 C-83.82088049 442.77169643 -83.82088049 442.77169643 -86.0625 440.8125 C-87.40755975 439.5761797 -88.72859735 438.31194852 -90 437 C-90 436.34 -90 435.68 -90 435 C-91.69612249 434.19527927 -91.69612249 434.19527927 -94 434 C-96.94590171 435.17684646 -96.94590171 435.17684646 -100.11328125 436.984375 C-108.54392096 441.43198521 -117.30509138 444.82181744 -126.1875 448.25 C-129.54414612 449.55558156 -132.89909885 450.8654833 -136.25390625 452.17578125 C-137.49554535 452.65973106 -137.49554535 452.65973106 -138.76226807 453.15345764 C-143.9763779 455.19088094 -149.16737957 457.2771063 -154.33984375 459.41796875 C-154.97091537 459.67867157 -155.601987 459.93937439 -156.25218201 460.20797729 C-159.16453809 461.41291627 -162.07299503 462.62634242 -164.97729492 463.85058594 C-165.98767822 464.26985352 -166.99806152 464.68912109 -168.0390625 465.12109375 C-168.90740723 465.4864624 -169.77575195 465.85183105 -170.67041016 466.22827148 C-173 467 -173 467 -177 467 C-175.36938795 461.939137 -172.36233988 458.04634206 -169.25 453.8125 C-168.67725342 453.02584961 -168.10450684 452.23919922 -167.5144043 451.42871094 C-162.81245472 445.01145239 -157.94305392 438.73231797 -153.02685547 432.47851562 C-149.09713392 427.46409003 -145.35341521 422.35523049 -141.70214844 417.13598633 C-138.02837737 411.93248853 -134.06183028 406.98190119 -130.02099609 402.05981445 C-128.65811774 400.38972804 -127.32692562 398.69867647 -126 397 C-125.32195312 396.16855469 -124.64390625 395.33710937 -123.9453125 394.48046875 C-122.63635888 391.87480212 -122.63635888 391.87480212 -124.23828125 388.7734375 C-124.92277344 387.65195312 -125.60726562 386.53046875 -126.3125 385.375 C-130 379.23619048 -130 379.23619048 -130 376 C-131.62349365 376.45729492 -131.62349365 376.45729492 -133.27978516 376.92382812 C-138.64162059 378.25940271 -144.03008498 378.72856951 -149.5234375 379.21875 C-150.62362213 379.32215698 -151.72380676 379.42556396 -152.85733032 379.53210449 C-156.36270888 379.86053904 -159.8687843 380.1806382 -163.375 380.5 C-167.96637469 380.92463952 -172.55742094 381.35275842 -177.1484375 381.78125 C-178.25742401 381.88390167 -179.36641052 381.98655334 -180.50900269 382.09231567 C-187.82245176 382.77524321 -195.12417838 383.52858972 -202.41708374 384.40515137 C-207.65298767 385.02035336 -212.73468122 385.16984899 -218 385 C-212.69610352 378.02916462 -205.99602873 373.14283264 -199 368 C-197.92878906 367.21230225 -197.92878906 367.21230225 -196.8359375 366.40869141 C-190.46492095 361.72758152 -190.46492095 361.72758152 -187.36914062 359.46142578 C-181.76709704 355.34652263 -176.27205261 351.11403749 -170.8125 346.8125 C-162.78801293 340.49736588 -154.49075461 334.66821493 -146 329 C-146.14120714 327.06215735 -146.28812873 325.12473045 -146.4375 323.1875 C-146.55931641 321.56908203 -146.55931641 321.56908203 -146.68359375 319.91796875 C-146.90212461 316.94010095 -146.90212461 316.94010095 -148 314 C-150.83054486 312.93406882 -150.83054486 312.93406882 -154.3984375 312.1953125 C-155.08050766 312.03492996 -155.76257782 311.87454742 -156.46531677 311.70930481 C-157.96896894 311.3568914 -159.47399467 311.01030233 -160.98013306 310.66867065 C-165.12979176 309.726636 -169.26922862 308.74129019 -173.41015625 307.76171875 C-174.30987656 307.55005569 -175.20959686 307.33839264 -176.13658142 307.12031555 C-188.40215672 304.22076873 -200.6039261 301.06658017 -212.8125 297.9375 C-215.12090263 297.34705708 -217.42933304 296.75672276 -219.73779297 296.16650391 C-225.15908902 294.77985099 -230.57980342 293.39094408 -236 292 C-236 291.01 -236 290.02 -236 289 C-229.58355816 285.93002182 -223.15984728 283.70467246 -216.31640625 281.79296875 C-214.80781036 281.36309914 -214.80781036 281.36309914 -213.26873779 280.92454529 C-210.03523867 280.00527849 -206.7990711 279.0958861 -203.5625 278.1875 C-201.3419566 277.56003174 -199.12149779 276.93226404 -196.90112305 276.30419922 C-191.54590482 274.79198108 -186.18807937 273.28928208 -180.82885742 271.7913208 C-178.30645925 271.08572634 -175.78487119 270.37734397 -173.26367188 269.66748047 C-169.61648336 268.64159519 -165.96548305 267.63008398 -162.3125 266.625 C-161.31355713 266.34551514 -160.31461426 266.06603027 -159.28540039 265.77807617 C-154.74200433 264.55025188 -150.75595393 263.66873953 -146 264 C-145.67200404 261.15736835 -145.43778639 258.35256471 -145.25 255.5 C-145.14945312 254.70851563 -145.04890625 253.91703125 -144.9453125 253.1015625 C-144.8092986 250.33594654 -144.95067302 248.57646036 -146 246 C-149.62522353 242.70486687 -153.76954536 240.43730148 -158 238 C-160.00318138 236.67068948 -161.99440299 235.32316307 -163.97265625 233.95703125 C-164.96507324 233.28212646 -165.95749023 232.60722168 -166.97998047 231.91186523 C-167.99721191 231.21907471 -169.01444336 230.52628418 -170.0625 229.8125 C-171.68115967 228.71047241 -171.68115967 228.71047241 -173.33251953 227.58618164 C-175.51797193 226.09783269 -177.70319703 224.60914993 -179.88818359 223.12011719 C-182.74338389 221.17483558 -185.60007867 219.2317691 -188.45703125 217.2890625 C-196.73596499 211.65186272 -204.95391316 205.96660832 -213 200 C-213.804375 199.42378906 -214.60875 198.84757813 -215.4375 198.25390625 C-216.55125 197.44759766 -216.55125 197.44759766 -217.6875 196.625 C-218.33074219 196.16351563 -218.97398437 195.70203125 -219.63671875 195.2265625 C-220.08660156 194.82179688 -220.53648437 194.41703125 -221 194 C-221 193.34 -221 192.68 -221 192 C-203.25484714 192.56305662 -185.5556464 193.52038066 -167.84326172 194.72949219 C-164.48872842 194.95816346 -161.13397915 195.18279092 -157.77902031 195.40507507 C-154.51657718 195.62176373 -151.25439007 195.84222375 -147.9921875 196.0625 C-146.80261444 196.14169678 -145.61304138 196.22089355 -144.38742065 196.30249023 C-138.55983282 196.70316416 -132.78662093 197.1987892 -127 198 C-126.9071875 196.7934375 -126.9071875 196.7934375 -126.8125 195.5625 C-125.73463007 190.8364549 -123.48408581 187.12486573 -121 183 C-121.60585938 182.28457031 -122.21171875 181.56914062 -122.8359375 180.83203125 C-127.32461541 175.49395736 -131.72342876 170.120372 -135.9375 164.5625 C-139.3138158 160.11561266 -142.80461153 155.8022613 -146.4375 151.5625 C-150.66482122 146.62802816 -154.72622674 141.59113749 -158.71655273 136.46362305 C-162.95850997 131.02221062 -167.30563523 125.66964125 -171.67333984 120.32885742 C-179 111.35829349 -179 111.35829349 -179 109 C-174.07092028 109.6239949 -169.70493123 111.1028193 -165.11328125 112.921875 C-164.35046341 113.21835434 -163.58764557 113.51483368 -162.80171204 113.82029724 C-161.15887833 114.45927303 -159.517015 115.10074827 -157.8760376 115.74447632 C-153.50918124 117.45733494 -149.1353759 119.15225402 -144.76171875 120.84765625 C-143.86892212 121.19415726 -142.97612549 121.54065826 -142.05627441 121.8976593 C-131.50296277 125.98363537 -120.88560193 129.8954217 -110.2590332 133.78613281 C-103.39755323 136.30662728 -96.63456096 138.91809197 -90 142 C-88.0146241 140.06852571 -86.03670608 138.13033391 -84.0625 136.1875 C-83.21655273 135.36668945 -83.21655273 135.36668945 -82.35351562 134.52929688 C-78.98970438 131.22039606 -78.98970438 131.22039606 -77 127 C-77.75080653 124.10123341 -77.75080653 124.10123341 -79 120.7734375 C-81.30321625 114.18212028 -83.38725046 107.54464445 -85.375 100.8515625 C-85.66938965 99.86186462 -85.9637793 98.87216675 -86.26708984 97.85247803 C-87.18002587 94.77723111 -88.0900616 91.70113505 -89 88.625 C-89.60915082 86.57285011 -90.2185247 84.52076642 -90.828125 82.46875 C-92.00798662 78.49631038 -93.1832201 74.52254371 -94.35546875 70.54785156 C-95.40381863 66.99761808 -96.46820891 63.45302787 -97.55078125 59.91308594 C-97.78651855 59.13460297 -98.02225586 58.35612 -98.26513672 57.55404663 C-98.69739128 56.12804998 -99.13479645 54.70359898 -99.57861328 53.28115845 C-100.64047954 49.75593191 -101.23265088 46.68452018 -101 43 C-96.16805069 44.51111523 -93.07472883 47.25937147 -89.375 50.5625 C-88.12457643 51.65725425 -86.87326545 52.75099568 -85.62109375 53.84375 C-85.0060498 54.38257813 -84.39100586 54.92140625 -83.75732422 55.4765625 C-81.35822362 57.55636074 -78.90394264 59.56326896 -76.4375 61.5625 C-72.98970918 64.3581427 -69.58772064 67.19638435 -66.21704102 70.08374023 C-60.65370566 74.84586336 -54.97515458 79.32979441 -49.0546875 83.6484375 C-46.79361049 85.389062 -44.68500326 87.13572208 -42.5703125 89.0390625 C-41.99539063 89.55146484 -41.42046875 90.06386719 -40.828125 90.59179688 C-39.71806685 91.59110381 -38.62085727 92.60492898 -37.5390625 93.63476562 C-34.98791917 95.9223342 -33.58521561 97.0063096 -30.1015625 96.96875 C-29.07804688 96.6490625 -28.05453125 96.329375 -27 96 C-25.74703125 95.61585938 -24.4940625 95.23171875 -23.203125 94.8359375 C-21.88296616 94.35564114 -20.56526264 93.86854649 -19.25 93.375 C-18.57839844 93.15199219 -17.90679687 92.92898438 -17.21484375 92.69921875 C-14.96974905 91.91490585 -14.96974905 91.91490585 -12 90 C-10.03305272 84.71544292 -9.44799309 79.3932055 -8.88671875 73.80859375 C-8.79201294 72.92153748 -8.69730713 72.0344812 -8.59973145 71.12054443 C-8.39645053 69.21541623 -8.19566808 67.31002006 -7.99716187 65.40438843 C-7.47138895 60.3669274 -6.92470724 55.33177366 -6.375 50.296875 C-6.26343063 49.27446213 -6.15186127 48.25204926 -6.03691101 47.19865417 C-4.89399628 36.84299005 -3.56914916 26.51370089 -2.1875 16.1875 C-2.02113541 14.94285477 -2.02113541 14.94285477 -1.85140991 13.67306519 C-1.24074811 9.11448592 -0.62359172 4.5568313 0 0 Z " fill="#1D313C" transform="translate(418,226)"/>
<path d="M0 0 C0.94407715 0.30768311 1.8881543 0.61536621 2.86083984 0.93237305 C13.93359313 4.7461019 23.0847609 10.40993367 31.9375 18 C32.76121094 18.66644531 33.58492187 19.33289063 34.43359375 20.01953125 C46.03332232 29.77343718 53.33329501 41.68593695 57.9375 56 C58.27652344 57.04929687 58.61554688 58.09859375 58.96484375 59.1796875 C66.04148793 85.85570105 59.32667009 114.77940552 46.84765625 138.72265625 C41.40611462 148.05896183 34.35411438 156.18814285 26.9375 164 C26.46860352 164.50144531 25.99970703 165.00289062 25.51660156 165.51953125 C13.28454046 178.53539433 -2.90516306 193.7550074 -21.5 195.9375 C-23.2634375 195.9684375 -23.2634375 195.9684375 -25.0625 196 C-23.64229525 192.79561843 -21.90701365 190.59594265 -19.5 188.0625 C-4.19613597 171.0674481 4.51404527 152.13137501 4.375 129.0625 C4.39498047 127.89009766 4.41496094 126.71769531 4.43554688 125.50976562 C4.42952798 114.609547 1.9187168 104.75539882 -3.4375 95.25 C-3.98148438 94.26515625 -4.52546875 93.2803125 -5.0859375 92.265625 C-7.61482171 88.08746848 -10.32345847 84.04254089 -13.0625 80 C-13.04678955 80.62865967 -13.0310791 81.25731934 -13.01489258 81.9050293 C-12.53377499 104.09936914 -14.54744764 120.03518046 -30.0625 137 C-38.09017698 145.27050707 -49.67777225 153.55081816 -61.5625 154.1875 C-62.3875 154.125625 -63.2125 154.06375 -64.0625 154 C-62.56455841 150.57501897 -60.55235049 148.20745868 -58.0625 145.4375 C-47.86854077 133.08965584 -41.63423954 118.50353322 -38.0625 103 C-37.81886719 101.98679687 -37.57523438 100.97359375 -37.32421875 99.9296875 C-32.51466538 75.39114991 -35.59494351 46.63115303 -49.38671875 25.35546875 C-60.46812255 9.77950956 -73.38697883 0.70832772 -90.0625 -8 C-89.7325 -8.99 -89.4025 -9.98 -89.0625 -11 C-61.25250619 -18.48730602 -26.42795424 -8.67799128 0 0 Z M-15.0625 77 C-14.0625 79 -14.0625 79 -14.0625 79 Z " fill="#192C37" transform="translate(677.0625,569)"/>
<path d="M0 0 C0.928125 0.721875 1.85625 1.44375 2.8125 2.1875 C3.43640625 2.66832031 4.0603125 3.14914062 4.703125 3.64453125 C13.55039911 10.8540466 19.63919901 19.89409662 21.8125 31.1875 C23.21865584 44.98706236 21.16981539 56.83914541 12.8125 68.1875 C7.04085714 75.01578215 1.18051707 79.94826758 -7.1875 83.1875 C-8.05375 83.55101562 -8.92 83.91453125 -9.8125 84.2890625 C-14.54242938 85.54818722 -19.06289365 85.55591269 -23.9375 85.5625 C-24.8759375 85.58699219 -25.814375 85.61148438 -26.78125 85.63671875 C-38.2307875 85.68416158 -47.96181485 80.93340758 -56.31640625 73.22265625 C-66.96552985 62.04814895 -69.77172457 50.52530904 -69.51953125 35.6484375 C-69.00229087 23.3155536 -64.12146792 14.59505567 -55.1875 6.1875 C-54.52492188 5.51847656 -53.86234375 4.84945312 -53.1796875 4.16015625 C-39.16506974 -9.25869841 -16.13901549 -9.17708724 0 0 Z " fill="#172A35" transform="translate(579.1875,584.8125)"/>
<path d="M0 0 C1.05703125 0.38542969 2.1140625 0.77085937 3.203125 1.16796875 C9.90498885 3.76957168 16.02503546 7.0136215 22 11 C22.88816406 11.58910156 23.77632812 12.17820312 24.69140625 12.78515625 C37.45503299 21.79783962 49.92955177 33.55714195 58 47 C58.49113281 47.7115625 58.98226562 48.423125 59.48828125 49.15625 C67.13089605 60.68929146 72.23432737 75.17468515 72 89 C67.99549723 87.66516574 67.03986249 85.14303707 65 81.6875 C60.43971008 74.28973859 55.12692826 68.13611406 49 62 C48.03513672 61.01773438 48.03513672 61.01773438 47.05078125 60.015625 C32.77696109 46.51587318 12.51162351 38.69998571 -7 38 C-17.25335658 38.44597047 -27.68239913 40.67239391 -37 45 C-37.90878906 45.42023438 -38.81757812 45.84046875 -39.75390625 46.2734375 C-56.61650359 54.76336829 -66.66382801 70.2326506 -76.88671875 85.44921875 C-80.88236332 91.35446357 -85.08250374 97.1045456 -89.75 102.5 C-90.32234375 103.1703125 -90.8946875 103.840625 -91.484375 104.53125 C-93 106 -93 106 -95 106 C-95.33 106.99 -95.66 107.98 -96 109 C-98.21484375 110.82421875 -98.21484375 110.82421875 -100.9375 112.6875 C-102.28134766 113.62142578 -102.28134766 113.62142578 -103.65234375 114.57421875 C-106 116 -106 116 -108 116 C-106.70231419 112.41268007 -105.02221586 109.21954466 -103.08105469 105.94018555 C-91.07163704 85.56468554 -84.75561338 64.72526257 -80.5 41.625 C-77.47799687 25.30289451 -73.29450614 10.93304307 -59 1 C-42.05084937 -7.53926673 -17.41719484 -6.78563302 0 0 Z " fill="#1B2F3A" transform="translate(749,372)"/>
<path d="M0 0 C2.26237329 0.0031577 4.52343226 -0.02035485 6.78564453 -0.0456543 C15.03805397 -0.07994033 22.54775695 0.50773889 30.39892578 3.31567383 C30.39892578 3.97567383 30.39892578 4.63567383 30.39892578 5.31567383 C29.80055908 5.38560547 29.20219238 5.45553711 28.58569336 5.52758789 C3.07635342 8.57508802 -23.66163104 15.94981171 -40.73779297 36.79223633 C-56.73477266 58.45690903 -62.8881317 81.11025524 -59.01904297 108.12426758 C-55.45358381 127.49409824 -43.64343106 145.13036221 -27.60107422 156.31567383 C-12.557153 165.89408928 2.83977927 168.89297113 20.39892578 170.31567383 C20.06892578 171.30567383 19.73892578 172.29567383 19.39892578 173.31567383 C0.07061051 181.40974423 -22.75880618 178.48017573 -41.6887207 171.03930664 C-62.40114344 162.41181935 -78.95206582 146.20488362 -88.54248047 125.92895508 C-97.53337762 103.73371451 -97.2209339 79.05876741 -88.20703125 56.92749023 C-78.67950493 35.03069483 -60.04981452 16.30722816 -37.86669922 7.33129883 C-33.15362116 5.52174806 -28.42749428 3.79923465 -23.60107422 2.31567383 C-22.9454248 2.10885986 -22.28977539 1.9020459 -21.61425781 1.68896484 C-14.54754919 -0.21621709 -7.26353966 -0.02117421 0 0 Z " fill="#1B303A" transform="translate(580.60107421875,225.684326171875)"/>
<path d="M0 0 C1.58494263 0.01135986 1.58494263 0.01135986 3.2019043 0.02294922 C11.18801773 0.19131077 17.85597545 1.08026836 25.1875 4.4375 C26.12207031 4.86160156 27.05664062 5.28570312 28.01953125 5.72265625 C38.83680207 11.15398524 49.14281642 19.54217702 56.1875 29.4375 C56.56613806 31.09446171 56.90604464 32.76129244 57.1875 34.4375 C52.13659785 32.92708859 47.0880441 31.40980853 42.046875 29.8671875 C41.20382812 29.61066406 40.36078125 29.35414063 39.4921875 29.08984375 C37.77258355 28.56660035 36.05384534 28.0405042 34.3359375 27.51171875 C13.99117379 21.34569037 -7.03045065 22.84196652 -25.71484375 32.80615234 C-30.79364123 35.65199037 -35.12107653 38.86274414 -39.24609375 43.00390625 C-40.8125 44.4375 -40.8125 44.4375 -42.8125 44.4375 C-43.1425 45.4275 -43.4725 46.4175 -43.8125 47.4375 C-44.4725 47.4375 -45.1325 47.4375 -45.8125 47.4375 C-48.34968544 42.36312912 -47.06969585 35.58523175 -45.625 30.3125 C-44.01860554 25.51583618 -41.78751084 21.51215668 -38.8125 17.4375 C-38.39355469 16.84195312 -37.97460938 16.24640625 -37.54296875 15.6328125 C-28.2655669 3.60159973 -14.53215994 -0.14612179 0 0 Z " fill="#1F333D" transform="translate(707.8125,309.5625)"/>
<path d="M0 0 C15.0307989 9.91527491 25.13370182 23.45825414 29.66210938 40.88012695 C30.74017215 46.4872155 30.73637943 52.06188398 30.68847656 57.75537109 C30.68235352 58.98916504 30.67623047 60.22295898 30.66992188 61.49414062 C30.47074466 73.08778694 29.03911605 82.27405057 22.25097656 91.94287109 C19.72879815 89.42069268 19.80268907 88.08991367 19.35644531 84.58740234 C19.20852539 83.4972583 19.06060547 82.40711426 18.90820312 81.28393555 C18.75319336 80.11950928 18.59818359 78.95508301 18.43847656 77.75537109 C15.23655964 55.67686234 8.32816823 37.61635189 -7.74902344 21.94287109 C-8.40515625 21.27771484 -9.06128906 20.61255859 -9.73730469 19.92724609 C-17.9622524 12.10738146 -28.72824091 7.10650964 -39.17089844 2.97412109 C-42.13327487 1.78917052 -44.92959144 0.43090465 -47.74902344 -1.05712891 C-47.74902344 -1.71712891 -47.74902344 -2.37712891 -47.74902344 -3.05712891 C-32.48888209 -8.38483874 -14.1789913 -8.56993751 0 0 Z " fill="#223640" transform="translate(764.7490234375,535.05712890625)"/>
<path d="M0 0 C3 1 3 1 4.71069336 3.97729492 C5.34725365 5.30686151 5.97284572 6.64171196 6.58984375 7.98046875 C6.93066483 8.69694077 7.2714859 9.41341278 7.62263489 10.15159607 C8.3549776 11.69222345 9.083033 13.23489461 9.80725098 14.77935791 C11.69569876 18.80294077 13.61833653 22.81003313 15.54296875 26.81640625 C15.92385651 27.61024719 16.30474426 28.40408813 16.69717407 29.22198486 C21.81885779 39.8438906 27.38376866 50.27801845 33.43554688 60.40136719 C33.89509766 61.18415039 34.35464844 61.96693359 34.828125 62.7734375 C35.24481445 63.46614746 35.66150391 64.15885742 36.09082031 64.87255859 C37.16345178 67.38247015 37.16406796 69.29759997 37 72 C35.95211304 72.27880005 35.95211304 72.27880005 34.88305664 72.56323242 C17.90179471 77.07590157 17.90179471 77.07590157 1 81.875 C0.307854 82.07762451 -0.38429199 82.28024902 -1.09741211 82.48901367 C-3.48843505 83.19990808 -5.76414611 83.88207305 -8 85 C-8.07015288 80.58036846 -8.06176337 76.33814614 -7.51708984 71.95141602 C-7.04872015 67.83060779 -6.84054595 63.74452316 -6.71263123 59.6008606 C-6.30640559 46.6405823 -4.75515345 33.95229042 -2.9375 21.125 C-2.65208646 19.05741685 -2.36757764 16.98970861 -2.08398438 14.921875 C-1.39967821 9.94642172 -0.70338184 4.97279084 0 0 Z " fill="#1A2C38" transform="translate(418,226)"/>
<path d="M0 0 C10.31106025 0.43876852 17.8384669 6.0193211 24.734375 13.31640625 C32.67793684 22.72541829 35.53871476 31.29463488 35.3125 43.49609375 C33.64070913 62.24104891 22.81621046 75.4897537 9.0859375 87.4375 C6.53606185 89.34751921 4.11807623 90.36039462 1 91 C2.19325742 87.11895977 3.65134944 83.53505966 5.46240234 79.90185547 C14.35879001 61.97104094 17.86528362 42.14819816 11.99609375 22.66796875 C9.29718106 15.72918002 5.46083361 9.92155999 1 4 C0.34 3.01 -0.32 2.02 -1 1 C-0.67 0.67 -0.34 0.34 0 0 Z " fill="#233843" transform="translate(567,680)"/>
<path d="M0 0 C16.31807016 -0.81590351 29.19167502 5.71804953 41.21484375 16.3828125 C53.51668385 27.9427464 62.52865222 44.51083945 63.23828125 61.56640625 C63.53897981 75.45700936 63.53897981 75.45700936 61 80 C60.01 80.66 59.02 81.32 58 82 C57.79020508 80.89881836 57.79020508 80.89881836 57.57617188 79.77539062 C52.51159218 53.7685296 44.35318625 30.90186095 21.62548828 15.11694336 C14.69668386 10.45322429 7.60023212 6.48167058 0 3 C0 2.01 0 1.02 0 0 Z " fill="#2C3F49" transform="translate(701,559)"/>
<path d="M0 0 C0.33 0 0.66 0 1 0 C1.15723924 10.04584053 0.67192387 19.9811352 0 30 C1.0725 29.57847656 2.145 29.15695312 3.25 28.72265625 C8.74549229 26.66305604 14.36296626 25.05954251 20 23.4375 C21.56234375 22.98213867 21.56234375 22.98213867 23.15625 22.51757812 C38.74632353 18 38.74632353 18 44 18 C44 17.34 44 16.68 44 16 C45.65 16 47.3 16 49 16 C47.68 16.33 46.36 16.66 45 17 C44.67 19.31 44.34 21.62 44 24 C40.12048119 25.39776781 36.59201928 26.25469027 32.5 26.6875 C24.86127154 27.75975771 17.72652859 30.16764164 10.42773438 32.61206055 C9.51056641 32.91797119 8.59339844 33.22388184 7.6484375 33.5390625 C6.41359619 33.95986084 6.41359619 33.95986084 5.15380859 34.38916016 C3 35 3 35 0 35 C0 35.66 0 36.32 0 37 C-1.65 37 -3.3 37 -5 37 C-4.70351563 35.989375 -4.40703125 34.97875 -4.1015625 33.9375 C-2.46791891 27.40292563 -2.01636442 20.68874725 -1.375 14 C-1.24012649 12.63926897 -1.1047142 11.27859123 -0.96875 9.91796875 C-0.64054377 6.61246314 -0.31778772 3.30652073 0 0 Z " fill="#485C65" transform="translate(411,280)"/>
<path d="M0 0 C1.36125 0.928125 1.36125 0.928125 2.75 1.875 C5.15944116 3.45040384 7.42554349 4.7575449 10 6 C9.2471875 6.37769531 8.494375 6.75539063 7.71875 7.14453125 C-1.72781868 12.03977983 -10.35631383 17.81214002 -19 24 C-19.69577148 24.49677246 -20.39154297 24.99354492 -21.10839844 25.50537109 C-23.1607555 26.97576625 -25.20699351 28.45414554 -27.25 29.9375 C-27.86987793 30.38577148 -28.48975586 30.83404297 -29.12841797 31.29589844 C-32.34436979 33.65729282 -35.27009999 36.08765618 -38 39 C-38.66 38.67 -39.32 38.34 -40 38 C-39.649375 37.443125 -39.29875 36.88625 -38.9375 36.3125 C-37.78154007 33.46113217 -38.19032562 31.91482778 -39 29 C-38.01 28.67 -37.02 28.34 -36 28 C-36 28.99 -36 29.98 -36 31 C-35.319375 30.29875 -34.63875 29.5975 -33.9375 28.875 C-25.12073739 20.15539179 -14.86891691 13.32688109 -4.125 7.1875 C-0.8054188 5.31372421 -0.8054188 5.31372421 0 2.1875 C0 1.465625 0 0.74375 0 0 Z " fill="#3E505B" transform="translate(379,319)"/>
<path d="M0 0 C2.475 0.495 2.475 0.495 5 1 C5 1.66 5 2.32 5 3 C4.34 3 3.68 3 3 3 C2.76152344 3.55300781 2.52304687 4.10601562 2.27734375 4.67578125 C0.70117937 7.54372561 -1.27257653 9.73161082 -3.4375 12.1875 C-10.48819294 20.38868613 -16.38954684 29.5879019 -21.69140625 39.00390625 C-22.12324219 39.66261719 -22.55507813 40.32132812 -23 41 C-23.66 41 -24.32 41 -25 41 C-25.33 41.66 -25.66 42.32 -26 43 C-27.32 41.35 -28.64 39.7 -30 38 C-29.40574219 37.78085937 -28.81148438 37.56171875 -28.19921875 37.3359375 C-25.27577267 35.56006084 -24.41229729 33.63498898 -22.8125 30.625 C-16.53710383 19.43610215 -8.27553007 9.74404793 0 0 Z " fill="#394C59" transform="translate(324,367)"/>
<path d="M0 0 C2.31 0 4.62 0 7 0 C6.63032104 0.94129761 6.63032104 0.94129761 6.25317383 1.90161133 C0.96902075 15.44063504 -3.70158327 28.84223131 -7 43 C-7.32161458 44.35416667 -7.64322917 45.70833333 -7.96484375 47.0625 C-8.66066495 50.03817774 -9.34105169 53.01598206 -10 56 C-10.33 56 -10.66 56 -11 56 C-11.103125 54.741875 -11.20625 53.48375 -11.3125 52.1875 C-11.64858808 49.39500343 -11.80025876 48.25566879 -13.5625 46 C-14.036875 45.67 -14.51125 45.34 -15 45 C-14.34 45 -13.68 45 -13 45 C-12.75354736 44.12375977 -12.50709473 43.24751953 -12.25317383 42.34472656 C-11.317832 39.0329398 -10.37579122 35.72320214 -9.42944336 32.41455078 C-9.02448311 30.99374446 -8.62205477 29.57221355 -8.22241211 28.14990234 C-5.90689685 19.91631357 -3.39939657 12.05057414 0.1730957 4.24902344 C0.44597412 3.5068457 0.71885254 2.76466797 1 2 C0.67 1.34 0.34 0.68 0 0 Z " fill="#384A58" transform="translate(284,424)"/>
<path d="M0 0 C0.66 0 1.32 0 2 0 C2.28230469 0.58523438 2.56460937 1.17046875 2.85546875 1.7734375 C9.42457376 14.60341972 18.4443799 26.24940788 27.70703125 37.25 C29 39 29 39 29 41 C29.66 41 30.32 41 31 41 C30 43 30 43 26.9375 44.125 C25.968125 44.41375 24.99875 44.7025 24 45 C24.33 43.35 24.66 41.7 25 40 C24.39639648 39.73606445 23.79279297 39.47212891 23.17089844 39.20019531 C20.88456497 37.93618099 19.82596573 36.86371377 18.265625 34.796875 C17.77747314 34.15298828 17.28932129 33.50910156 16.78637695 32.84570312 C16.27937256 32.15412109 15.77236816 31.46253906 15.25 30.75 C14.7243042 30.03779297 14.1986084 29.32558594 13.65698242 28.59179688 C0.89852246 11.02187554 0.89852246 11.02187554 0 0 Z " fill="#374F5E" transform="translate(295,617)"/>
<path d="M0 0 C-0.00333092 0.88869781 -0.00333092 0.88869781 -0.00672913 1.79534912 C-0.02884607 7.9595886 -0.04393344 14.1238168 -0.05493164 20.28808594 C-0.05996157 22.58887184 -0.06678624 24.88965455 -0.07543945 27.19042969 C-0.08756359 30.49675282 -0.09324172 33.8030337 -0.09765625 37.109375 C-0.10281754 38.13867126 -0.10797882 39.16796753 -0.11329651 40.22845459 C-0.11337204 41.18914856 -0.11344757 42.14984253 -0.11352539 43.13964844 C-0.11685631 44.40539703 -0.11685631 44.40539703 -0.12025452 45.69671631 C-0.00320253 47.93866064 0.44267217 49.83422876 1 52 C1.03888349 54.33300933 1.0448635 56.66709801 1 59 C0.67 59 0.34 59 0 59 C-0.66 56.03 -1.32 53.06 -2 50 C-4.31 49.34 -6.62 48.68 -9 48 C-7.515 47.505 -7.515 47.505 -6 47 C-5.96241577 45.221698 -5.96241577 45.221698 -5.92407227 43.4074707 C-5.82974468 38.99981282 -5.72958623 34.59230322 -5.62768555 30.18481445 C-5.58443247 28.27892532 -5.54275075 26.37299983 -5.50268555 24.46704102 C-5.44474929 21.72400979 -5.3811226 18.98115987 -5.31640625 16.23828125 C-5.29969376 15.38913651 -5.28298126 14.53999176 -5.26576233 13.66511536 C-5.1660381 9.66292858 -4.97583449 5.90681068 -4 2 C-5.98 2 -7.96 2 -10 2 C-6.57602277 -0.10706291 -3.96057533 -0.08680713 0 0 Z " fill="#425664" transform="translate(272,490)"/>
<path d="M0 0 C0.99 0.86625 1.98 1.7325 3 2.625 C6.12191828 5.29915311 9.33007623 7.79452226 12.63671875 10.234375 C15.02837666 12.02120042 17.38599057 13.84878221 19.74169922 15.68261719 C30.18446103 23.99588796 30.18446103 23.99588796 42 30 C37.375 35.875 37.375 35.875 34 37 C33.67 36.01 33.34 35.02 33 34 C33.99 33.67 34.98 33.34 36 33 C36 32.34 36 31.68 36 31 C35.31292969 30.9278125 34.62585938 30.855625 33.91796875 30.78125 C30.14857622 29.77204183 27.40442122 27.78538847 24.3125 25.5 C23.69890625 25.05293701 23.0853125 24.60587402 22.453125 24.14526367 C1.69868017 8.79878157 1.69868017 8.79878157 0 0 Z " fill="#365362" transform="translate(338,672)"/>
<path d="M0 0 C0.33 0 0.66 0 1 0 C1.14695312 0.91136719 1.29390625 1.82273437 1.4453125 2.76171875 C4.36246688 19.61080006 9.39882485 35.8656415 15 52 C14.01 52.495 14.01 52.495 13 53 C8.73633359 48.47937156 7.02367152 43.43890995 5 37.6875 C4.65114746 36.71723877 4.30229492 35.74697754 3.94287109 34.74731445 C1.40032595 27.52679531 -0.59292613 20.30185073 -2.2109375 12.82421875 C-2.47132813 11.89222656 -2.73171875 10.96023438 -3 10 C-3.66 9.67 -4.32 9.34 -5 9 C-4.0409375 8.443125 -4.0409375 8.443125 -3.0625 7.875 C-0.36141928 5.41947207 -0.31592995 3.55421195 0 0 Z " fill="#394F5E" transform="translate(273,549)"/>
<path d="M0 0 C4.10935845 0.69519222 7.84055028 1.9415351 11.75 3.375 C13.00763648 3.829914 14.26544866 4.28434255 15.5234375 4.73828125 C17.46636362 5.44341062 19.40917639 6.14885321 21.3515625 6.85546875 C26.94497979 8.80992537 32.65280471 10.20636391 38.41748047 11.55493164 C43.62600988 12.80039449 43.62600988 12.80039449 46.02734375 14.08203125 C49.03241554 15.48043099 51.96261569 15.44236754 55.25 15.625 C56.51328125 15.69976563 57.7765625 15.77453125 59.078125 15.8515625 C60.04234375 15.90054688 61.0065625 15.94953125 62 16 C62 16.66 62 17.32 62 18 C56.39 18 50.78 18 45 18 C45 17.34 45 16.68 45 16 C43.87078125 16.04511719 42.7415625 16.09023438 41.578125 16.13671875 C36.73318975 16.1313923 32.3987883 15.0987578 27.75 13.8125 C26.92024658 13.58763916 26.09049316 13.36277832 25.2355957 13.13110352 C16.38621804 10.66104988 7.24969745 7.84003406 0 2 C0 1.34 0 0.68 0 0 Z " fill="#39535F" transform="translate(405,716)"/>
<path d="M0 0 C6.1105424 -0.11269443 11.95170514 0.10395632 18 1 C17.67 1.99 17.34 2.98 17 4 C3.58162908 9.61917774 -13.88702187 9.92238436 -28 7 C-28 6.67 -28 6.34 -28 6 C-27.23333008 6.01047363 -26.46666016 6.02094727 -25.67675781 6.03173828 C-22.20120526 6.07332699 -18.72570509 6.09933551 -15.25 6.125 C-14.0434375 6.14175781 -12.836875 6.15851563 -11.59375 6.17578125 C-9.85351562 6.18544922 -9.85351562 6.18544922 -8.078125 6.1953125 C-6.47565918 6.21102295 -6.47565918 6.21102295 -4.84082031 6.22705078 C-1.97745144 5.99819782 -0.47709321 5.35363575 2 4 C2.99 4 3.98 4 5 4 C5 3.01 5 2.02 5 1 C3.35 1 1.7 1 0 1 C0 0.67 0 0.34 0 0 Z " fill="#718885" transform="translate(583,395)"/>
<path d="M0 0 C1.14806133 3.41975716 0.83383098 5.72148953 0.00390625 9.203125 C-0.22490234 10.1828125 -0.45371094 11.1625 -0.68945312 12.171875 C-1.05973633 13.69554687 -1.05973633 13.69554687 -1.4375 15.25 C-1.68048828 16.28125 -1.92347656 17.3125 -2.17382812 18.375 C-2.77442781 20.91871633 -3.38341641 23.46011941 -4 26 C-4.33 26 -4.66 26 -5 26 C-5.103125 24.741875 -5.20625 23.48375 -5.3125 22.1875 C-5.64858808 19.39500343 -5.80025876 18.25566879 -7.5625 16 C-8.036875 15.67 -8.51125 15.34 -9 15 C-8.34 15 -7.68 15 -7 15 C-6.82984375 14.25234375 -6.6596875 13.5046875 -6.484375 12.734375 C-6.24203125 11.74953125 -5.9996875 10.7646875 -5.75 9.75 C-5.51796875 8.77546875 -5.2859375 7.8009375 -5.046875 6.796875 C-3.88200734 3.68476589 -2.48669455 2.15787544 0 0 Z " fill="#3D525D" transform="translate(278,454)"/>
<path d="M0 0 C1.24716797 0.10054687 1.24716797 0.10054687 2.51953125 0.203125 C5.1875 0.75 5.1875 0.75 8.05078125 2.25390625 C11.70382458 3.99626689 14.53589081 4.2475656 18.5625 4.4375 C20.43035156 4.53611328 20.43035156 4.53611328 22.3359375 4.63671875 C23.27695312 4.67410156 24.21796875 4.71148438 25.1875 4.75 C25.1875 5.41 25.1875 6.07 25.1875 6.75 C19.5775 6.75 13.9675 6.75 8.1875 6.75 C8.1875 6.09 8.1875 5.43 8.1875 4.75 C7.0325 4.79125 5.8775 4.8325 4.6875 4.875 C0.24268699 4.89087433 -3.54974131 3.96793105 -7.8125 2.75 C-7.8125 2.09 -7.8125 1.43 -7.8125 0.75 C-4.75207234 -0.27014255 -3.15684855 -0.29095378 0 0 Z " fill="#5F737A" transform="translate(441.8125,727.25)"/>
<path d="M0 0 C0.99 0.86625 1.98 1.7325 3 2.625 C5.65462551 4.90808563 8.36708471 7.05069832 11.1875 9.125 C14.03553038 11.22645931 16.59098613 13.39023497 19 16 C18.34 16.66 17.68 17.32 17 18 C13.28497884 17.72195268 11.54983677 15.87032309 9.0625 13.25 C6.76077933 10.84072229 4.46172791 8.49431034 2 6.25 C0 4 0 4 0 0 Z " fill="#2F4755" transform="translate(338,672)"/>
<path d="M0 0 C3.42724441 5.14086661 3.1015597 10.00797796 3 16 C-0.59854349 14.8004855 -1.18616815 13.72074777 -3.25 10.625 C-3.79140625 9.83351563 -4.3328125 9.04203125 -4.890625 8.2265625 C-6 6 -6 6 -5 3 C-2.4375 1.3125 -2.4375 1.3125 0 0 Z " fill="#3C555C" transform="translate(818,445)"/>
<path d="M0 0 C4.98287932 0.39081406 8.65022018 1.55987961 13 4 C12.34 4.66 11.68 5.32 11 6 C11 5.34 11 4.68 11 4 C10.34 4 9.68 4 9 4 C9 5.32 9 6.64 9 8 C8.34 8 7.68 8 7 8 C7 8.66 7 9.32 7 10 C7.66 10 8.32 10 9 10 C8.67 11.32 8.34 12.64 8 14 C6.8745809 12.39612733 5.74968028 10.79189084 4.625 9.1875 C3.99851562 8.29417969 3.37203125 7.40085937 2.7265625 6.48046875 C1.46449761 4.66732122 0.22541192 2.83811789 -1 1 C-0.67 0.67 -0.34 0.34 0 0 Z " fill="#596A71" transform="translate(567,680)"/>
<path d="M0 0 C0.33 0 0.66 0 1 0 C1.01981934 0.88558594 1.03963867 1.77117188 1.06005859 2.68359375 C1.43920954 25.42740857 1.43920954 25.42740857 4 48 C1 46 1 46 0.25634766 43.80371094 C-1.27867664 34.54223728 -1.02208981 25.58357632 -0.625 16.25 C-0.56659985 14.66670716 -0.50930079 13.08337332 -0.453125 11.5 C-0.31474636 7.66607651 -0.16157153 3.83301323 0 0 Z " fill="#96A2A6" transform="translate(409,600)"/>
<path d="M0 0 C1.17246771 4.09902098 1.07076062 7.75436258 1 12 C0.67 12 0.34 12 0 12 C0.020625 13.299375 0.04125 14.59875 0.0625 15.9375 C0.08399454 17.29165633 0.07148199 18.64756083 0 20 C-0.33 20.33 -0.66 20.66 -1 21 C-1.0991757 23.14394519 -1.1297015 25.29126732 -1.125 27.4375 C-1.12757813 28.61183594 -1.13015625 29.78617187 -1.1328125 30.99609375 C-1.20765546 33.9240809 -1.20765546 33.9240809 0 36 C-0.16780163 38.69565202 -0.61155645 41.32405554 -1 44 C-1.33 44 -1.66 44 -2 44 C-5.13183343 30.12798629 -4.07521734 13.55980054 0 0 Z " fill="#8E98A0" transform="translate(489,292)"/>
<path d="M0 0 C0.33 0 0.66 0 1 0 C1 5.61 1 11.22 1 17 C0.34 17 -0.32 17 -1 17 C-0.67 24.92 -0.34 32.84 0 41 C0.66 41.33 1.32 41.66 2 42 C1.67 44.31 1.34 46.62 1 49 C0.67 49 0.34 49 0 49 C-1.82562994 40.77426875 -2.30676433 32.91058137 -2.25 24.5 C-2.25773437 23.35402344 -2.26546875 22.20804688 -2.2734375 21.02734375 C-2.25701099 13.80789296 -1.56445477 7.04895567 0 0 Z " fill="#8D979B" transform="translate(437,593)"/>
<path d="M0 0 C-1.65 0.33 -3.3 0.66 -5 1 C-5 1.66 -5 2.32 -5 3 C-4.401875 2.79375 -3.80375 2.5875 -3.1875 2.375 C-1 2 -1 2 2 4 C4.31923274 4.36576054 4.31923274 4.36576054 6.88671875 4.4140625 C7.82451172 4.45273437 8.76230469 4.49140625 9.72851562 4.53125 C10.70498047 4.5621875 11.68144531 4.593125 12.6875 4.625 C14.16959961 4.68300781 14.16959961 4.68300781 15.68164062 4.7421875 C18.12090707 4.83645867 20.56016595 4.92206218 23 5 C23.33 4.34 23.66 3.68 24 3 C26.31 3.33 28.62 3.66 31 4 C31 4.33 31 4.66 31 5 C25.08750168 6.26623453 19.20494683 6.22055684 13.1875 6.25 C11.62418945 6.2809375 11.62418945 6.2809375 10.02929688 6.3125 C3.45566952 6.34551257 -1.92579945 5.55330161 -8 3 C-8 2.34 -8 1.68 -8 1 C-3.375 -1.125 -3.375 -1.125 0 0 Z " fill="#81979C" transform="translate(467,790)"/>
<path d="M0 0 C11.52164009 0.77904328 11.52164009 0.77904328 17 3 C17 3.66 17 4.32 17 5 C11.61509359 5.91657981 6.45769811 6.11138159 1 6 C1.99 5.67 2.98 5.34 4 5 C4 4.34 4 3.68 4 3 C2.0399719 1.36323743 2.0399719 1.36323743 0 0 Z " fill="#677A7C" transform="translate(594,226)"/>
<path d="M0 0 C3.42931954 3.7559214 4.56429083 8.23466745 6 13 C1.43545749 12.45660208 -1.9728176 11.20536179 -6 9 C-6 8.67 -6 8.34 -6 8 C-3.69 8 -1.38 8 1 8 C0.67 7.34 0.34 6.68 0 6 C-0.039992 4.00039988 -0.04346799 1.99952758 0 0 Z " fill="#6A7F80" transform="translate(420,668)"/>
<path d="M0 0 C5.76044212 0.60636233 10.72014369 2.75658279 16 5 C13.35261084 6.4606285 12.10551666 7 9 7 C7.66018514 7.3062434 6.32488113 7.63451555 5 8 C0 2.25 0 2.25 0 0 Z " fill="#40505A" transform="translate(239,335)"/>
<path d="M0 0 C0 0.99 0 1.98 0 3 C-0.67160156 2.86722656 -1.34320312 2.73445313 -2.03515625 2.59765625 C-13.28631823 0.60874116 -24.60104461 0.3593673 -36 0 C-36 -0.33 -36 -0.66 -36 -1 C-31.87586894 -1.22866648 -27.75081025 -1.42916866 -23.625 -1.625 C-22.46871094 -1.68945312 -21.31242188 -1.75390625 -20.12109375 -1.8203125 C-13.09070807 -2.13807004 -6.81701066 -1.79825688 0 0 Z " fill="#95A5A9" transform="translate(742,333)"/>
<path d="M0 0 C0.94616328 3.42984189 1 6.44175575 1 10 C-0.4609375 11.38671875 -0.4609375 11.38671875 -2.375 12.6875 C-3.31472656 13.34298828 -3.31472656 13.34298828 -4.2734375 14.01171875 C-6 15 -6 15 -8 15 C-6.62712658 11.30123909 -4.93644547 8.0485524 -2.875 4.6875 C-2.33617187 3.80449219 -1.79734375 2.92148437 -1.2421875 2.01171875 C-0.83226562 1.34785156 -0.42234375 0.68398438 0 0 Z " fill="#55696A" transform="translate(649,473)"/>
<path d="M0 0 C0.33 1.65 0.66 3.3 1 5 C-0.134375 4.979375 -1.26875 4.95875 -2.4375 4.9375 C-5.81575674 4.58422523 -5.81575674 4.58422523 -7 6 C-9.86267567 6.07325168 -12.700719 6.09238205 -15.5625 6.0625 C-16.36880859 6.05798828 -17.17511719 6.05347656 -18.00585938 6.04882812 C-20.00393756 6.03700518 -22.00197783 6.01906914 -24 6 C-24 5.67 -24 5.34 -24 5 C-16.08 4.505 -16.08 4.505 -8 4 C-8 3.01 -8 2.02 -8 1 C-5.29120665 -0.35439668 -2.99066732 -0.06501451 0 0 Z " fill="#0B2626" transform="translate(588,396)"/>
<path d="M0 0 C12.87 0.495 12.87 0.495 26 1 C26 1.33 26 1.66 26 2 C25.44538086 2.01981934 24.89076172 2.03963867 24.31933594 2.06005859 C21.79576307 2.15557651 19.27298776 2.26514567 16.75 2.375 C15.87730469 2.4059375 15.00460938 2.436875 14.10546875 2.46875 C13.26113281 2.50742187 12.41679687 2.54609375 11.546875 2.5859375 C10.77182617 2.6173584 9.99677734 2.6487793 9.19824219 2.68115234 C6.79134258 3.03026506 5.10397705 3.80551104 3 5 C1.5 3.625 1.5 3.625 0 2 C0 1.34 0 0.68 0 0 Z " fill="#829197" transform="translate(197,418)"/>
<path d="M0 0 C0.33 0 0.66 0 1 0 C1.02697137 2.60423592 1.04682489 5.20819244 1.0625 7.8125 C1.07087891 8.55048828 1.07925781 9.28847656 1.08789062 10.04882812 C1.10259828 13.29922068 1.03531702 15.89404895 0 19 C-0.99 18.67 -1.98 18.34 -3 18 C-3 15.03 -3 12.06 -3 9 C-2.34 9 -1.68 9 -1 9 C-0.67 6.03 -0.34 3.06 0 0 Z " fill="#0C2830" transform="translate(762,618)"/>
<path d="M0 0 C2.1491917 3.22378756 3.024994 5.98414648 4.125 9.6875 C4.47820312 10.86699219 4.83140625 12.04648437 5.1953125 13.26171875 C5.46085937 14.16535156 5.72640625 15.06898438 6 16 C5.34 16 4.68 16 4 16 C0.46460028 12.35411904 -1.09308718 8.98802052 -2 4 C-1.125 1.5625 -1.125 1.5625 0 0 Z " fill="#334B57" transform="translate(282,586)"/>
<path d="M0 0 C5.12583611 -0.10251672 9.94997778 -0.03590199 15 1 C15 1.33 15 1.66 15 2 C12.69 2.33 10.38 2.66 8 3 C8.33 3.99 8.66 4.98 9 6 C6.03 5.01 3.06 4.02 0 3 C0 2.01 0 1.02 0 0 Z " fill="#718587" transform="translate(701,559)"/>
<path d="M0 0 C0.33 0 0.66 0 1 0 C2.12754177 7.39015329 2.06185189 12.16971502 -1 19 C-1.37966646 20.65672637 -1.73760976 22.32070245 -2 24 C-2.66 24 -3.32 24 -4 24 C-2.66666667 16 -1.33333333 8 0 0 Z " fill="#879397" transform="translate(380,547)"/>
<path d="M0 0 C0.66 0.33 1.32 0.66 2 1 C2 1.66 2 2.32 2 3 C2.66 3 3.32 3 4 3 C3.8125 4.8125 3.8125 4.8125 3 7 C-1.17857143 10 -1.17857143 10 -4 10 C-2.8905928 6.51329166 -1.73662334 3.22515763 0 0 Z " fill="#5B696C" transform="translate(572,761)"/>
<path d="M0 0 C4.60853797 0.72008406 8.67237409 2.31295939 13 4 C12.34 5.32 11.68 6.64 11 8 C9.72791378 7.37755401 8.45738118 6.75193233 7.1875 6.125 C6.47980469 5.77695312 5.77210938 5.42890625 5.04296875 5.0703125 C3 4 3 4 0 2 C0 1.34 0 0.68 0 0 Z " fill="#304956" transform="translate(405,716)"/>
<path d="M0 0 C0.56203125 0.25652344 1.1240625 0.51304687 1.703125 0.77734375 C0.30234102 2.3128185 -1.11808403 3.83039523 -2.546875 5.33984375 C-3.73023438 6.61021484 -3.73023438 6.61021484 -4.9375 7.90625 C-7.296875 9.77734375 -7.296875 9.77734375 -9.59375 9.5546875 C-10.43679688 9.16990234 -10.43679688 9.16990234 -11.296875 8.77734375 C-9.89609102 7.241869 -8.47566597 5.72429227 -7.046875 4.21484375 C-5.86351562 2.94447266 -5.86351562 2.94447266 -4.65625 1.6484375 C-2.296875 -0.22265625 -2.296875 -0.22265625 0 0 Z " fill="#313F45" transform="translate(717.296875,462.22265625)"/>
<path d="M0 0 C-1.73807186 3.47614371 -5.67379518 3.94440065 -9.1875 5.1796875 C-12.23428628 6.0683335 -14.83960636 6.34166418 -18 6 C-17.67 5.01 -17.34 4.02 -17 3 C-16.67 3.66 -16.34 4.32 -16 5 C-15.01 4.34 -14.02 3.68 -13 3 C-8.59582286 0.58480608 -5.0209376 -0.13947049 0 0 Z " fill="#74888A" transform="translate(631,717)"/>
<path d="M0 0 C3.7242656 5.5863984 3.12977336 11.88570823 3.0625 18.375 C3.05798828 19.20644531 3.05347656 20.03789063 3.04882812 20.89453125 C3.03713164 22.92971897 3.01919935 24.96486923 3 27 C2.67 27 2.34 27 2 27 C1.67 22.05 1.34 17.1 1 12 C0.67 12 0.34 12 0 12 C0 8.04 0 4.08 0 0 Z " fill="#7E9191" transform="translate(761,607)"/>
<path d="M0 0 C3.29657764 4.94486647 5.33927978 9.73218834 4.5625 15.6875 C4.46066406 16.49574219 4.35882813 17.30398438 4.25390625 18.13671875 C4.12822266 19.05904297 4.12822266 19.05904297 4 20 C3.67 20 3.34 20 3 20 C2.49550598 17.41747107 1.99625699 14.83411297 1.5 12.25 C1.35691406 11.52039063 1.21382813 10.79078125 1.06640625 10.0390625 C0.41111121 6.60656468 0 3.50830509 0 0 Z " fill="#8D949A" transform="translate(377,507)"/>
<path d="M0 0 C0.66 0 1.32 0 2 0 C3.65 3.3 5.3 6.6 7 10 C5.02 10.99 5.02 10.99 3 12 C2.49440092 10.56445975 1.9957251 9.1264798 1.5 7.6875 C1.2215625 6.88699219 0.943125 6.08648438 0.65625 5.26171875 C0 3 0 3 0 0 Z " fill="#3D5464" transform="translate(295,617)"/>
<path d="M0 0 C1.13643966 3.40931897 0.86747764 4.00335456 -0.4375 7.1875 C-0.72496094 7.90292969 -1.01242187 8.61835937 -1.30859375 9.35546875 C-1.53675781 9.89816406 -1.76492188 10.44085937 -2 11 C-2.103125 10.360625 -2.20625 9.72125 -2.3125 9.0625 C-2.539375 8.381875 -2.76625 7.70125 -3 7 C-3.99 6.67 -4.98 6.34 -6 6 C-4.75453595 2.26360784 -3.36595047 1.81243487 0 0 Z " fill="#425562" transform="translate(792,612)"/>
<path d="M0 0 C0.66 0.33 1.32 0.66 2 1 C1.67 1.61875 1.34 2.2375 1 2.875 C-0.14193235 4.91018344 -0.14193235 4.91018344 0 7 C0.99 7.33 1.98 7.66 3 8 C-0.3 8 -3.6 8 -7 8 C-1.125 1.125 -1.125 1.125 0 0 Z " fill="#55636C" transform="translate(207,603)"/>
<path d="M0 0 C3.42724441 5.14086661 3.1015597 10.00797796 3 16 C2.34 15.67 1.68 15.34 1 15 C1.33 13.68 1.66 12.36 2 11 C1.01 10.67 0.02 10.34 -1 10 C-1.02689216 8.52093108 -1.04634621 7.04172517 -1.0625 5.5625 C-1.07410156 4.73878906 -1.08570313 3.91507812 -1.09765625 3.06640625 C-1 1 -1 1 0 0 Z " fill="#5B7377" transform="translate(818,445)"/>
<path d="M0 0 C0.99 0.33 1.98 0.66 3 1 C2.34 1 1.68 1 1 1 C0.731875 1.598125 0.46375 2.19625 0.1875 2.8125 C-1 5 -1 5 -2.5625 6.375 C-4.62278935 8.70402275 -4.6639317 10.97538534 -5 14 C-5.99 14 -6.98 14 -8 14 C-8 13.34 -8 12.68 -8 12 C-7.34 12 -6.68 12 -6 12 C-5.938125 10.7625 -5.87625 9.525 -5.8125 8.25 C-5.39098054 4.81064557 -5.10850517 4.11707137 -2.625 1.4375 C-1.75875 0.963125 -0.8925 0.48875 0 0 Z " fill="#5D666B" transform="translate(389,609)"/>
<path d="M0 0 C2.08163365 3.12245047 3.32575613 6.07034881 4.6875 9.5625 C5.14511719 10.71878906 5.60273438 11.87507813 6.07421875 13.06640625 C7 16 7 16 6 18 C5.34 18 4.68 18 4 18 C3.01 14.7 2.02 11.4 1 8 C0.67 8 0.34 8 0 8 C0 5.36 0 2.72 0 0 Z " fill="#6E7D7E" transform="translate(465,352)"/>
<path d="M0 0 C0.33 0 0.66 0 1 0 C1.53010201 2.60259124 2.04937795 5.206557 2.5625 7.8125 C2.78969727 8.91948242 2.78969727 8.91948242 3.02148438 10.04882812 C4.11328125 15.66015625 4.11328125 15.66015625 3 19 C2.34 19 1.68 19 1 19 C1 15.7 1 12.4 1 9 C0.34 9 -0.32 9 -1 9 C-0.67 6.03 -0.34 3.06 0 0 Z " fill="#819091" transform="translate(634,332)"/>
<path d="M0 0 C1.17246771 4.09902098 1.07076062 7.75436258 1 12 C0.67 12 0.34 12 0 12 C0 14.64 0 17.28 0 20 C-0.66 20.33 -1.32 20.66 -2 21 C-2.20177072 13.64657821 -2.21211746 7.05112439 0 0 Z " fill="#606E74" transform="translate(489,292)"/>
<path d="M0 0 C0.99 0.33 1.98 0.66 3 1 C3.6875 3.0625 3.6875 3.0625 4 5 C3.34 5 2.68 5 2 5 C2 7.31 2 9.62 2 12 C1.01 12.33 0.02 12.66 -1 13 C-0.67 8.71 -0.34 4.42 0 0 Z " fill="#728087" transform="translate(418,226)"/>
<path d="M0 0 C1.98 0 3.96 0 6 0 C6 0.99 6 1.98 6 3 C5.67 2.34 5.34 1.68 5 1 C4.34 1 3.68 1 3 1 C3 2.32 3 3.64 3 5 C2.34 5 1.68 5 1 5 C1 5.66 1 6.32 1 7 C1.66 7 2.32 7 3 7 C2.67 8.32 2.34 9.64 2 11 C-1.07692308 4.6 -1.07692308 4.6 -0.6875 1.5625 C-0.460625 1.046875 -0.23375 0.53125 0 0 Z " fill="#41515B" transform="translate(573,683)"/>
<path d="M0 0 C0.33 0 0.66 0 1 0 C1.5304408 2.26860837 2.04905434 4.53998489 2.5625 6.8125 C2.85253906 8.07707031 3.14257812 9.34164062 3.44140625 10.64453125 C4 14 4 14 3 17 C1 16 1 16 0.37890625 14.328125 C-0.09148053 11.43791344 -0.0943182 8.67727465 -0.0625 5.75 C-0.04896484 4.13351562 -0.04896484 4.13351562 -0.03515625 2.484375 C-0.02355469 1.66453125 -0.01195312 0.8446875 0 0 Z " fill="#717E7D" transform="translate(290,551)"/>
<path d="M0 0 C0.66 0.33 1.32 0.66 2 1 C-2.22368421 8.44172932 -2.22368421 8.44172932 -6.1875 9.6875 C-6.785625 9.790625 -7.38375 9.89375 -8 10 C-6.34908222 5.70761377 -3.26245434 3.1206085 0 0 Z " fill="#4E5C60" transform="translate(687,375)"/>
<path d="M0 0 C0.75 1.625 0.75 1.625 1 4 C-0.75 7.25 -0.75 7.25 -3 10 C-3.99 10 -4.98 10 -6 10 C-5.49477778 5.62140745 -2.82172778 3.18348776 0 0 Z " fill="#333F42" transform="translate(621,712)"/>
<path d="M0 0 C0.99 0 1.98 0 3 0 C4.125 3.75 4.125 3.75 3 6 C3.66 6 4.32 6 5 6 C5.93423645 9.01031744 6.04449911 9.86650268 5 13 C4.34 13 3.68 13 3 13 C2.01 8.71 1.02 4.42 0 0 Z " fill="#69747A" transform="translate(578,698)"/>
<path d="M0 0 C1.65 0.33 3.3 0.66 5 1 C0.375 6.875 0.375 6.875 -3 8 C-3.33 7.01 -3.66 6.02 -4 5 C-3.01 4.67 -2.02 4.34 -1 4 C-0.26676204 1.98491642 -0.26676204 1.98491642 0 0 Z " fill="#405A61" transform="translate(375,701)"/>
<path d="M0 0 C-1.65 0.33 -3.3 0.66 -5 1 C-5 1.66 -5 2.32 -5 3 C-4.1028125 2.6596875 -4.1028125 2.6596875 -3.1875 2.3125 C-2.1046875 2.1578125 -2.1046875 2.1578125 -1 2 C-0.01 2.99 0.98 3.98 2 5 C-0.97 4.67 -3.94 4.34 -7 4 C-7.33 3.01 -7.66 2.02 -8 1 C-3.375 -1.125 -3.375 -1.125 0 0 Z " fill="#616F75" transform="translate(467,790)"/>
<path d="M0 0 C1 3 1 3 1 5 C1.99 5.33 2.98 5.66 4 6 C-0.455 6.495 -0.455 6.495 -5 7 C-3.38262276 3.76524552 -2.52370777 2.29427979 0 0 Z " fill="#4C5D62" transform="translate(657,758)"/>
<path d="M0 0 C0.33 0 0.66 0 1 0 C1.59732819 2.76264289 2 5.16032769 2 8 C1.34 8 0.68 8 0 8 C0.33 8.99 0.66 9.98 1 11 C0.34 11 -0.32 11 -1 11 C-0.67 12.32 -0.34 13.64 0 15 C-0.99 15.33 -1.98 15.66 -3 16 C-2.68806536 14.27073126 -2.37542638 12.54158956 -2.0625 10.8125 C-1.88847656 9.84957031 -1.71445312 8.88664063 -1.53515625 7.89453125 C-1.0476265 5.25760028 -0.53328895 2.6280095 0 0 Z " fill="#768187" transform="translate(640,667)"/>
<path d="M0 0 C0 4.1041911 -1.45843064 5.84021107 -4 9 C-6.75 9.875 -6.75 9.875 -9 10 C-8.06409496 8.8944811 -7.12620142 7.79064547 -6.1875 6.6875 C-5.66542969 6.07261719 -5.14335938 5.45773437 -4.60546875 4.82421875 C-3.12827531 3.14575321 -1.59960869 1.56117966 0 0 Z " fill="#46545A" transform="translate(691,488)"/>
<path d="M0 0 C0.33 0 0.66 0 1 0 C2.05544789 4.53842592 1.90070788 6.79843521 0 11 C-0.73870587 13.65240028 -1.36411927 16.32021692 -2 19 C-2.33 19 -2.66 19 -3 19 C-2.48446121 12.50149789 -1.53332291 6.33773468 0 0 Z " fill="#8B979B" transform="translate(315,473)"/>
<path d="M0 0 C0.66 0.66 1.32 1.32 2 2 C1.9765625 4.1640625 1.9765625 4.1640625 1.625 6.625 C1.51414062 7.44226563 1.40328125 8.25953125 1.2890625 9.1015625 C1.19367187 9.72804688 1.09828125 10.35453125 1 11 C0.01 11.33 -0.98 11.66 -2 12 C-1.85831863 10.56208484 -1.71148957 9.1246763 -1.5625 7.6875 C-1.48128906 6.88699219 -1.40007813 6.08648437 -1.31640625 5.26171875 C-1 3 -1 3 0 0 Z " fill="#5A656B" transform="translate(672,398)"/>
<path d="M0 0 C1.5 1.3125 1.5 1.3125 3 3 C3 3.99 3 4.98 3 6 C-0.3 5.01 -3.6 4.02 -7 3 C-7 2.67 -7 2.34 -7 2 C-4.69 2 -2.38 2 0 2 C0 1.34 0 0.68 0 0 Z " fill="#6B7F85" transform="translate(762,338)"/>
<path d="M0 0 C5.75 0.75 5.75 0.75 8 3 C7.01 3.66 6.02 4.32 5 5 C5.66 5.66 6.32 6.32 7 7 C6.01 7 5.02 7 4 7 C0 2.65714286 0 2.65714286 0 0 Z " fill="#697881" transform="translate(239,335)"/>
<path d="M0 0 C0.99 0.33 1.98 0.66 3 1 C4.1875 4.0625 4.1875 4.0625 5 7 C4.01 6.67 3.02 6.34 2 6 C1.67 6.66 1.34 7.32 1 8 C-0.42944945 5.64561267 -1.08661261 4.51967567 -0.625 1.75 C-0.41875 1.1725 -0.2125 0.595 0 0 Z " fill="#414E5A" transform="translate(420,230)"/>
<path d="M0 0 C0.33 1.32 0.66 2.64 1 4 C2.32 3.67 3.64 3.34 5 3 C3.48601545 6.78496138 2.9855604 7.0072198 -1 9 C-0.67 6.03 -0.34 3.06 0 0 Z " fill="#637378" transform="translate(317,750)"/>
<path d="M0 0 C0.99 0 1.98 0 3 0 C2.979375 0.94875 2.95875 1.8975 2.9375 2.875 C2.77448174 5.90666283 2.77448174 5.90666283 4 8 C3.71887936 10.00800456 3.38932033 12.01014051 3 14 C1.20724134 10.88089144 0.65709282 8.32317572 0.375 4.75 C0.30023438 3.85796875 0.22546875 2.9659375 0.1484375 2.046875 C0.09945313 1.37140625 0.05046875 0.6959375 0 0 Z " fill="#707E86" transform="translate(313,545)"/>
<path d="M0 0 C1.58467728 0.28427417 3.1677057 0.57774818 4.75 0.875 C6.07257812 1.11863281 6.07257812 1.11863281 7.421875 1.3671875 C10 2 10 2 14 4 C10.7 4 7.4 4 4 4 C4 3.34 4 2.68 4 2 C2.35 2 0.7 2 -1 2 C-0.67 1.34 -0.34 0.68 0 0 Z " fill="#748185" transform="translate(525,419)"/>
<path d="M0 0 C2.475 0.99 2.475 0.99 5 2 C4.01 2.495 4.01 2.495 3 3 C3.185625 3.556875 3.37125 4.11375 3.5625 4.6875 C4.07551165 7.399133 3.6640724 9.34371039 3 12 C0.97649676 8.96474514 0.67875982 7.80573798 0.375 4.3125 C0.30023438 3.50425781 0.22546875 2.69601562 0.1484375 1.86328125 C0.09945313 1.24839844 0.05046875 0.63351562 0 0 Z " fill="#7A8690" transform="translate(317,269)"/>
<path d="M0 0 C1.32 0.33 2.64 0.66 4 1 C0.535 3.97 0.535 3.97 -3 7 C-3.66 6.34 -4.32 5.68 -5 5 C-2.75 2.4375 -2.75 2.4375 0 0 Z " fill="#3B4B51" transform="translate(514,252)"/>
<path d="M0 0 C2.97069541 2.54631035 4.4775751 5.42230149 6 9 C5.67 9.66 5.34 10.32 5 11 C1.87729874 8.48169253 1.05476902 7.2738451 0.25 3.25 C0.1675 2.1775 0.085 1.105 0 0 Z " fill="#596A71" transform="translate(753,590)"/>
<path d="M0 0 C0.33 0.99 0.66 1.98 1 3 C1.99 3.33 2.98 3.66 4 4 C3.67 7.3 3.34 10.6 3 14 C2.67 14 2.34 14 2 14 C-0.29612756 4.58997722 -0.29612756 4.58997722 0 0 Z " fill="#72868D" transform="translate(818,556)"/>
<path d="M0 0 C1.65 0 3.3 0 5 0 C1.35140239 3.04049801 -2.7444533 4.96518762 -7 7 C-7 6.01 -7 5.02 -7 4 C-4 2 -4 2 0 2 C0 1.34 0 0.68 0 0 Z " fill="#5D7C7E" transform="translate(520,555)"/>
<path d="M0 0 C5.4389165 -0.21755666 9.87080814 -0.10428384 15 2 C15 2.66 15 3.32 15 4 C13.24871182 3.71617054 11.49899997 3.42260471 9.75 3.125 C8.77546875 2.96257813 7.8009375 2.80015625 6.796875 2.6328125 C4.22735883 2.05144152 2.27928944 1.29159735 0 0 Z " fill="#7F9495" transform="translate(242,532)"/>
<path d="M0 0 C0.33 0 0.66 0 1 0 C1.33 2.31 1.66 4.62 2 7 C2.99 7 3.98 7 5 7 C4.34 8.65 3.68 10.3 3 12 C2.34 12 1.68 12 1 12 C-0.26237731 9.47524538 -0.09856404 7.68799534 -0.0625 4.875 C-0.05347656 3.96492188 -0.04445313 3.05484375 -0.03515625 2.1171875 C-0.02355469 1.41851562 -0.01195312 0.71984375 0 0 Z " fill="#6B7E85" transform="translate(661,345)"/>
<path d="M0 0 C1.31611677 0.95336021 2.62778961 1.91285774 3.9375 2.875 C4.66839844 3.40867187 5.39929688 3.94234375 6.15234375 4.4921875 C8 6 8 6 9 8 C5 8 5 8 2.25 5.6875 C0 3 0 3 0 0 Z " fill="#395058" transform="translate(457,724)"/>
<path d="M0 0 C1.32 0.33 2.64 0.66 4 1 C0.04 4.465 0.04 4.465 -4 8 C-4 4.09161134 -2.49432124 2.88405893 0 0 Z " fill="#313F46" transform="translate(212,599)"/>
<path d="M0 0 C-0.33 1.65 -0.66 3.3 -1 5 C-3.91517292 3.92598892 -5.77810176 3.22189824 -8 1 C-5.29120665 -0.35439668 -2.99066732 -0.06501451 0 0 Z " fill="#13242A" transform="translate(715,561)"/>
<path d="M0 0 C0.33 0 0.66 0 1 0 C1 2.97 1 5.94 1 9 C0.34 9 -0.32 9 -1 9 C-1 10.98 -1 12.96 -1 15 C-1.33 15 -1.66 15 -2 15 C-2.12375 14.195625 -2.2475 13.39125 -2.375 12.5625 C-2.684375 11.2940625 -2.684375 11.2940625 -3 10 C-3.66 9.67 -4.32 9.34 -5 9 C-4.0409375 8.443125 -4.0409375 8.443125 -3.0625 7.875 C-0.36141928 5.41947207 -0.31592995 3.55421195 0 0 Z " fill="#727E84" transform="translate(273,549)"/>
<path d="M0 0 C2.64 0.33 5.28 0.66 8 1 C8 1.33 8 1.66 8 2 C6.58622218 2.36552803 5.16879424 2.71695495 3.75 3.0625 C2.96109375 3.25972656 2.1721875 3.45695313 1.359375 3.66015625 C-1.13814708 4.01989867 -2.65550803 3.9077126 -5 3 C-5.33 2.34 -5.66 1.68 -6 1 C-3.03 1.495 -3.03 1.495 0 2 C0 1.34 0 0.68 0 0 Z " fill="#6B898B" transform="translate(586,231)"/>
<path d="M0 0 C2.125 0.375 2.125 0.375 4 1 C1.6875 3.5 1.6875 3.5 -1 6 C-1.99 6 -2.98 6 -4 6 C-2.84826645 3.53199953 -1.95216435 1.95216435 0 0 Z " fill="#36444B" transform="translate(522,245)"/>
<path d="M0 0 C0.66 0.33 1.32 0.66 2 1 C0.55049545 4.7910119 -1.15172566 8.3874638 -3 12 C-3.33 12 -3.66 12 -4 12 C-4.20086443 8.28400809 -4.1519437 7.22791555 -2 4 C-1.34 4 -0.68 4 0 4 C0 2.68 0 1.36 0 0 Z " fill="#6C7C80" transform="translate(725,699)"/>
<path d="M0 0 C5.15171623 -0.09038099 9.91913204 0.15318867 15 1 C15 1.33 15 1.66 15 2 C9.06 2.495 9.06 2.495 3 3 C3 2.34 3 1.68 3 1 C2.01 0.67 1.02 0.34 0 0 Z " fill="#899998" transform="translate(616,557)"/>
<path d="M0 0 C0 0.33 0 0.66 0 1 C-1.65 1 -3.3 1 -5 1 C-5 1.66 -5 2.32 -5 3 C-8.3 3 -11.6 3 -15 3 C-10.12206417 -0.25195722 -5.77608621 -0.11325659 0 0 Z " fill="#829598" transform="translate(734,529)"/>
<path d="M0 0 C0.66 0 1.32 0 2 0 C1.67 1.65 1.34 3.3 1 5 C1.66 5 2.32 5 3 5 C2.34 6.65 1.68 8.3 1 10 C0.01 10 -0.98 10 -2 10 C-1.649375 9.443125 -1.29875 8.88625 -0.9375 8.3125 C0.22056358 5.45594318 -0.28550628 3.93736308 -1 1 C-0.67 0.67 -0.34 0.34 0 0 Z " fill="#61717C" transform="translate(341,347)"/>
<path d="M0 0 C3.91402949 1.26941497 5.79072873 2.51167694 8 6 C6.35 6 4.7 6 3 6 C3 5.34 3 4.68 3 4 C2.34 4 1.68 4 1 4 C0.67 2.68 0.34 1.36 0 0 Z " fill="#536165" transform="translate(702,255)"/>
<path d="M0 0 C3.91211733 1.15585285 6.8745041 2.35534962 10 5 C8.02 5 6.04 5 4 5 C3.67 4.01 3.34 3.02 3 2 C0.98491642 1.26676204 0.98491642 1.26676204 -1 1 C-0.67 0.67 -0.34 0.34 0 0 Z " fill="#79868D" transform="translate(515,703)"/>
<path d="M0 0 C2.3431213 0.25561323 4.67843403 0.59270772 7 1 C7.33 1.66 7.66 2.32 8 3 C7.67 3.66 7.34 4.32 7 5 C4.0625 4.1875 4.0625 4.1875 1 3 C0.67 2.01 0.34 1.02 0 0 Z " fill="#58676D" transform="translate(587,559)"/>
<path d="M0 0 C-0.99 1.485 -0.99 1.485 -2 3 C-4.97 2.505 -4.97 2.505 -8 2 C-8 1.34 -8 0.68 -8 0 C-4.94736336 -0.98120464 -3.05263664 -0.98120464 0 0 Z " fill="#152631" transform="translate(191,515)"/>
<path d="M0 0 C0.66 0.33 1.32 0.66 2 1 C-0.25 3.5625 -0.25 3.5625 -3 6 C-4.32 5.67 -5.64 5.34 -7 5 C-4.69 3.35 -2.38 1.7 0 0 Z " fill="#546365" transform="translate(571,484)"/>
<path d="M0 0 C0.66 0.33 1.32 0.66 2 1 C2.25 8.625 2.25 8.625 0 12 C-0.19573608 10.56359829 -0.38127816 9.12580496 -0.5625 7.6875 C-0.66691406 6.88699219 -0.77132813 6.08648437 -0.87890625 5.26171875 C-1 3 -1 3 0 0 Z " fill="#8F9AA1" transform="translate(273,468)"/>
<path d="M0 0 C0.33 0 0.66 0 1 0 C1.33 4.62 1.66 9.24 2 14 C1.01 13.67 0.02 13.34 -1 13 C-0.67 8.71 -0.34 4.42 0 0 Z " fill="#8B969C" transform="translate(415,248)"/>
<path d="M0 0 C0.33 0 0.66 0 1 0 C1.12375 0.804375 1.2475 1.60875 1.375 2.4375 C1.58125 3.283125 1.7875 4.12875 2 5 C2.66 5.33 3.32 5.66 4 6 C4.33 5.01 4.66 4.02 5 3 C4.6875 5.375 4.6875 5.375 4 8 C3.01 8.66 2.02 9.32 1 10 C0.67 6.7 0.34 3.4 0 0 Z " fill="#7D9198" transform="translate(758,631)"/>
<path d="M0 0 C0.33 0 0.66 0 1 0 C1.25 2.3125 1.25 2.3125 1 5 C-1 6.8125 -1 6.8125 -3 8 C-3.66 7.67 -4.32 7.34 -5 7 C-4.19152271 5.83054208 -3.37810888 4.66449539 -2.5625 3.5 C-2.11003906 2.8503125 -1.65757812 2.200625 -1.19140625 1.53125 C-0.79824219 1.0259375 -0.40507812 0.520625 0 0 Z " fill="#455158" transform="translate(294,620)"/>
<path d="M0 0 C1.485 0.99 1.485 0.99 3 2 C2.67 2.66 2.34 3.32 2 4 C2.66 4 3.32 4 4 4 C4 6.31 4 8.62 4 11 C1.55160412 7.32740617 0 4.45351799 0 0 Z " fill="#6C787D" transform="translate(319,570)"/>
<path d="M0 0 C0.66 0 1.32 0 2 0 C0.84414715 3.91211733 -0.35534962 6.8745041 -3 10 C-4 7 -4 7 -3.22265625 5.17578125 C-2.1484375 3.45052083 -1.07421875 1.72526042 0 0 Z " fill="#54636A" transform="translate(309,420)"/>
<path d="M0 0 C0.33 0.99 0.66 1.98 1 3 C-0.9375 5.6875 -0.9375 5.6875 -3 8 C-3.99 7.67 -4.98 7.34 -6 7 C-4.02 4.69 -2.04 2.38 0 0 Z " fill="#364448" transform="translate(357,396)"/>
<path d="M0 0 C2.9719385 1.12451727 5.33440687 2.22293791 8 4 C4.37 4 0.74 4 -3 4 C-1.68 3.34 -0.36 2.68 1 2 C0.67 1.34 0.34 0.68 0 0 Z " fill="#354D55" transform="translate(445,728)"/>
<path d="M0 0 C1.32 0.33 2.64 0.66 4 1 C3.360625 1.268125 2.72125 1.53625 2.0625 1.8125 C-0.33131686 2.88667752 -0.33131686 2.88667752 -1 6 C-1.66 6 -2.32 6 -3 6 C-3 5.01 -3 4.02 -3 3 C-2.34 3 -1.68 3 -1 3 C-0.67 2.01 -0.34 1.02 0 0 Z " fill="#4A6D6D" transform="translate(654,475)"/>
<path d="M0 0 C0.33 0 0.66 0 1 0 C0.67 3.3 0.34 6.6 0 10 C-0.99 9.67 -1.98 9.34 -3 9 C-2.01 6.03 -1.02 3.06 0 0 Z " fill="#6D797D" transform="translate(576,752)"/>
<path d="M0 0 C-0.33 0.66 -0.66 1.32 -1 2 C-3.3140622 2.73075648 -5.64828869 3.40138258 -8 4 C-8.33 3.01 -8.66 2.02 -9 1 C-5.92677456 0.08941469 -3.19902639 -0.08886184 0 0 Z " fill="#59797B" transform="translate(631,717)"/>
<path d="M0 0 C0.185625 0.9590625 0.185625 0.9590625 0.375 1.9375 C0.684375 2.9584375 0.684375 2.9584375 1 4 C1.66 4.33 2.32 4.66 3 5 C1.02 5.33 -0.96 5.66 -3 6 C-1.125 1.125 -1.125 1.125 0 0 Z " fill="#727D83" transform="translate(244,687)"/>
<path d="M0 0 C0 0.66 0 1.32 0 2 C-0.99 2 -1.98 2 -3 2 C-3.33 2.66 -3.66 3.32 -4 4 C-4 3.34 -4 2.68 -4 2 C-5.98 2 -7.96 2 -10 2 C-6.5980513 -0.09350689 -3.94727588 -0.17942163 0 0 Z " fill="#708083" transform="translate(272,490)"/>
<path d="M0 0 C0.99 0.33 1.98 0.66 3 1 C0.60490662 3.89932357 -1.31245243 4.50168276 -5 5 C-5 4.34 -5 3.68 -5 3 C-3.68 3 -2.36 3 -1 3 C-0.67 2.01 -0.34 1.02 0 0 Z " fill="#6C7F80" transform="translate(577,662)"/>
<path d="M0 0 C2.46800047 1.15173355 4.04783565 2.04783565 6 4 C5.67 4.99 5.34 5.98 5 7 C3.29115995 5.37660195 1.62553283 3.70680947 0 2 C0 1.34 0 0.68 0 0 Z " fill="#31474F" transform="translate(363,640)"/>
<path d="M0 0 C0.33 0 0.66 0 1 0 C1.08159574 4.16138263 0.98248524 7.9472484 0 12 C-0.33 12 -0.66 12 -1 12 C-2.42857143 3.42857143 -2.42857143 3.42857143 0 0 Z " fill="#7E8E95" transform="translate(794,600)"/>
<path d="M0 0 C2.97 0.99 5.94 1.98 9 3 C9 3.33 9 3.66 9 4 C6.36 3.67 3.72 3.34 1 3 C0.67 2.01 0.34 1.02 0 0 Z " fill="#778188" transform="translate(681,571)"/>
<path d="M0 0 C0.75 1.75 0.75 1.75 1 4 C-0.9375 6.25 -0.9375 6.25 -3 8 C-3.33 7.34 -3.66 6.68 -4 6 C-2.68 4.02 -1.36 2.04 0 0 Z " fill="#627074" transform="translate(451,560)"/>
<path d="M0 0 C0.66 0.66 1.32 1.32 2 2 C-1.465 4.97 -1.465 4.97 -5 8 C-5.66 7.67 -6.32 7.34 -7 7 C-4.69 4.69 -2.38 2.38 0 0 Z " fill="#D3D3D6" transform="translate(490,552)"/>
<path d="M0 0 C4.95 0.99 4.95 0.99 10 2 C8.02 2.99 8.02 2.99 6 4 C5.67 3.34 5.34 2.68 5 2 C3.68 2.33 2.36 2.66 1 3 C0.67 2.01 0.34 1.02 0 0 Z " fill="#757C83" transform="translate(336,539)"/>
<path d="M0 0 C0.66 0 1.32 0 2 0 C1.34 3.3 0.68 6.6 0 10 C-2 7 -2 7 -2 5 C-1.34 5 -0.68 5 0 5 C0 3.35 0 1.7 0 0 Z " fill="#7C8D92" transform="translate(370,501)"/>
<path d="M0 0 C0.33 0.66 0.66 1.32 1 2 C-0.32 3.65 -1.64 5.3 -3 7 C-3.99 6.67 -4.98 6.34 -6 6 C-4.02 4.02 -2.04 2.04 0 0 Z " fill="#404E52" transform="translate(698,481)"/>
<path d="M0 0 C2.31 0 4.62 0 7 0 C4.87219421 2.34058637 2.88437779 3.70700306 0 5 C0 3.33333333 0 1.66666667 0 0 Z " fill="#52626A" transform="translate(284,424)"/>
<path d="M0 0 C0.66 0.99 1.32 1.98 2 3 C-4.625 2.25 -4.625 2.25 -8 0 C-4.67212881 -1.1092904 -3.3006216 -1.01557588 0 0 Z " fill="#667A7A" transform="translate(553,398)"/>
<path d="M0 0 C5.75 1.75 5.75 1.75 8 4 C7.01 4.33 6.02 4.66 5 5 C5 4.34 5 3.68 5 3 C3.35 3 1.7 3 0 3 C0 2.01 0 1.02 0 0 Z " fill="#717D85" transform="translate(755,375)"/>
<path d="M0 0 C0.66 0.66 1.32 1.32 2 2 C-0.97 4.475 -0.97 4.475 -4 7 C-4 4 -4 4 -2 1.8125 C-1.34 1.214375 -0.68 0.61625 0 0 Z " fill="#314B4F" transform="translate(343,374)"/>
<path d="M0 0 C1.80330533 3.60661066 2.46599103 6.08393425 3 10 C2.01 9.67 1.02 9.34 0 9 C0 6.03 0 3.06 0 0 Z " fill="#798889" transform="translate(638,352)"/>
<path d="M0 0 C2.15377564 2.62198774 3.40072174 4.64404172 4 8 C3.01 7.67 2.02 7.34 1 7 C-0.1875 3.9375 -0.1875 3.9375 -1 1 C-0.67 0.67 -0.34 0.34 0 0 Z " fill="#768084" transform="translate(526,350)"/>
<path d="M0 0 C2.15377564 2.62198774 3.40072174 4.64404172 4 8 C3.01 7.67 2.02 7.34 1 7 C-0.1875 3.9375 -0.1875 3.9375 -1 1 C-0.67 0.67 -0.34 0.34 0 0 Z " fill="#626F76" transform="translate(430,248)"/>
<path d="M0 0 C0 0.33 0 0.66 0 1 C-1.41199578 1.39222105 -2.82992764 1.76311059 -4.25 2.125 C-5.03890625 2.33382812 -5.8278125 2.54265625 -6.640625 2.7578125 C-9.4203071 3.04314411 -10.65887549 2.44977894 -13 1 C-8.59085217 -0.10228696 -4.51617599 -0.07654536 0 0 Z " fill="#798786" transform="translate(574,226)"/>
</svg>
